<svg width="80" height="80" viewBox="0 0 80 80" fill="none" xmlns="http://www.w3.org/2000/svg">
<g clip-path="url(#clip0_26_633)">
<path d="M40 80C62.0914 80 80 62.0914 80 40C80 17.9086 62.0914 0 40 0C17.9086 0 0 17.9086 0 40C0 62.0914 17.9086 80 40 80Z" fill="#50657F"/>
<path d="M31.4748 57.5056C27.3904 57.5056 23.3089 57.5056 19.2245 57.5056C18.2632 57.5056 18.0207 57.2601 18.0207 56.2898C18.0207 54.3614 18.0027 52.433 18.0267 50.5075C18.1105 43.785 23.3448 38.0745 30.0345 37.3888C37.308 36.6432 43.779 41.638 44.8031 48.8606C45.0008 50.256 44.9259 51.6934 44.9529 53.1097C44.9738 54.1967 44.9589 55.2837 44.9559 56.3707C44.9559 57.2331 44.6834 57.5056 43.8299 57.5056C39.7126 57.5056 35.5922 57.5056 31.4748 57.5056Z" fill="white"/>
<path d="M43.4347 40.1497C45.417 38.6285 47.582 37.7152 49.9985 37.4127C57.9668 36.4096 64.3959 42.5362 65.0427 49.7978C65.2463 52.0586 65.1355 54.3494 65.1505 56.6282C65.1535 57.2301 64.7882 57.5086 64.0905 57.5086C60.9523 57.5086 57.8141 57.5086 54.6759 57.5086C52.6427 57.5086 50.6094 57.5086 48.5762 57.5086C47.7587 57.5086 47.4802 57.2241 47.4802 56.3946C47.4802 54.5201 47.4922 52.6425 47.4772 50.768C47.4473 46.9082 46.1866 43.4945 43.7252 40.521C43.6383 40.4162 43.5545 40.3054 43.4347 40.1497Z" fill="white"/>
<path d="M39.9042 27.2046C39.9042 31.855 36.1222 35.625 31.4688 35.619C26.8244 35.613 23.0574 31.8251 23.0664 27.1717C23.0753 22.5482 26.8454 18.7872 31.4748 18.7842C36.1282 18.7812 39.9042 22.5542 39.9012 27.2046H39.9042Z" fill="white"/>
<path d="M60.1078 27.2285C60.0988 31.8729 56.3078 35.6339 51.6515 35.622C47.01 35.607 43.255 31.81 43.273 27.1506C43.2909 22.5332 47.0699 18.7811 51.7024 18.7871C56.3498 18.7931 60.1168 22.5751 60.1078 27.2315V27.2285Z" fill="white"/>
</g>
<defs>
<clipPath id="clip0_26_633">
<rect width="80" height="80" fill="white"/>
</clipPath>
</defs>
</svg>
