<svg width="160" height="140" viewBox="0 0 160 140" fill="none" xmlns="http://www.w3.org/2000/svg">
<g clip-path="url(#clip0_50_12052)">
<g opacity="0.86">
<path d="M83.9252 28.3866C82.9487 28.5423 81.5618 28.9953 80.0546 29.9082C78.5333 30.807 76.9553 32.2012 75.3773 33.9351C73.7782 35.6478 72.1436 37.7072 70.0137 39.5048C68.0395 41.1609 65.8742 42.3781 63.7726 43.1778C69.0584 43.4255 74.0541 44.0837 78.6748 44.6853C84.6824 45.485 90.0814 46.2352 94.6172 46.8792C103.13 48.0894 108.585 48.9245 109.229 49.0236C108.614 48.9669 103.108 48.4715 94.5323 47.6081C89.9753 47.141 84.5479 46.5749 78.5262 45.9096C72.5115 45.2585 65.9025 44.4871 58.9609 44.5296C58.7203 44.5296 58.4726 44.5296 58.2391 44.5437C57.8216 44.5933 57.4041 44.6216 57.015 44.6428C56.0809 44.6924 55.2389 44.6782 54.5029 44.6428C52.5712 44.7136 50.6606 44.7914 48.7784 44.841C45.4739 44.9259 42.2472 44.841 39.1974 44.4588C35.808 44.0483 32.6591 43.3618 29.7933 42.5763C29.6872 42.5904 29.581 42.5975 29.4678 42.6187C29.0291 42.6683 28.5125 42.7178 27.9465 42.7461C28.2366 42.9301 28.5196 43.1071 28.8168 43.2911C29.5173 43.7228 30.2179 44.1403 30.9113 44.5933C31.5836 45.0674 32.2699 45.5416 32.9563 46.0229C33.6427 46.5112 34.322 46.9853 35.0154 47.4737C35.6877 47.9761 36.3599 48.4999 37.0251 49.0306C38.1077 49.894 39.1833 50.7928 40.2517 51.6987C40.2801 51.72 40.2942 51.7412 40.3296 51.7553C41.8509 52.9443 43.4289 54.2748 44.9786 55.7822C47.5755 58.0328 50.229 60.2691 53.0665 62.3286C58.8052 66.5112 64.8906 69.9224 70.7779 73.1849C76.6793 76.4475 82.411 79.5756 87.6402 82.9655C90.5697 84.8764 93.3435 86.8296 95.9899 88.7476C96.0465 88.7688 96.1102 88.79 96.1668 88.8112C97.6033 89.2146 99.3015 89.1156 101.078 88.8396C102.861 88.5565 104.573 88.2451 106.144 88.0398C107.715 87.8346 109.151 87.7426 110.361 87.7638C111.564 87.7921 112.548 87.8629 113.199 88.0965C113.524 88.2097 113.751 88.3371 113.899 88.4432C114.041 88.5423 114.105 88.606 114.105 88.606C114.105 88.606 114.034 88.5494 113.878 88.4715C113.723 88.3866 113.489 88.2946 113.171 88.2238C112.527 88.0823 111.557 88.1177 110.376 88.1955C109.194 88.2875 107.8 88.4786 106.257 88.7617C104.715 89.0377 103.016 89.4057 101.205 89.6888C99.9667 89.8799 98.7071 89.9931 97.5325 89.8799C99.0609 90.9981 100.547 92.1092 102.012 93.192C105.302 95.6407 108.43 97.9549 111.416 100.057C112.435 100.772 113.447 101.465 114.437 102.13C122.157 107.403 129.042 110.616 133.981 112.3C135.22 112.711 136.338 113.015 137.3 113.312C137.541 113.39 137.767 113.461 137.993 113.525C138.22 113.574 138.439 113.617 138.644 113.666C139.062 113.758 139.437 113.85 139.762 113.928C141.1 114.239 141.815 114.43 141.8 114.48C141.8 114.53 141.079 114.438 139.713 114.211C139.366 114.154 138.984 114.091 138.56 114.02C138.347 113.985 138.128 113.942 137.901 113.907C137.675 113.85 137.442 113.794 137.194 113.73C136.21 113.468 135.071 113.206 133.804 112.838C129.007 111.38 122.391 108.486 114.989 103.716C115.046 103.779 115.102 103.857 115.159 103.928C115.923 104.968 116.44 106.094 116.829 107.12C117.211 108.146 117.487 109.08 117.728 109.866C118.195 111.43 118.57 112.371 118.57 112.371C118.57 112.371 118.004 111.522 117.324 110.021C116.617 108.542 115.874 106.384 114.458 104.445C113.673 103.369 112.774 102.463 111.918 101.692C108.557 99.427 105.026 96.8792 101.297 94.1616C98.7354 92.3074 96.089 90.3541 93.3081 88.4078C91.256 86.9641 89.1261 85.5133 86.9184 84.0908C81.7246 80.7575 76.0142 77.6789 70.0915 74.4305C64.1901 71.1821 58.0481 67.7497 52.2103 63.5034C51.5735 63.0434 50.9508 62.5763 50.3422 62.095C50.3564 62.1233 50.3847 62.1517 50.3988 62.18C52.2952 64.9259 53.8519 68.0823 55.1964 71.4227C56.5409 74.7631 57.6659 78.3017 58.8264 81.8969C59.994 85.485 61.1474 88.9669 62.5697 92.2012C63.9636 95.4425 65.5628 98.4574 67.2611 101.225C68.9523 103.999 70.7708 106.504 72.5894 108.748C73.481 109.894 74.4291 110.92 75.3066 111.932C76.2406 112.895 77.0968 113.864 77.9955 114.714C81.5052 118.174 84.6965 120.63 86.9467 122.222C88.0647 123.036 88.9775 123.602 89.5861 124.006C90.046 124.303 90.3432 124.494 90.4564 124.572C90.3362 124.508 90.0248 124.324 89.5507 124.048C88.9209 123.687 87.9798 123.164 86.8123 122.399C84.4772 120.913 81.1656 118.599 77.486 115.23C76.5449 114.409 75.6533 113.461 74.6768 112.513C73.7498 111.515 72.7521 110.503 71.8181 109.37C69.9075 107.141 67.9899 104.65 66.2068 101.861C66.0865 101.67 65.9662 101.493 65.853 101.295C65.853 101.338 65.86 101.38 65.86 101.423C65.9237 102.138 65.8388 102.845 65.6902 103.475C65.3789 104.742 64.8835 105.754 64.5368 106.617C63.7726 108.316 63.624 109.441 63.4966 109.441C63.4471 109.441 63.3905 109.137 63.44 108.606C63.4895 108.068 63.6594 107.304 63.9636 106.405C64.2538 105.506 64.6783 104.473 64.9189 103.312C65.0321 102.725 65.0887 102.123 65.0251 101.501C64.9684 100.871 64.8128 100.22 64.6146 99.5473C64.5368 99.3137 64.466 99.0802 64.3811 98.8537C63.2702 96.9287 62.23 94.8834 61.2747 92.7532C60.9139 91.9464 60.5601 91.1255 60.2275 90.2904C59.2015 87.7284 58.3099 85.0533 57.4324 82.3357C56.272 78.7334 55.1539 75.2231 53.859 71.9393C52.7056 69.0448 51.4107 66.313 49.8893 63.8714C49.9743 64.3314 50.0309 64.7914 50.045 65.2302C50.0592 65.9521 49.9672 66.6386 49.8398 67.2614C49.5568 68.514 49.1676 69.5543 48.9058 70.4461C48.3326 72.2083 48.368 73.3548 48.2335 73.3689C48.1274 73.3902 47.8656 72.1658 48.3114 70.2904C48.6652 68.4432 49.7478 65.9662 48.8633 63.3194C48.5803 62.4135 48.1911 61.5713 47.7524 60.8141C47.0518 59.9011 46.3301 59.0306 45.5871 58.2168C42.3604 55.4496 39.2965 52.64 36.1406 50.0993C35.4896 49.5756 34.8315 49.0589 34.1734 48.5635C33.8337 48.3229 33.5012 48.0823 33.1686 47.8488C33.1332 47.8275 33.0908 47.8063 33.0625 47.778C30.8972 46.313 29.0149 45.1382 27.5573 44.197C26.3543 43.4326 25.4274 42.8381 24.8259 42.4277C24.0122 42.1304 23.347 41.72 22.7668 41.3307C22.4837 41.1396 22.2219 40.9627 21.9813 40.7928C21.9813 40.7928 21.9672 40.7928 21.9601 40.7787C21.2737 40.3965 20.5944 40.0285 19.901 39.6817C18.6697 39.0306 17.4385 38.4008 16.2285 37.7851C15.1388 37.3321 14.1835 36.9217 13.3627 36.5536C11.0205 35.5133 9.74682 34.8764 9.7822 34.7914C9.79635 34.756 9.94494 34.7844 10.228 34.8693C9.24441 34.4022 8.26792 33.9493 7.30558 33.4963C6.62627 33.192 5.93281 32.8735 5.23228 32.5409C4.85725 32.3569 4.47514 32.18 4.10011 31.996C3.94443 31.9252 3.78877 31.8473 3.63309 31.7766C3.27929 31.6138 2.92548 31.451 2.57876 31.2812C2.90426 31.5713 3.2156 31.8969 3.52695 32.2437C4.08596 32.8806 4.56713 33.5246 4.96339 34.1403C5.99649 35.3364 6.55551 36.5607 6.71826 37.2897C8.48728 39.7808 9.88126 42.3852 10.879 44.8976C12.1102 47.962 12.7117 50.899 12.9877 53.3477C13.2565 55.8105 13.2636 57.8063 13.2353 59.1793C13.1929 60.5522 13.0938 61.3095 13.0018 61.3095C12.9027 61.3095 12.7966 60.5522 12.6763 59.1934C12.5348 57.8417 12.372 55.8742 11.9758 53.4892C11.5724 51.1042 10.8931 48.3158 9.64067 45.4001C8.40943 42.4843 6.64042 39.4411 4.369 36.5678C1.5315 32.9584 -1.68104 30.0568 -4.7096 27.778C-6.43616 26.9216 -8.09196 26.0724 -9.68407 25.2231C-10.5969 24.7277 -11.4885 24.2394 -12.3518 23.744C-12.6277 23.6732 -12.9108 23.5954 -13.2009 23.5034C-16.5266 22.4984 -21.0058 20.5664 -25.3717 17.502C-28.7824 15.1311 -31.5067 12.4064 -33.4597 9.95774L-34.1107 9.55435C-34.1107 9.55435 -34.1602 9.51896 -34.1814 9.50481C-34.1814 9.50481 -34.231 9.4765 -34.2451 9.45527C-34.3088 9.42696 -34.3583 9.38449 -34.4078 9.33495C-34.4149 9.33495 -34.4291 9.3208 -34.4291 9.3208C-34.8395 8.97402 -35.073 8.54939 -35.2004 8.16015C-35.2428 8.01861 -35.2711 7.87706 -35.2853 7.73552C-35.3773 7.65767 -35.4551 7.57982 -35.54 7.4949C-35.7806 7.24012 -36 6.94996 -36.0283 6.61026C-36.0495 6.28471 -35.816 5.945 -35.3065 5.78931C-34.8183 5.62653 -34.0824 5.6973 -33.4243 6.1007C-32.9926 6.36963 -32.7238 6.79426 -32.6105 7.20474C-32.4478 7.26135 -32.2921 7.3392 -32.1435 7.44536C-32.0586 7.50198 -31.9878 7.57275 -31.9171 7.64352C-30.7637 8.3937 -29.3272 9.34203 -27.6361 10.4602C-27.169 10.6513 -26.6666 10.899 -26.1713 11.2316C-25.7751 11.5006 -25.4142 11.812 -25.0816 12.1375C-19.9797 15.485 -13.2292 19.8162 -5.60118 24.1686C-1.46168 26.5324 2.51507 28.7334 6.15217 30.7079C9.78927 32.6612 13.0938 34.4022 15.8888 35.8247C17.2757 36.5466 18.5494 37.1693 19.6604 37.7355C20.7713 38.3017 21.7408 38.7759 22.5262 39.1651C22.6182 39.2076 22.7031 39.25 22.7809 39.2925H22.788C23.1064 39.4057 23.4319 39.5119 23.7716 39.618C28.1163 40.9981 33.3597 42.4701 39.3177 43.1354C42.2896 43.4751 45.4385 43.5175 48.7147 43.4255C51.9909 43.3335 55.4016 43.1212 58.9255 43.0929C59.8029 43.0858 60.6733 43.0929 61.5366 43.1141C61.9965 42.9797 62.4635 42.8169 62.9376 42.6329C65.1029 41.8261 67.3743 40.5735 69.4193 38.8537C71.4572 37.134 73.1272 35.1241 74.8113 33.4397C76.4741 31.7412 78.1936 30.3753 79.807 29.5402C81.4203 28.698 82.8709 28.3442 83.8757 28.2663C84.371 28.2168 84.7673 28.2309 85.0291 28.2451C85.2909 28.2663 85.4324 28.2663 85.4324 28.2663C85.4324 28.2663 85.2909 28.2663 85.0291 28.2805C84.7673 28.2875 84.3781 28.3088 83.8899 28.4008L83.9252 28.3866ZM-19.8241 18.1035C-19.8241 18.1035 -19.8878 18.0965 -19.9161 18.0894C-19.7321 18.2026 -19.541 18.3088 -19.35 18.4149C-19.5057 18.3088 -19.6684 18.2026 -19.8241 18.0965V18.1035Z" fill="#8D957B"/>
<path d="M50.4625 67.2753C46.4928 75.6758 45.2828 89.1932 45.8418 97.1903C44.4053 84.7133 47.257 72.9794 49.7336 67.0842C49.861 67.0488 49.9884 67.0134 50.1157 66.978C50.236 67.0771 50.3493 67.1762 50.4695 67.2753H50.4625Z" fill="#EFEFEF"/>
<path d="M55.4086 92.0808C56.279 94.3101 55.6492 98.2803 54.0076 101.196C51.6371 102.13 48.0637 103.114 46.4008 100.955C46.1673 99.6958 45.9763 98.4431 45.8347 97.1905C45.7781 96.3412 45.7357 95.4212 45.7215 94.4587C46.882 92.5903 48.4741 90.5592 50.2573 89.8585C52.3376 89.0447 54.3755 89.4268 55.4157 92.0808H55.4086Z" fill="#D8E5DC"/>
<path d="M57.1706 82.7459C58.3523 85.7607 59.0387 88.9172 59.1094 92.0665C58.9679 93.0927 58.7698 94.0835 58.508 95.0106C58.2886 92.3566 57.8428 89.7098 57.3829 88.5491C56.0667 85.1946 52.7127 81.3871 49.3798 82.6963C47.9576 83.2554 46.7405 84.5789 46.0399 86.0651C46.323 82.9228 46.79 79.6673 47.4693 76.5534C48.276 75.69 49.4223 75.0672 49.8398 74.9044C53.4132 73.5031 55.8261 79.3135 57.1777 82.7459H57.1706Z" fill="#A3B7AB"/>
<path d="M59.1094 92.0737C59.0387 88.9244 58.3523 85.768 57.1706 82.7531C55.8261 79.3136 53.4061 73.5104 49.8327 74.9116C49.4152 75.0744 48.2689 75.6972 47.4622 76.5606C48.1981 73.1777 49.1888 69.9718 50.4554 67.2896C53.7104 70.0426 55.9464 72.4983 57.7437 77.0914C59.1448 80.6583 59.8383 86.8295 59.1023 92.0808L59.1094 92.0737Z" fill="#8AA093"/>
<path d="M57.3829 88.549C57.8358 89.7097 58.2816 92.3636 58.508 95.0105C57.6801 97.9758 56.2437 100.318 54.0076 101.196C55.6563 98.273 56.2861 94.3098 55.4087 92.0805C54.3685 89.4266 52.3306 89.0444 50.2502 89.8583C48.467 90.5589 46.882 92.5901 45.7145 94.4584C45.6649 91.9248 45.764 89.0515 46.0329 86.0579C46.7334 84.5717 47.9505 83.2482 49.3728 82.6892C52.7056 81.3799 56.0597 85.1874 57.3758 88.5419L57.3829 88.549Z" fill="#BFD1C6"/>
<path d="M37.8317 99.3842C35.8079 94.2179 42.4028 85.3432 45.955 82.1797C45.5658 85.3149 45.3748 88.6836 45.4738 92.1797C44.5469 91.7267 43.5208 91.5711 42.4665 91.9815C40.5347 92.7388 38.3199 97.162 40.0394 101.536C40.2305 102.017 40.4569 102.477 40.7329 102.916C40.0465 102.696 39.346 102.328 38.7091 101.748C38.4968 101.146 38.2987 100.538 38.0794 99.9787C37.9732 99.7168 37.8812 99.5045 37.8317 99.3842Z" fill="#C3C9C4"/>
<path d="M42.4665 91.9887C43.5208 91.5712 44.5469 91.7269 45.4738 92.1869C45.5234 93.8359 45.6366 95.5131 45.8276 97.1975C45.9267 98.5775 46.0753 99.7948 46.2734 100.793C46.2734 100.786 46.2593 100.779 46.2593 100.771C45.6295 101.649 45.021 102.52 43.9525 102.937C43.2661 103.206 42.0207 103.333 40.7258 102.93C40.4498 102.491 40.2163 102.031 40.0324 101.55C38.3129 97.1692 40.5277 92.7531 42.4594 91.9958L42.4665 91.9887Z" fill="#D9DDDA"/>
<path d="M45.9621 82.1795C42.4099 85.343 35.8079 94.2177 37.8388 99.3841C37.8883 99.5044 37.9803 99.7167 38.0864 99.9785C38.3058 100.538 38.4968 101.146 38.7162 101.748C38.0652 101.153 37.485 100.347 37.0604 99.2496C36.4236 97.6289 36.2537 95.9233 36.3245 94.3381C37.1595 91.8044 38.5747 89.9502 39.1478 88.3791C39.254 88.0819 40.6621 74.8759 44.2851 73.4605C44.4337 73.4039 44.6035 73.3331 44.7804 73.2623C45.5446 72.9651 46.6909 72.6466 47.1438 73.3119C47.3207 73.3826 47.4693 73.4959 47.5825 73.6445C46.9244 76.1781 46.3513 79.0656 45.9692 82.1866L45.9621 82.1795Z" fill="#AAB2AC"/>
<path d="M47.5754 73.6374C47.4622 73.4888 47.3066 73.3756 47.1367 73.3048C46.6909 72.6466 45.5375 72.958 44.7733 73.2553C44.5964 73.326 44.4337 73.3968 44.278 73.4534C40.6621 74.8759 39.254 88.0748 39.1408 88.372C38.5676 89.9431 37.1524 91.7974 36.3174 94.331C36.4802 90.7287 37.8812 87.7492 37.8812 87.7492C37.8742 87.728 37.8671 87.7068 37.86 87.6926C37.7751 87.4732 40.7683 70.5235 48.2123 67.6006C48.7076 67.4025 49.2242 67.2397 49.7336 67.084C49.0048 68.8108 48.2547 71.033 47.5825 73.6303L47.5754 73.6374Z" fill="#8A9990"/>
<mask id="mask0_50_12052" style="mask-type:luminance" maskUnits="userSpaceOnUse" x="36" y="66" width="24" height="38">
<path d="M54.0076 101.203C51.5663 102.158 47.8656 103.178 46.2664 100.771C45.6366 101.649 45.0281 102.519 43.9596 102.937C42.5373 103.496 38.695 103.454 37.0463 99.2569C34.9659 93.949 37.8742 87.7636 37.8742 87.7636C37.8671 87.7424 37.86 87.7211 37.8529 87.707C37.768 87.4876 40.7612 70.5378 48.2052 67.615C48.8279 67.3744 49.4647 67.1691 50.1087 66.9922C53.5547 69.8726 55.8827 72.3283 57.7508 77.0913C60.2982 83.581 60.5247 98.6553 54.0076 101.217V101.203Z" fill="white"/>
</mask>
<g mask="url(#mask0_50_12052)">
<path style="mix-blend-mode:multiply" d="M54.2054 87.683C43.7644 87.0242 35.8343 78.0247 36.493 67.5822C37.1518 57.1396 46.1498 49.2083 56.5908 49.8672C67.0318 50.526 74.9619 59.5254 74.3031 69.968C73.6444 80.4105 64.6463 88.3418 54.2054 87.683Z" fill="url(#paint0_radial_50_12052)"/>
<path style="mix-blend-mode:screen" d="M48.46 124.367C37.9982 124.367 29.5173 115.884 29.5173 105.421C29.5173 94.9578 37.9982 86.4756 48.46 86.4756C58.9217 86.4756 67.4026 94.9578 67.4026 105.421C67.4026 115.884 58.9217 124.367 48.46 124.367Z" fill="url(#paint1_radial_50_12052)"/>
</g>
<path d="M114.841 105.605C115.322 105.74 115.782 105.86 116.213 105.952C119.192 110.765 118.209 115.131 121.542 120.956C118.053 115.344 117.013 109.151 114.841 105.605Z" fill="#B8C9AE"/>
<path d="M129.538 111.466C131.363 113.617 130.755 118.083 129.495 121.798C128.993 122.633 128.504 123.242 128.193 123.504C127.606 123.999 126.948 124.332 126.283 124.537C130.167 120.057 127.443 115.224 126.587 114.219C125.249 112.64 122.575 111.494 120.855 112.952C120.056 113.631 119.617 114.742 119.376 115.669C118.867 113.822 118.57 112.088 118.096 110.376C122.235 111.749 126.714 108.132 129.538 111.458V111.466Z" fill="#607562"/>
<path d="M129.488 121.791C130.755 118.075 131.363 113.61 129.53 111.458C126.707 108.132 122.228 111.748 118.088 110.375C117.678 108.903 117.133 107.453 116.206 105.952C123.955 107.7 124.853 103.9 129.467 109.328C133.076 113.581 131.172 118.995 129.488 121.791Z" fill="#617959"/>
<path d="M125.087 119.441C126.389 120.97 126.212 123.164 125.9 124.643C125.405 124.77 124.924 124.834 124.485 124.855C124.223 124.551 123.962 124.247 123.7 123.942C122.886 122.98 122.171 121.982 121.542 120.963C121.471 120.842 121.407 120.729 121.343 120.609C121.492 119.554 121.966 118.719 122.242 118.486C122.638 118.146 124.16 118.351 125.087 119.441Z" fill="#92A27C"/>
<path d="M126.58 114.211C127.436 115.216 130.16 120.05 126.275 124.53C126.148 124.572 126.028 124.608 125.9 124.636C126.212 123.157 126.389 120.97 125.087 119.434C124.16 118.344 122.638 118.139 122.242 118.479C121.966 118.712 121.492 119.547 121.343 120.602C120.381 118.847 119.801 117.219 119.376 115.669C119.617 114.742 120.056 113.631 120.855 112.952C122.575 111.494 125.249 112.64 126.587 114.218L126.58 114.211Z" fill="#819B81"/>
<path d="M113.765 124.565C113.397 121.465 113.857 118.054 115.477 116.681C116.595 115.733 117.621 115.202 118.754 115.308C119.504 117.177 120.388 119.102 121.542 120.963C121.726 121.281 121.924 121.607 122.129 121.94C120.133 120.63 118.11 121.572 117.876 121.777C117.706 121.925 117.522 122.053 117.353 122.194C116.511 122.909 116.065 125.16 116.822 127.212C115.838 126.71 114.933 126.009 114.218 125.167C114.062 124.99 113.914 124.785 113.765 124.572V124.565Z" fill="#617959"/>
<path d="M117.353 122.187C117.515 122.046 117.699 121.918 117.876 121.77C118.117 121.564 120.141 120.616 122.129 121.932C122.737 122.881 123.459 123.871 124.337 124.905C123.919 125.747 123.339 126.624 122.851 127.035C121.237 128.401 118.867 128.252 116.815 127.205C116.065 125.152 116.51 122.902 117.345 122.187H117.353Z" fill="#819B81"/>
<path d="M114.02 107.977C114.593 107.488 115.3 107.531 115.959 107.842C116.864 109.972 117.664 112.584 118.754 115.308C117.621 115.209 116.602 115.733 115.477 116.681C113.857 118.054 113.397 121.466 113.765 124.565C113.121 123.631 112.513 122.357 111.996 120.914C110.779 116.136 111.423 110.185 114.02 107.984V107.977Z" fill="#526943"/>
<path d="M115.959 107.842C115.3 107.53 114.593 107.488 114.02 107.976C111.423 110.177 110.779 116.136 111.996 120.906C110.156 115.768 109.47 108.422 112.406 105.924C112.951 105.464 113.56 105.216 114.161 105.4C114.395 105.471 114.614 105.534 114.833 105.598C115.237 106.256 115.605 107.014 115.951 107.835L115.959 107.842Z" fill="#4C5948"/>
<mask id="mask1_50_12052" style="mask-type:luminance" maskUnits="userSpaceOnUse" x="110" y="105" width="22" height="24">
<path d="M128.186 123.496C127.011 124.494 125.525 124.813 124.365 124.855C123.94 125.711 123.353 126.61 122.858 127.035C120.473 129.059 116.426 127.764 114.218 125.166C111.069 121.458 108.451 109.3 112.406 105.938C112.951 105.478 113.56 105.23 114.161 105.414C123.834 108.394 124.478 103.468 129.467 109.342C134.158 114.869 129.53 122.364 128.186 123.51V123.496Z" fill="white"/>
</mask>
<g mask="url(#mask1_50_12052)">
<path style="mix-blend-mode:multiply" d="M103.102 106.701C102.422 98.5011 108.517 91.303 116.715 90.6231C124.913 89.9433 132.11 96.0391 132.79 104.239C133.47 112.438 127.375 119.636 119.177 120.316C110.979 120.996 103.782 114.9 103.102 106.701Z" fill="url(#paint2_radial_50_12052)"/>
</g>
<path d="M99.344 92.52C99.344 93.3834 99.3652 94.2539 99.4077 95.1386C98.0915 94.8909 96.6975 95.8958 95.9404 97.1343C95.1337 98.4507 93.6619 101.826 93.209 105.252C93.3718 102.23 94.1148 99.2645 95.6927 96.6955C96.2163 95.8392 97.9146 93.2914 99.344 92.5271V92.52Z" fill="#617959"/>
<path d="M110.772 112.895C114.083 114.926 114.883 117.608 113.744 120.39C111.777 122.987 109.314 124.841 106.562 124.204C106.08 123.242 105.543 122.017 104.984 120.588C104.262 118.09 103.575 115.266 102.967 112.308C105.09 111.204 107.991 111.189 110.772 112.895Z" fill="#D7E2D7"/>
<path d="M106.562 124.204C106.42 124.169 106.279 124.134 106.137 124.091C106.13 124.091 106.123 124.105 106.109 124.105C105.727 123.037 105.344 121.855 104.977 120.588C105.536 122.017 106.073 123.249 106.555 124.204H106.562Z" fill="#E7F2E7"/>
<path d="M100.243 92.3148C100.646 100.411 102.585 112.315 104.984 120.588C102.373 113.872 99.3298 102.591 99.344 92.52C99.6624 92.3502 99.9667 92.2653 100.243 92.3148Z" fill="#E7F2E7"/>
<path d="M108.96 106.632C113.241 109.257 115.201 113.228 115.378 117.814C115.258 118.083 115.117 118.344 114.954 118.599C114.572 119.215 114.168 119.816 113.737 120.383C114.876 117.601 114.076 114.919 110.765 112.888C107.984 111.182 105.083 111.196 102.96 112.301C102.542 110.262 102.153 108.175 101.814 106.087C103.264 103.942 106.88 105.358 108.96 106.632Z" fill="#BACCBA"/>
<path d="M100.547 92.4279C104.538 94.8766 113.043 103.065 115.449 110.616C112.704 104.41 107.191 99.6608 105.727 98.7549C104.418 97.9481 103.052 97.849 102.245 99.1725C101.46 100.453 101.828 102.435 101.403 103.348C100.823 99.3777 100.412 95.5419 100.25 92.3076C100.356 92.3288 100.455 92.3642 100.554 92.4209L100.547 92.4279Z" fill="#819B81"/>
<path d="M105.72 98.7548C107.184 99.6536 112.697 104.409 115.442 110.616C116.256 113.171 116.369 115.655 115.378 117.814C115.201 113.22 113.241 109.257 108.96 106.632C106.887 105.358 103.271 103.949 101.814 106.087C101.665 105.167 101.523 104.254 101.389 103.348C101.821 102.435 101.446 100.453 102.231 99.1724C103.038 97.856 104.403 97.9551 105.712 98.7548H105.72Z" fill="#9DB29D"/>
<path d="M99.4077 95.1316C99.62 99.6963 100.384 104.403 101.389 108.734C101.12 108.465 100.816 108.217 100.455 107.991C99.2379 107.248 97.2566 106.865 96.1032 108.748C94.1077 111.996 95.0276 116.469 96.3296 119.923C95.063 117.333 93.9803 114.056 93.4779 110.595C93.5133 110.284 93.4426 109.987 93.3576 109.647C93.1949 108.189 93.1383 106.71 93.2161 105.238C93.669 101.819 95.1408 98.4366 95.9475 97.1203C96.7117 95.8818 98.0986 94.8697 99.4148 95.1245L99.4077 95.1316Z" fill="#7E9675"/>
<path d="M98.8345 119.25C99.9454 117.438 102.472 117.29 104.106 118.21C104.396 119.052 104.693 119.845 104.977 120.588C105.337 121.84 105.712 123.008 106.095 124.07C106.095 124.084 106.095 124.105 106.095 124.119C104.524 125.117 103.561 126.186 101.842 125.768C99.9737 124.148 97.6599 121.168 98.8345 119.25Z" fill="#BFCEBA"/>
<path d="M96.1032 108.748C97.2566 106.872 99.2379 107.247 100.455 107.99C100.816 108.21 101.127 108.465 101.389 108.734C102.196 112.223 103.158 115.464 104.113 118.203C102.479 117.276 99.9526 117.431 98.8416 119.243C97.6599 121.161 99.9809 124.141 101.849 125.761C101.361 125.641 100.816 125.407 100.172 125.011C98.9548 124.261 97.5538 122.414 96.3367 119.923C95.0418 116.469 94.1219 111.996 96.1102 108.748H96.1032Z" fill="#9CAF95"/>
<mask id="mask2_50_12052" style="mask-type:luminance" maskUnits="userSpaceOnUse" x="93" y="92" width="24" height="34">
<path d="M114.961 118.606C112.753 122.201 109.668 125.23 106.144 124.091C104.099 125.379 103.087 126.816 100.165 125.018C95.9474 122.428 89.5931 106.632 95.6927 96.6883C96.3791 95.563 99.0892 91.5291 100.547 92.4279C106.059 95.8107 120.169 110.121 114.961 118.606Z" fill="white"/>
</mask>
<g mask="url(#mask2_50_12052)">
<path style="mix-blend-mode:screen" d="M113.371 139.101C104.635 136.108 99.9789 126.598 102.972 117.861C105.964 109.123 115.473 104.466 124.209 107.46C132.945 110.453 137.601 119.963 134.608 128.7C131.615 137.438 122.107 142.094 113.371 139.101Z" fill="url(#paint3_radial_50_12052)"/>
<path style="mix-blend-mode:multiply" d="M94.9426 111.267C85.708 111.267 78.2219 103.78 78.2219 94.5441C78.2219 85.3081 85.708 77.8208 94.9426 77.8208C104.177 77.8208 111.663 85.3081 111.663 94.5441C111.663 103.78 104.177 111.267 94.9426 111.267Z" fill="url(#paint4_radial_50_12052)"/>
</g>
<path d="M67.8979 73.1499C69.2424 80.043 85.298 93.6241 88.3407 102.251C81.5901 89.215 69.674 81.5222 66.3341 72.9234C66.4473 72.5342 66.5606 72.1308 66.6738 71.7062C66.879 71.5929 67.0913 71.4868 67.3106 71.3877C67.5654 72.2228 67.8767 72.9305 67.8767 72.9305C67.8909 73.0084 67.8909 73.0721 67.905 73.1499H67.8979Z" fill="#E8EAE9"/>
<path d="M84.6824 80.1422C88.6591 79.3637 92.9684 81.3736 94.3412 88.4295C94.8153 90.8711 95.2045 93.61 95.3177 96.3701C94.6596 98.0544 93.4425 99.4274 91.8575 100.517C92.9614 98.0049 93.1736 95.3014 92.6642 92.69C91.8929 88.7197 89.6922 87.4741 88.3902 87.7289C87.1236 87.9766 84.746 90.9702 85.2484 96.6886C84.095 95.0396 82.7435 93.3198 81.3 91.5789C81.0523 90.7933 80.8471 90.0007 80.6915 89.1868C79.8069 84.6645 80.1325 81.0268 84.6753 80.1422H84.6824Z" fill="#C4D6C9"/>
<path d="M88.3973 87.7285C89.6993 87.4737 91.8999 88.7193 92.6712 92.6896C93.1807 95.3011 92.9684 98.0045 91.8645 100.517C91.0296 101.09 90.0955 101.586 89.0907 102.003C88.9492 102.279 88.7935 102.548 88.6308 102.81C88.5388 102.619 88.4397 102.428 88.3407 102.244C87.7463 100.552 86.6424 98.6698 85.2555 96.6882C84.746 90.9698 87.1236 87.9762 88.3973 87.7285Z" fill="#DAE5DF"/>
<path d="M67.8696 72.9304C67.8696 72.9304 67.5582 72.2227 67.3035 71.3876C68.5135 70.8285 69.8721 70.4605 70.884 70.2623C76.4529 69.1795 82.5454 70.6515 87.4066 75.1384C83.1964 73.1215 78.7667 72.4562 76.2123 72.9516C74.422 73.2984 72.837 73.6947 73.5729 77.4527C74.1319 80.3189 75.1296 83.1073 76.0778 85.3861C72.0657 80.6586 68.5064 76.2283 67.905 73.1427C67.8908 73.0648 67.8908 72.9941 67.8767 72.9233L67.8696 72.9304Z" fill="#94B7A9"/>
<path d="M76.2052 72.9585C78.7597 72.4631 83.1893 73.1284 87.3996 75.1454C91.1923 78.6486 94.228 83.9918 95.6715 91.3874C96.0394 93.2841 95.8838 94.9401 95.3248 96.3768C95.2115 93.6167 94.8294 90.8779 94.3483 88.4362C92.9684 81.3733 88.6591 79.3704 84.6894 80.1489C80.1466 81.0336 79.8211 84.6712 80.7056 89.1935C80.8613 90.0074 81.0665 90.8071 81.3141 91.5856C79.6159 89.5261 77.7973 87.4384 76.0708 85.4001C75.1226 83.1213 74.1249 80.3329 73.5659 77.4667C72.8299 73.7016 74.4221 73.3124 76.2052 72.9656V72.9585Z" fill="#A1C0AC"/>
<path d="M68.648 96.016C67.4238 89.7527 70.1198 86.1009 73.2475 85.4923C74.0895 85.3295 75.1368 85.6055 76.1982 86.0797C77.9601 88.0046 79.7928 90.0287 81.576 92.2014C80.0193 91.0124 78.3139 90.1066 76.9836 90.3684C72.087 91.3238 71.5917 95.4356 72.4549 99.8306C72.5894 100.524 72.738 101.225 72.8795 101.918C72.9927 102.499 73.856 104.983 76.368 106.901C75.0872 106.342 73.7286 105.598 72.3913 104.678C70.4524 101.826 69.1646 98.6345 68.6763 96.1221C68.6692 96.0868 68.6622 96.0514 68.6551 96.0089L68.648 96.016Z" fill="#A1C0AC"/>
<path d="M66.327 72.9233C67.1691 75.0819 68.5419 77.1767 70.2472 79.3211C69.4547 79.0238 68.6338 78.8681 68.0395 78.9884C64.2113 79.7386 65.6548 86.6035 66.2563 89.7032C66.4686 90.8073 66.7021 91.9042 66.9144 93.0083C67.5512 96.285 67.9758 99.9934 67.997 100.135C68.0465 100.383 68.1031 100.63 68.1598 100.871C66.5535 98.9389 65.301 96.6388 64.7774 93.9637C62.2583 81.055 64.65 78.5638 66.327 72.9304V72.9233Z" fill="#7FA595"/>
<path d="M72.4549 99.8305C71.5987 95.4356 72.094 91.3238 76.9836 90.3684C78.3139 90.1065 80.0192 91.0195 81.576 92.2013C84.0384 95.2091 86.4019 98.5071 88.3407 102.251C88.4256 102.484 88.4964 102.711 88.5601 102.937C86.8901 105.613 84.3427 107.644 81.767 108.153C80.7552 108.351 78.7102 107.934 76.368 106.908C73.856 104.983 72.9927 102.499 72.8795 101.925C72.745 101.225 72.5964 100.531 72.4549 99.8376V99.8305Z" fill="#C4D6C9"/>
<path d="M66.9143 93.0085C66.702 91.9044 66.4685 90.8075 66.2562 89.7034C65.6477 86.6036 64.2113 79.7388 68.0394 78.9886C68.6409 78.8754 69.4546 79.024 70.2471 79.3213C71.9737 81.494 74.0328 83.7162 76.1981 86.0799C75.1296 85.6058 74.0824 85.3298 73.2474 85.4925C70.1269 86.1012 67.4309 89.753 68.648 96.0162C68.655 96.0516 68.6621 96.087 68.6692 96.1295C69.1574 98.6419 70.4453 101.834 72.3841 104.686C70.8769 103.645 69.4122 102.372 68.1597 100.871C68.1031 100.631 68.0465 100.383 67.997 100.135C67.9687 99.9936 67.5512 96.2852 66.9143 93.0085Z" fill="#94B7A9"/>
<mask id="mask3_50_12052" style="mask-type:luminance" maskUnits="userSpaceOnUse" x="63" y="69" width="33" height="40">
<path d="M66.6665 71.7063C68.011 70.9561 69.688 70.4961 70.8768 70.2696C80.7903 68.3376 92.3738 74.5159 95.6642 91.3949C96.6973 96.6957 93.6334 100.128 89.0835 102.018C87.4631 105.146 84.6255 107.602 81.7527 108.161C78.7524 108.748 66.7089 103.929 64.7701 93.971C62.0741 80.1635 64.9965 78.2739 66.6594 71.7205L66.6665 71.7063Z" fill="white"/>
</mask>
<g mask="url(#mask3_50_12052)">
<path style="mix-blend-mode:multiply" d="M45.051 84.1736C40.6004 74.0858 45.1689 62.2996 55.2551 57.8483C65.3412 53.397 77.1257 57.9662 81.5763 68.0539C86.0269 78.1416 81.4584 89.9278 71.3722 94.3792C61.2861 98.8305 49.5017 94.2613 45.051 84.1736Z" fill="url(#paint5_radial_50_12052)"/>
<path style="mix-blend-mode:screen" d="M85.3575 119.524C76.2135 113.365 73.7932 100.958 79.9517 91.8128C86.1101 82.6674 98.5152 80.2467 107.659 86.4061C116.803 92.5654 119.223 104.972 113.065 114.118C106.907 123.263 94.5015 125.684 85.3575 119.524Z" fill="url(#paint6_radial_50_12052)"/>
</g>
<path d="M102.712 89.9929C102.514 89.5117 102.323 89.0446 102.089 88.5917C105.578 87.3885 109.399 84.7983 115.838 86.327C117.636 86.7516 119.383 87.4098 121.103 88.1387C121.103 88.1387 121.103 88.1387 121.103 88.1458C121.145 88.1812 121.181 88.2237 121.216 88.259C119.341 87.7778 117.501 87.2329 115.605 86.7799C111.267 85.7467 106.109 88.0538 102.712 89.9859V89.9929Z" fill="#E6EAD8"/>
<path d="M104.743 80.3468C103.632 85.0248 107.064 85.6971 108.585 86.0581C108.734 86.0935 108.89 86.1218 109.038 86.1572C106.3 86.7021 104.142 87.884 102.097 88.5917C101.835 88.068 101.53 87.5726 101.134 87.1126C100.285 85.1027 100.179 82.8451 100.681 80.7219C102.153 74.5365 109.526 74.2251 110.935 74.5648C110.935 74.5648 111.402 74.7488 111.968 74.9824C107.963 74.947 105.436 77.424 104.743 80.3539V80.3468Z" fill="#697552"/>
<path d="M120.799 83.7863C121.174 83.8783 121.506 84.0127 121.803 84.1826C122.016 85.0106 122.051 85.7891 121.888 86.4826C121.747 87.0913 121.45 87.6362 121.103 88.1387C120.07 87.6999 119.023 87.2894 117.968 86.9356C117.869 86.4614 117.883 85.7679 117.968 85.3857C118.258 84.1613 119.306 83.4324 120.792 83.7863H120.799Z" fill="#C8CCB8"/>
<path d="M112.399 80.8C112.067 82.1942 112.76 84.5013 114.727 86.1007C112.555 85.7256 110.694 85.8247 109.038 86.1574C108.883 86.129 108.734 86.0937 108.585 86.0583C107.064 85.6973 103.632 85.025 104.743 80.347C105.436 77.4171 107.963 74.9401 111.968 74.9755C112.852 75.3293 113.991 75.7893 113.991 75.7893C116.008 76.7872 117.735 78.1177 119.058 79.5473C118.393 79.2218 117.671 78.9528 116.886 78.7617C114.14 78.1106 112.767 79.2713 112.399 80.8Z" fill="#828C6C"/>
<path d="M121.803 84.1827C121.506 84.0128 121.174 83.8784 120.799 83.7864C119.313 83.4325 118.265 84.1614 117.975 85.3858C117.883 85.7609 117.869 86.4615 117.975 86.9357C117.275 86.7021 116.56 86.4969 115.845 86.327C115.463 86.235 115.095 86.1643 114.727 86.1006C112.767 84.5082 112.074 82.194 112.399 80.7998C112.76 79.2711 114.14 78.1105 116.886 78.7616C117.671 78.9456 118.393 79.2145 119.058 79.5471C120.466 81.0617 121.421 82.7035 121.81 84.1897L121.803 84.1827Z" fill="#A3AA8D"/>
<path d="M111.218 86.9071C111.232 86.8364 111.253 86.7727 111.274 86.7019C112.746 86.4684 114.218 86.4613 115.598 86.7868C117.487 87.2398 119.334 87.7847 121.209 88.266C121.973 89.0374 122.554 90.2051 122.829 91.4011C120.77 92.0664 118.081 92.2999 114.65 91.479C112.06 90.8633 110.595 89.5045 111.211 86.9071H111.218Z" fill="#C5CEA1"/>
<path d="M110.602 96.6952C104.778 95.3081 103.759 92.548 102.712 89.9931C104.17 89.1651 105.96 88.2663 107.871 87.5869C106.958 88.4857 106.222 89.3633 106.13 89.7384C105.493 92.4277 109.59 94.7278 112.456 95.4142C115.378 96.1078 119.843 95.945 122.73 94.4305C121.209 98.1814 113.793 97.4525 110.602 96.6952Z" fill="#809151"/>
<path d="M106.137 89.7451C106.229 89.3629 106.965 88.4924 107.878 87.5936C108.989 87.2044 110.135 86.8859 111.281 86.709C111.26 86.7798 111.239 86.8435 111.225 86.9142C110.609 89.5045 112.067 90.8703 114.664 91.4861C118.103 92.2999 120.784 92.0735 122.844 91.4082C123.049 92.2858 123.084 93.1775 122.907 93.9277C122.865 94.1117 122.808 94.2815 122.737 94.4443C119.85 95.9588 115.392 96.1216 112.463 95.428C109.597 94.7486 105.493 92.4415 106.137 89.7522V89.7451Z" fill="#A2AF74"/>
<mask id="mask4_50_12052" style="mask-type:luminance" maskUnits="userSpaceOnUse" x="100" y="74" width="24" height="24">
<path d="M101.127 87.1126C100.278 85.1027 100.172 82.8451 100.674 80.7219C102.146 74.5365 109.519 74.2251 110.927 74.5648L113.984 75.7891C119.32 78.436 122.624 83.3829 121.888 86.4898C121.74 87.0984 121.449 87.6504 121.096 88.1529C122.504 89.4551 123.332 92.1161 122.9 93.9208C121.874 98.252 113.928 97.4947 110.602 96.7021C102.443 94.763 103.717 90.1204 101.127 87.1126Z" fill="white"/>
</mask>
<g mask="url(#mask4_50_12052)">
<path style="mix-blend-mode:multiply" d="M63.7145 99.1857C63.0384 84.5206 74.377 72.084 89.0399 71.4078C103.703 70.7316 116.137 82.0719 116.814 96.737C117.49 111.402 106.151 123.839 91.4882 124.515C76.8253 125.191 64.3906 113.851 63.7145 99.1857Z" fill="url(#paint7_radial_50_12052)"/>
</g>
<path d="M136.522 113.298C139.607 113.475 146.485 119.66 150.419 120.467C144.334 118.301 140.272 113.574 136.323 112.625C136.161 112.696 135.991 112.774 135.814 112.845C135.779 112.944 135.743 113.043 135.715 113.142C136.097 113.206 136.423 113.298 136.423 113.298C136.458 113.298 136.486 113.298 136.522 113.298Z" fill="#E8EAE9"/>
<path d="M140.569 120.191C140.47 121.967 141.602 123.73 144.758 123.906C145.855 123.97 147.065 123.97 148.275 123.857C148.968 123.468 149.499 122.859 149.874 122.102C148.848 122.732 147.681 122.986 146.513 122.923C144.737 122.824 144.065 121.939 144.093 121.359C144.128 120.793 145.289 119.575 147.808 119.455C147.022 119.052 146.188 118.563 145.345 118.04C144.992 117.976 144.631 117.94 144.263 117.919C142.239 117.806 140.675 118.16 140.562 120.198L140.569 120.191Z" fill="#C4D6C9"/>
<path d="M144.093 121.359C144.058 121.946 144.737 122.824 146.513 122.923C147.681 122.987 148.848 122.732 149.874 122.102C150.072 121.706 150.235 121.267 150.355 120.807C150.469 120.729 150.575 120.644 150.681 120.559C150.589 120.531 150.504 120.495 150.419 120.467C149.648 120.311 148.763 119.943 147.815 119.455C145.296 119.575 144.128 120.793 144.1 121.359H144.093Z" fill="#DAE5DF"/>
<path d="M136.423 113.298C136.423 113.298 136.097 113.206 135.715 113.142C135.545 113.701 135.467 114.317 135.439 114.77C135.297 117.261 136.302 119.83 138.552 121.677C137.42 119.964 136.868 118.075 136.932 116.928C136.974 116.129 137.052 115.414 138.736 115.506C140.017 115.577 141.291 115.846 142.345 116.122C140.045 114.657 137.901 113.369 136.522 113.291C136.486 113.291 136.458 113.291 136.423 113.291V113.298Z" fill="#94B7A9"/>
<path d="M136.932 116.928C136.868 118.075 137.42 119.964 138.552 121.677C140.307 123.121 142.812 124.126 146.124 124.31C146.973 124.359 147.688 124.189 148.275 123.857C147.065 123.97 145.848 123.97 144.758 123.906C141.602 123.729 140.47 121.967 140.569 120.191C140.682 118.16 142.246 117.799 144.27 117.912C144.631 117.933 144.992 117.976 145.353 118.032C144.355 117.417 143.336 116.751 142.345 116.114C141.298 115.838 140.024 115.57 138.736 115.499C137.052 115.407 136.974 116.122 136.932 116.921V116.928Z" fill="#A1C0AC"/>
<path d="M146.527 112.258C143.725 112.102 142.296 113.489 142.218 114.89C142.197 115.265 142.381 115.704 142.649 116.143C143.591 116.794 144.581 117.473 145.636 118.117C145.027 117.509 144.525 116.822 144.56 116.228C144.68 114.041 146.449 113.574 148.409 113.687C148.721 113.701 149.032 113.73 149.343 113.744C149.598 113.758 150.737 113.984 151.721 114.968C151.403 114.444 150.999 113.892 150.518 113.369C149.159 112.696 147.695 112.321 146.57 112.258C146.555 112.258 146.534 112.258 146.52 112.258H146.527Z" fill="#A1C0AC"/>
<path d="M136.323 112.626C137.314 112.859 138.312 113.34 139.345 113.949C139.168 113.624 139.055 113.277 139.069 113.008C139.168 111.295 142.246 111.515 143.633 111.592C144.128 111.621 144.617 111.656 145.112 111.684C146.577 111.769 148.218 111.727 148.282 111.734C148.395 111.734 148.501 111.748 148.615 111.762C147.681 111.175 146.598 110.764 145.402 110.701C139.628 110.375 138.687 111.564 136.331 112.633L136.323 112.626Z" fill="#7FA595"/>
<path d="M148.416 113.687C146.449 113.574 144.687 114.041 144.567 116.228C144.532 116.822 145.034 117.509 145.643 118.117C147.1 119.009 148.678 119.844 150.426 120.467C150.532 120.488 150.638 120.509 150.737 120.524C151.806 119.639 152.535 118.4 152.606 117.254C152.634 116.801 152.322 115.938 151.742 114.975C150.752 113.991 149.619 113.765 149.365 113.751C149.053 113.737 148.742 113.708 148.431 113.694L148.416 113.687Z" fill="#C4D6C9"/>
<path d="M145.112 111.677C144.617 111.649 144.128 111.614 143.633 111.585C142.246 111.508 139.168 111.288 139.069 113.001C139.055 113.27 139.168 113.617 139.345 113.942C140.392 114.565 141.489 115.329 142.642 116.129C142.374 115.69 142.19 115.251 142.211 114.876C142.289 113.482 143.718 112.088 146.52 112.244C146.534 112.244 146.555 112.244 146.57 112.244C147.695 112.307 149.159 112.675 150.518 113.355C149.973 112.76 149.329 112.194 148.608 111.741C148.501 111.727 148.388 111.72 148.275 111.713C148.211 111.713 146.57 111.748 145.105 111.663L145.112 111.677Z" fill="#94B7A9"/>
<mask id="mask5_50_12052" style="mask-type:luminance" maskUnits="userSpaceOnUse" x="135" y="110" width="18" height="15">
<path d="M135.814 112.845C135.566 113.475 135.467 114.232 135.439 114.77C135.191 119.207 138.574 123.885 146.124 124.31C148.494 124.444 149.81 122.902 150.355 120.807C151.622 119.915 152.521 118.528 152.591 117.247C152.669 115.902 149.846 110.948 145.395 110.694C139.218 110.347 138.567 111.727 135.814 112.845Z" fill="white"/>
</mask>
<g mask="url(#mask5_50_12052)">
<path style="mix-blend-mode:multiply" d="M130.99 116.97C127.759 113.352 128.072 107.8 131.69 104.569C135.307 101.337 140.858 101.651 144.089 105.268C147.319 108.886 147.006 114.438 143.389 117.669C139.772 120.901 134.221 120.587 130.99 116.97Z" fill="url(#paint8_radial_50_12052)"/>
<path style="mix-blend-mode:screen" d="M142.858 126.676C141.367 122.06 143.899 117.11 148.513 115.618C153.128 114.126 158.078 116.659 159.57 121.274C161.061 125.89 158.529 130.841 153.914 132.332C149.3 133.824 144.349 131.292 142.858 126.676Z" fill="url(#paint9_radial_50_12052)"/>
</g>
<path d="M66.4685 102.392C66.0439 102.208 65.6264 102.024 65.2231 101.812C64.0909 104.912 61.7134 108.288 62.98 114.077C63.3338 115.69 63.8857 117.268 64.5155 118.811C64.5155 118.811 64.5155 118.811 64.5226 118.811C64.558 118.847 64.5933 118.882 64.6217 118.917C64.2254 117.233 63.7654 115.577 63.3904 113.871C62.5342 109.979 64.6783 105.393 66.4614 102.392H66.4685Z" fill="#E6EAD8"/>
<path d="M57.8074 104.055C62.0035 103.135 62.5555 106.214 62.8527 107.58C62.881 107.714 62.9093 107.849 62.9305 107.99C63.4612 105.549 64.558 103.638 65.2231 101.819C64.7632 101.578 64.3174 101.295 63.9141 100.934C62.1309 100.142 60.1142 100.014 58.2108 100.432C52.656 101.649 52.2669 108.245 52.5428 109.505C52.5428 109.505 52.7056 109.922 52.8966 110.439C52.932 106.851 55.1893 104.636 57.8145 104.062L57.8074 104.055Z" fill="#697552"/>
<path d="M60.6307 118.478C60.7015 118.818 60.8218 119.115 60.9704 119.384C61.7063 119.59 62.4068 119.632 63.0225 119.498C63.5673 119.377 64.0626 119.122 64.5155 118.818C64.1405 117.891 63.7867 116.95 63.4895 115.994C63.0649 115.895 62.4422 115.902 62.1026 115.973C61.0058 116.214 60.3335 117.141 60.6237 118.471L60.6307 118.478Z" fill="#C8CCB8"/>
<path d="M58.0905 110.913C59.3429 110.637 61.395 111.295 62.796 113.079C62.4918 111.126 62.6121 109.462 62.9376 107.99C62.9163 107.856 62.888 107.714 62.8597 107.58C62.5625 106.214 62.0106 103.135 57.8145 104.055C55.1893 104.629 52.932 106.851 52.8966 110.432C53.2009 111.232 53.5901 112.251 53.5901 112.251C54.4534 114.07 55.6138 115.634 56.8734 116.844C56.5903 116.249 56.3639 115.598 56.2082 114.891C55.6704 112.428 56.7318 111.21 58.1046 110.913H58.0905Z" fill="#828C6C"/>
<path d="M60.9704 119.384C60.8218 119.115 60.7086 118.818 60.6308 118.479C60.3407 117.141 61.0058 116.221 62.1097 115.98C62.4493 115.902 63.072 115.902 63.4966 116.002C63.2985 115.372 63.1286 114.735 62.9871 114.091C62.9093 113.751 62.8527 113.411 62.8031 113.086C61.4091 111.302 59.3571 110.651 58.0975 110.92C56.7248 111.224 55.6634 112.435 56.2012 114.897C56.3568 115.605 56.5833 116.256 56.8663 116.851C58.2037 118.132 59.6472 119.016 60.9704 119.384Z" fill="#A3AA8D"/>
<path d="M63.5744 109.958C63.5107 109.972 63.4541 109.993 63.3904 110.007C63.164 111.317 63.1286 112.633 63.3975 113.879C63.7725 115.577 64.2325 117.233 64.6287 118.925C65.3009 119.625 66.3411 120.163 67.4096 120.425C68.0394 118.592 68.287 116.193 67.6077 113.107C67.0983 110.779 65.9024 109.448 63.5744 109.958Z" fill="#C5CEA1"/>
<path d="M72.3346 109.561C71.1883 104.331 68.7399 103.376 66.4614 102.399C65.6972 103.695 64.8623 105.28 64.2325 106.978C65.0533 106.172 65.8458 105.535 66.1855 105.457C68.5984 104.926 70.5939 108.634 71.1599 111.21C71.7331 113.836 71.5208 117.828 70.1198 120.382C73.4951 119.08 72.9643 112.435 72.3346 109.569V109.561Z" fill="#809151"/>
<path d="M66.1855 105.449C65.8458 105.527 65.0462 106.164 64.2325 106.971C63.8645 107.955 63.5673 108.981 63.3834 110C63.447 109.986 63.5037 109.965 63.5673 109.951C65.8954 109.441 67.0912 110.764 67.6007 113.1C68.28 116.185 68.0323 118.585 67.4026 120.418C68.188 120.616 68.9805 120.665 69.6528 120.517C69.8155 120.481 69.9712 120.432 70.1127 120.375C71.5138 117.82 71.7331 113.829 71.1529 111.203C70.5868 108.627 68.5913 104.926 66.1784 105.449H66.1855Z" fill="#A2AF74"/>
<mask id="mask6_50_12052" style="mask-type:luminance" maskUnits="userSpaceOnUse" x="52" y="100" width="21" height="21">
<path d="M63.9141 100.934C62.1309 100.142 60.1142 100.014 58.2107 100.432C52.656 101.649 52.2669 108.245 52.5428 109.505L53.5901 112.258C55.8686 117.077 60.2487 120.106 63.0296 119.498C63.5744 119.377 64.0768 119.123 64.5297 118.818C65.6689 120.099 68.0394 120.878 69.6598 120.524C73.5517 119.675 72.9927 112.555 72.3417 109.561C70.7354 102.229 66.5676 103.298 63.9141 100.934Z" fill="white"/>
</mask>
<g mask="url(#mask6_50_12052)">
<path style="mix-blend-mode:multiply" d="M50.0068 92.0183C49.6631 78.8899 60.0255 67.9686 73.1519 67.6248C86.2783 67.281 97.198 77.645 97.5417 90.7734C97.8854 103.902 87.523 114.823 74.3966 115.167C61.2702 115.511 50.3505 105.147 50.0068 92.0183Z" fill="url(#paint10_radial_50_12052)"/>
</g>
<path d="M82.9912 119.187C84.18 122.039 92.3033 126.462 94.3837 129.902C90.3149 124.884 84.4984 122.633 82.2977 119.222C82.3119 119.045 82.326 118.861 82.3331 118.67C82.411 118.606 82.4959 118.536 82.5808 118.479C82.7648 118.819 82.9629 119.095 82.9629 119.095C82.977 119.123 82.977 119.158 82.9912 119.187Z" fill="#E8EAE9"/>
<path d="M90.8456 120.708C92.4873 120.022 94.5252 120.503 95.7423 123.419C96.1668 124.431 96.5773 125.577 96.8674 126.752C96.7329 127.537 96.3296 128.238 95.7494 128.847C96.0041 127.665 95.8555 126.483 95.4026 125.4C94.7162 123.758 93.6619 123.419 93.1171 123.645C92.5934 123.864 91.8363 125.365 92.558 127.785C91.9141 127.177 91.1782 126.554 90.4069 125.931C90.23 125.612 90.0743 125.287 89.9328 124.954C89.1474 123.086 88.9634 121.494 90.8456 120.708Z" fill="#C4D6C9"/>
<path d="M93.117 123.645C93.6548 123.418 94.7162 123.765 95.4026 125.4C95.8555 126.476 96.004 127.665 95.7493 128.847C95.438 129.165 95.0842 129.462 94.6879 129.731C94.6525 129.866 94.6101 129.993 94.5605 130.121C94.5039 130.05 94.4473 129.972 94.3836 129.901C93.9732 129.229 93.3364 128.514 92.5651 127.785C91.8362 125.365 92.6005 123.864 93.1241 123.645H93.117Z" fill="#DAE5DF"/>
<path d="M82.9629 119.094C82.9629 119.094 82.7648 118.818 82.5808 118.479C83.0549 118.132 83.6068 117.849 84.0243 117.679C86.324 116.716 89.0837 116.808 91.5745 118.309C89.579 117.813 87.6119 117.92 86.5575 118.365C85.8216 118.677 85.1706 118.981 85.8216 120.538C86.3169 121.727 86.9962 122.838 87.6048 123.73C85.4537 122.053 83.529 120.46 82.9983 119.179C82.9841 119.144 82.977 119.116 82.97 119.087L82.9629 119.094Z" fill="#94B7A9"/>
<path d="M86.5575 118.365C87.6118 117.927 89.579 117.813 91.5744 118.309C93.5204 119.484 95.3035 121.515 96.5772 124.572C96.9027 125.358 96.9876 126.087 96.8673 126.752C96.5772 125.57 96.1668 124.43 95.7423 123.418C94.5181 120.503 92.4873 120.021 90.8456 120.708C88.9705 121.493 89.1544 123.086 89.9328 124.954C90.0743 125.294 90.23 125.619 90.4069 125.931C89.4941 125.195 88.5247 124.459 87.5977 123.73C86.9821 122.831 86.3099 121.72 85.8145 120.538C85.1635 118.981 85.8145 118.67 86.5504 118.365H86.5575Z" fill="#A1C0AC"/>
<path d="M85.3475 128.967C84.2649 126.377 85.0998 124.565 86.3948 124.027C86.7415 123.879 87.2156 123.907 87.718 124.02C88.645 124.692 89.6144 125.4 90.5767 126.179C89.7984 125.804 88.9846 125.563 88.4327 125.796C86.4089 126.646 86.5646 128.457 87.3217 130.276C87.442 130.566 87.5694 130.85 87.6897 131.14C87.7887 131.38 88.3831 132.371 89.6356 132.98C89.0341 132.852 88.3831 132.654 87.7251 132.378C86.6354 131.324 85.8004 130.064 85.3617 129.024C85.3617 129.009 85.3475 128.995 85.3404 128.981L85.3475 128.967Z" fill="#A1C0AC"/>
<path d="M82.2977 119.229C82.8496 120.085 83.628 120.864 84.555 121.635C84.187 121.579 83.819 121.586 83.5714 121.685C81.9863 122.35 83.2176 125.174 83.7554 126.462C83.9464 126.922 84.1445 127.368 84.3356 127.828C84.9017 129.179 85.4112 130.744 85.4395 130.8C85.4819 130.899 85.5244 131.005 85.5739 131.104C84.7106 130.418 83.9676 129.533 83.5006 128.429C81.2717 123.093 82.0783 121.805 82.2977 119.229Z" fill="#7FA595"/>
<path d="M87.3288 130.277C86.5717 128.458 86.416 126.646 88.4397 125.797C88.9917 125.563 89.8054 125.804 90.5838 126.179C91.9141 127.255 93.2232 128.465 94.3907 129.909C94.4473 130.001 94.4969 130.093 94.5464 130.185C94.0652 131.487 93.1453 132.591 92.0839 133.037C91.6664 133.214 90.7465 133.214 89.6497 132.98C88.3973 132.378 87.8029 131.381 87.7038 131.14C87.5835 130.85 87.4562 130.567 87.3359 130.277H87.3288Z" fill="#C4D6C9"/>
<path d="M84.3356 127.828C84.1445 127.375 83.9464 126.922 83.7554 126.462C83.2176 125.181 81.9863 122.35 83.5714 121.685C83.819 121.579 84.187 121.572 84.555 121.635C85.489 122.421 86.5787 123.192 87.718 124.02C87.2156 123.914 86.7415 123.886 86.3947 124.028C85.1069 124.565 84.2648 126.377 85.3475 128.967C85.3475 128.982 85.3616 128.996 85.3687 129.01C85.8003 130.05 86.6424 131.31 87.7321 132.364C86.9891 132.053 86.2461 131.635 85.5739 131.098C85.5244 130.998 85.4819 130.899 85.4395 130.793C85.4112 130.737 84.9017 129.173 84.3356 127.821V127.828Z" fill="#94B7A9"/>
<mask id="mask7_50_12052" style="mask-type:luminance" maskUnits="userSpaceOnUse" x="81" y="117" width="16" height="17">
<path d="M82.3329 118.67C82.8494 118.231 83.5287 117.884 84.017 117.672C88.114 115.959 93.6546 117.587 96.5699 124.565C97.4828 126.752 96.4709 128.507 94.6806 129.724C94.2631 131.218 93.2583 132.527 92.0696 133.022C90.8312 133.539 85.2128 132.534 83.4934 128.422C81.1087 122.718 82.1984 121.642 82.3329 118.67Z" fill="white"/>
</mask>
<g mask="url(#mask7_50_12052)">
<path style="mix-blend-mode:multiply" d="M77.9554 129.008C73.4683 127.168 71.3226 122.038 73.1629 117.55C75.0032 113.062 80.1326 110.916 84.6197 112.757C89.1068 114.597 91.2525 119.727 89.4122 124.215C87.5719 128.703 82.4425 130.849 77.9554 129.008Z" fill="url(#paint11_radial_50_12052)"/>
<path style="mix-blend-mode:screen" d="M92.2419 136.153C88.5661 132.989 88.1512 127.444 91.315 123.767C94.4789 120.091 100.023 119.676 103.699 122.84C107.375 126.005 107.79 131.55 104.626 135.226C101.462 138.903 95.9176 139.318 92.2419 136.153Z" fill="url(#paint12_radial_50_12052)"/>
</g>
<path d="M28.1516 43.0579C29.0149 43.0791 29.8852 43.072 30.7697 43.0508C30.4938 44.3601 31.4703 45.7755 32.6944 46.561C33.9894 47.3961 37.3363 48.939 40.747 49.4627C37.7255 49.2362 34.7819 48.4294 32.2487 46.7946C31.4066 46.2496 28.8875 44.4945 28.1587 43.0579H28.1516Z" fill="#617959"/>
<path d="M48.7642 32.0599C50.8658 28.7902 53.5618 28.0471 56.3214 29.2503C58.8759 31.2743 60.6803 33.7796 59.9798 36.5114C59.0104 36.9785 57.772 37.488 56.3285 38.0118C53.8165 38.6841 50.9719 39.3069 48.0071 39.8518C46.9527 37.7074 46.9952 34.8058 48.7642 32.0599Z" fill="#D7E2D7"/>
<path d="M59.9798 36.5117C59.9444 36.6533 59.902 36.7877 59.8524 36.9293C59.8524 36.9363 59.8666 36.9434 59.8666 36.9576C58.791 37.3185 57.6022 37.6724 56.3215 38.0121C57.765 37.4884 59.0033 36.9717 59.9727 36.5117H59.9798Z" fill="#E7F2E7"/>
<path d="M27.9677 42.1518C36.0698 41.9183 48.0142 40.2339 56.3286 38.0117C49.5568 40.4816 38.2138 43.2842 28.1516 43.0577C27.9889 42.7322 27.9111 42.4279 27.9677 42.1518Z" fill="#E7F2E7"/>
<path d="M42.4665 33.7374C45.1837 29.5124 49.1888 27.6369 53.7812 27.5591C54.043 27.6865 54.3048 27.8351 54.5595 27.9979C55.1681 28.3871 55.7625 28.8117 56.3144 29.2505C53.5547 28.0474 50.8587 28.7905 48.7571 32.0601C46.9881 34.8061 46.9457 37.7077 48 39.8521C45.955 40.2272 43.8534 40.5739 41.7589 40.8712C39.6502 39.3708 41.1362 35.7827 42.4524 33.7374H42.4665Z" fill="#BACCBA"/>
<path d="M28.088 41.8546C30.6212 37.9126 38.9851 29.5828 46.5848 27.3394C40.3225 29.9508 35.4542 35.3648 34.5272 36.8156C33.6922 38.1108 33.5649 39.4696 34.8669 40.3047C36.1335 41.1185 38.1148 40.7859 39.0205 41.2389C35.0367 41.7343 31.1944 42.0598 27.9606 42.1518C27.9819 42.0457 28.0172 41.9466 28.0809 41.8546H28.088Z" fill="#819B81"/>
<path d="M34.5272 36.8159C35.4612 35.3651 40.3296 29.9581 46.5848 27.3396C49.1534 26.5823 51.6371 26.5186 53.7812 27.559C49.1888 27.6368 45.1767 29.5194 42.4666 33.7373C41.1504 35.7826 39.6644 39.3707 41.7731 40.8711C40.8532 41.0056 39.9333 41.1259 39.0276 41.2391C38.1218 40.7932 36.1335 41.1188 34.8739 40.3049C33.5719 39.4698 33.6993 38.111 34.5343 36.8159H34.5272Z" fill="#9DB29D"/>
<path d="M30.7698 43.0508C35.3339 42.9305 40.0536 42.2723 44.4125 41.3594C44.1365 41.6212 43.8818 41.9255 43.6483 42.2794C42.877 43.4754 42.4595 45.45 44.3134 46.646C47.5189 48.7055 52.0122 47.8845 55.4865 46.6602C52.8754 47.8774 49.5709 48.8895 46.1036 49.3141C45.7994 49.2716 45.488 49.3353 45.1554 49.4132C43.6907 49.5476 42.2118 49.5689 40.7471 49.4627C37.3364 48.939 33.9894 47.3962 32.6945 46.5611C31.4703 45.7755 30.4938 44.3601 30.7698 43.0508Z" fill="#7E9675"/>
<path d="M54.8638 44.1337C53.0736 42.9802 52.9745 40.4536 53.9369 38.84C54.786 38.564 55.5856 38.288 56.3286 38.0191C57.5881 37.6794 58.7627 37.3326 59.8312 36.9717C59.8454 36.9717 59.8666 36.9717 59.8808 36.9788C60.8431 38.564 61.8904 39.5548 61.4375 41.2675C59.7746 43.1005 56.7531 45.351 54.8568 44.1337H54.8638Z" fill="#BFCEBA"/>
<path d="M44.3134 46.6459C42.4595 45.4499 42.877 43.4824 43.6483 42.2793C43.8818 41.9184 44.1365 41.6212 44.4125 41.3593C47.9151 40.6233 51.1772 39.7316 53.9369 38.8398C52.9745 40.4605 53.0736 42.987 54.8638 44.1335C56.7602 45.3508 59.7817 43.1003 61.4446 41.2673C61.3172 41.7556 61.0695 42.2935 60.6591 42.9304C59.8878 44.1335 58.0056 45.4924 55.4865 46.6601C52.0122 47.8844 47.5118 48.7125 44.3134 46.6459Z" fill="#9CAF95"/>
<mask id="mask8_50_12052" style="mask-type:luminance" maskUnits="userSpaceOnUse" x="27" y="26" width="35" height="24">
<path d="M54.5666 27.9976C58.1117 30.2764 61.0766 33.4328 59.8595 36.9289C61.1049 39.0025 62.513 40.0429 60.6591 42.9233C57.9773 47.0846 42.0561 53.1073 32.2487 46.7945C31.1448 46.0797 27.1681 43.2913 28.0879 41.8546C31.5835 36.4194 46.1885 22.6119 54.5666 27.9976Z" fill="white"/>
</mask>
<g mask="url(#mask8_50_12052)">
<path style="mix-blend-mode:screen" d="M48.7578 37.2318C41.5974 31.3994 40.5201 20.8658 46.3517 13.7043C52.1832 6.54281 62.7153 5.46542 69.8757 11.2978C77.0361 17.1303 78.1133 27.6639 72.2817 34.8254C66.4502 41.9869 55.9182 43.0643 48.7578 37.2318Z" fill="url(#paint13_radial_50_12052)"/>
<path style="mix-blend-mode:multiply" d="M20.0027 60.8335C12.6393 55.2597 11.1878 44.7711 16.7607 37.4065C22.3337 30.042 32.8207 28.5903 40.1842 34.1641C47.5476 39.7379 48.9991 50.2265 43.4261 57.591C37.8531 64.9556 27.3661 66.4073 20.0027 60.8335Z" fill="url(#paint14_radial_50_12052)"/>
</g>
<path d="M93.1666 46.4967C97.7165 45.8881 109.491 53.0006 115.47 53.0855C105.981 51.6276 98.7213 45.8527 92.6996 45.5767C92.4802 45.7324 92.2538 45.8881 92.0132 46.0437C91.9849 46.1924 91.9636 46.3481 91.9495 46.5038C92.5227 46.4896 93.025 46.5321 93.025 46.5321C93.0746 46.5321 93.117 46.5108 93.1666 46.5038V46.4967Z" fill="#E8EAE9"/>
<path d="M101.007 55.4425C101.354 58.0681 103.498 60.3186 108.161 59.6958C109.774 59.4835 111.55 59.1509 113.284 58.6413C114.19 57.8841 114.791 56.8367 115.131 55.6336C113.807 56.8437 112.173 57.5373 110.446 57.7709C107.828 58.1176 106.59 57.0207 106.477 56.1573C106.363 55.3222 107.722 53.2202 111.373 52.3356C110.107 51.9676 108.762 51.4864 107.382 50.9556C106.845 50.9697 106.307 51.0051 105.769 51.0759C102.783 51.4722 100.596 52.4347 101 55.4354L101.007 55.4425Z" fill="#C4D6C9"/>
<path d="M106.484 56.1571C106.597 57.0205 107.828 58.1175 110.453 57.7707C112.173 57.5442 113.807 56.8436 115.138 55.6334C115.322 54.9965 115.428 54.317 115.477 53.6023C115.619 53.4536 115.753 53.305 115.881 53.1493C115.746 53.1281 115.605 53.1069 115.47 53.0856C114.296 53.0715 112.902 52.7813 111.38 52.3354C107.729 53.213 106.371 55.3149 106.484 56.1571Z" fill="#DAE5DF"/>
<path d="M93.025 46.5253C93.025 46.5253 92.5226 46.4758 91.9494 46.497C91.8574 47.3675 91.9141 48.2805 91.999 48.9457C92.4872 52.6258 94.6737 56.0936 98.4736 58.1672C96.3437 55.9804 95.0063 53.376 94.7799 51.6846C94.6242 50.5027 94.5322 49.4411 97.0159 49.1085C98.9123 48.8537 100.844 48.8891 102.457 49.0023C98.6929 47.502 95.2044 46.2281 93.1594 46.497C93.1099 46.497 93.0675 46.5183 93.0179 46.5253H93.025Z" fill="#94B7A9"/>
<path d="M94.7799 51.6913C95.0063 53.3757 96.3437 55.9871 98.4736 58.174C101.438 59.7876 105.38 60.559 110.269 59.9008C111.522 59.7309 112.513 59.2922 113.284 58.6411C111.55 59.1506 109.774 59.4832 108.161 59.6956C103.498 60.3183 101.354 58.0678 101.007 55.4422C100.603 52.4415 102.79 51.479 105.776 51.0827C106.314 51.0119 106.852 50.9694 107.389 50.9624C105.755 50.3396 104.085 49.6531 102.465 49.0091C100.851 48.8958 98.9194 48.8605 97.023 49.1152C94.5393 49.4479 94.6242 50.5094 94.787 51.6913H94.7799Z" fill="#A1C0AC"/>
<path d="M107.489 42.1871C103.349 42.7391 101.651 45.1737 101.927 47.2331C101.997 47.7851 102.394 48.3796 102.91 48.9387C104.474 49.6323 106.109 50.34 107.828 50.9911C106.767 50.2763 105.847 49.4058 105.734 48.5282C105.302 45.294 107.75 44.1262 110.652 43.7441C111.111 43.6804 111.571 43.6308 112.031 43.5671C112.413 43.5176 114.133 43.5318 115.845 44.6853C115.23 44.013 114.487 43.3194 113.638 42.6896C111.465 42.0809 109.222 41.9536 107.559 42.1729C107.538 42.1729 107.51 42.1729 107.489 42.18V42.1871Z" fill="#A1C0AC"/>
<path d="M92.6995 45.5768C94.2138 45.6476 95.7989 46.0651 97.483 46.6667C97.1292 46.235 96.8673 45.7608 96.8107 45.3645C96.4711 42.8309 101.028 42.293 103.08 42.017C103.809 41.9179 104.538 41.833 105.267 41.7339C107.432 41.4437 109.817 40.9271 109.909 40.92C110.071 40.8988 110.234 40.8776 110.397 40.8705C108.868 40.276 107.177 39.9788 105.408 40.2194C96.8815 41.3588 95.8413 43.3546 92.6995 45.5768Z" fill="#7FA595"/>
<path d="M110.644 43.7439C107.743 44.1332 105.295 45.3009 105.727 48.5281C105.847 49.4056 106.767 50.2691 107.821 50.9909C110.199 51.8897 112.739 52.6611 115.463 53.0858C115.626 53.0858 115.782 53.0858 115.937 53.0787C117.246 51.4863 117.975 49.4764 117.749 47.7779C117.657 47.1056 116.97 45.9308 115.845 44.6923C114.126 43.5387 112.406 43.5175 112.031 43.5741C111.571 43.6378 111.111 43.6873 110.652 43.751L110.644 43.7439Z" fill="#C4D6C9"/>
<path d="M105.26 41.7411C104.531 41.8402 103.802 41.9251 103.073 42.0242C101.028 42.3002 96.4711 42.8381 96.8037 45.3717C96.8532 45.768 97.1221 46.2422 97.4759 46.6739C99.1812 47.2896 100.993 48.1034 102.91 48.9527C102.394 48.3936 102.005 47.7991 101.927 47.2471C101.651 45.1877 103.349 42.7531 107.489 42.2011C107.51 42.2011 107.538 42.2011 107.559 42.194C109.215 41.9746 111.465 42.102 113.638 42.7107C112.675 41.9959 111.586 41.3519 110.39 40.8848C110.227 40.8989 110.064 40.9131 109.901 40.9343C109.809 40.9485 107.425 41.4651 105.26 41.7482V41.7411Z" fill="#94B7A9"/>
<mask id="mask9_50_12052" style="mask-type:luminance" maskUnits="userSpaceOnUse" x="91" y="40" width="27" height="21">
<path d="M92.0131 46.0369C91.8292 47.0277 91.8929 48.16 91.999 48.9456C92.8693 55.4919 99.1246 61.3801 110.269 59.8939C113.765 59.4268 115.258 56.8083 115.477 53.5952C117.077 51.9392 118.004 49.6674 117.749 47.7708C117.487 45.7892 111.982 39.3348 105.408 40.2124C96.2942 41.4296 95.7281 43.6306 92.0131 46.0369Z" fill="white"/>
</mask>
<g mask="url(#mask9_50_12052)">
<path style="mix-blend-mode:multiply" d="M89.786 55.3833C82.9702 53.0308 79.3517 45.5975 81.7039 38.7807C84.0561 31.9638 91.4882 28.3448 98.304 30.6974C105.12 33.0499 108.738 40.4832 106.386 47.3C104.034 54.1168 96.6018 57.7359 89.786 55.3833Z" fill="url(#paint15_radial_50_12052)"/>
<path style="mix-blend-mode:screen" d="M104.592 58.8156C104.142 51.6183 109.61 45.4187 116.806 44.9684C124.003 44.5181 130.201 49.9877 130.651 57.185C131.102 64.3822 125.633 70.5818 118.437 71.0321C111.241 71.4824 105.042 66.0129 104.592 58.8156Z" fill="url(#paint16_radial_50_12052)"/>
</g>
<path d="M73.0564 36.5042C73.1767 35.9168 73.2757 35.3648 73.3536 34.834C78.8446 30.8637 84.1375 31.6634 90.8032 27.1836C84.4064 31.8262 77.0968 33.6026 73.0493 36.5042H73.0564Z" fill="#B8C9AE"/>
<path d="M78.7951 18.4571C81.208 16.0862 86.5858 16.433 91.1287 17.622C92.1688 18.1528 92.9331 18.6835 93.2727 19.0303C93.9166 19.6885 94.3624 20.4528 94.6738 21.2242C88.9917 16.9709 83.4582 20.6368 82.326 21.7479C80.557 23.4818 79.4178 26.7727 81.3071 28.6977C82.1916 29.5965 83.5502 30.0282 84.6824 30.2264C82.5242 30.9907 80.4792 31.4932 78.4766 32.215C79.7645 27.1478 75.0589 22.116 78.788 18.4571H78.7951Z" fill="#607562"/>
<path d="M91.1287 17.6224C86.5858 16.4334 81.208 16.0866 78.7951 18.4575C75.066 22.1164 79.7645 27.1482 78.4837 32.2154C76.7643 32.8312 75.0731 33.6026 73.3677 34.8411C74.7829 25.4426 70.1764 24.6924 76.2618 18.7193C81.0311 14.0413 87.6543 15.8531 91.1357 17.6295L91.1287 17.6224Z" fill="#617959"/>
<path d="M88.6945 23.0788C90.414 21.3944 93.0392 21.4157 94.8365 21.6634C95.0276 22.2437 95.1408 22.8099 95.2115 23.3407C94.8719 23.6804 94.5252 24.0201 94.1855 24.3527C93.11 25.4072 91.9778 26.3414 90.8173 27.1906C90.6829 27.2826 90.5484 27.3676 90.414 27.4525C89.1474 27.3676 88.1072 26.8722 87.8029 26.5608C87.3642 26.1149 87.4774 24.2819 88.7016 23.0788H88.6945Z" fill="#92A27C"/>
<path d="M82.326 21.7409C83.4582 20.6298 88.9917 16.9638 94.6737 21.2172C94.7303 21.3658 94.787 21.5073 94.8365 21.656C93.0462 21.4083 90.4139 21.387 88.6945 23.0714C87.4703 24.2745 87.3571 26.1075 87.7958 26.5533C88.1001 26.8577 89.1332 27.3531 90.4069 27.4451C88.3902 28.7472 86.5009 29.5753 84.6823 30.2193C83.5572 30.0141 82.1916 29.5894 81.307 28.6906C79.4177 26.7657 80.557 23.4748 82.326 21.7409Z" fill="#819B81"/>
<path d="M95.7847 36.1642C92.1193 36.8648 88.0081 36.61 86.2249 34.7983C84.9937 33.5456 84.279 32.3637 84.3003 31.0049C86.4655 29.9504 88.6874 28.7261 90.8102 27.1903C91.1782 26.9426 91.5462 26.6808 91.9212 26.4048C90.5272 28.8959 91.8292 31.2314 92.091 31.5003C92.2821 31.6914 92.4519 31.9037 92.6359 32.0877C93.5628 33.029 96.2871 33.3687 98.6718 32.293C98.1623 33.5102 97.3981 34.6497 96.4569 35.5768C96.2588 35.7749 96.0324 35.9731 95.7847 36.1712V36.1642Z" fill="#617959"/>
<path d="M92.6359 32.0809C92.4589 31.8969 92.282 31.6917 92.091 31.4935C91.8292 31.2246 90.5201 28.8891 91.9212 26.398C93.0038 25.5912 94.1147 24.6428 95.2752 23.5034C96.3154 23.9351 97.4122 24.5438 97.95 25.0887C99.719 26.8934 99.7473 29.7455 98.6717 32.2791C96.2871 33.3548 93.5557 33.0151 92.6359 32.0738V32.0809Z" fill="#819B81"/>
<path d="M75.9647 37.2823C75.3278 36.6383 75.3207 35.789 75.6321 34.9822C78.1016 33.7154 81.1443 32.5406 84.3003 31.0049C84.272 32.3637 84.9937 33.5385 86.225 34.7982C88.0081 36.6171 92.1193 36.8718 95.7847 36.1641C94.7233 37.0134 93.2586 37.8485 91.5745 38.5916C85.9773 40.4529 78.8163 40.191 75.9647 37.2823Z" fill="#526943"/>
<path d="M75.6321 34.9751C75.3207 35.789 75.3278 36.6311 75.9647 37.2752C78.8163 40.1839 85.9844 40.4457 91.5745 38.5844C85.6023 41.2171 76.8845 42.675 73.6508 39.3771C73.0564 38.7684 72.7026 38.0607 72.8724 37.3247C72.9361 37.0416 72.9927 36.7727 73.0493 36.5038C73.8065 35.9659 74.6697 35.4634 75.625 34.9751H75.6321Z" fill="#4C5948"/>
<mask id="mask10_50_12052" style="mask-type:luminance" maskUnits="userSpaceOnUse" x="72" y="15" width="28" height="27">
<path d="M93.2726 19.0305C94.5605 20.3468 95.077 22.0949 95.2186 23.482C96.2729 23.9137 97.398 24.5365 97.9499 25.0956C100.568 27.7637 99.3651 32.7177 96.4569 35.5698C92.3032 39.6462 78.0096 43.8146 73.6578 39.3773C73.0634 38.7686 72.7096 38.0609 72.8794 37.3249C75.6037 25.5202 69.6669 25.1734 76.2547 18.712C82.4533 12.6328 91.7937 17.516 93.2726 19.0305Z" fill="white"/>
</mask>
<g mask="url(#mask10_50_12052)">
<path style="mix-blend-mode:multiply" d="M56.1824 39.6922C52.3835 30.6048 56.6695 20.158 65.7555 16.3585C74.8415 12.5591 85.2867 16.8457 89.0856 25.9331C92.8845 35.0205 88.5985 45.4673 79.5125 49.2667C70.4265 53.0662 59.9813 48.7795 56.1824 39.6922Z" fill="url(#paint17_radial_50_12052)"/>
</g>
<path d="M10.5959 48.3441C11.2045 48.2308 11.8059 48.1176 12.3933 47.9619C12.9523 52.3427 15.0397 57.4524 11.6715 64.6215C10.7304 66.6173 9.53453 68.5139 8.25376 70.3398C8.25376 70.3398 8.25375 70.3398 8.24667 70.3328C8.19714 70.3681 8.13346 70.4035 8.08393 70.4389C9.10288 68.3582 10.1997 66.3342 11.1903 64.2323C13.4617 59.4057 12.0253 52.7956 10.603 48.3441H10.5959Z" fill="#E6EAD8"/>
<path d="M21.394 53.0859C16.1931 50.6372 14.5585 54.4942 13.766 56.1857C13.6881 56.3555 13.6103 56.5254 13.5396 56.6952C13.5679 53.3548 12.7187 50.531 12.3861 47.962C13.0584 47.7851 13.7235 47.5445 14.3604 47.1977C16.9219 46.6952 19.5967 47.1269 21.953 48.238C28.838 51.4794 27.3874 60.1984 26.6515 61.7554C26.6515 61.7554 26.3189 62.2579 25.9085 62.8665C26.9345 58.1814 24.649 54.6216 21.394 53.0859Z" fill="#697552"/>
<path d="M13.4193 71.055C13.2212 71.4725 12.9806 71.8264 12.7117 72.1378C11.6927 72.1873 10.7658 72.0387 10.0015 71.6777C9.32932 71.3593 8.75616 70.8851 8.25376 70.3543C9.02505 69.2503 9.76096 68.1321 10.4332 66.9785C11.0134 66.9785 11.8272 67.1696 12.2447 67.3678C13.6033 68.0047 14.2047 69.4131 13.4264 71.0691L13.4193 71.055Z" fill="#C8CCB8"/>
<path d="M18.9811 61.9465C17.4314 61.2175 14.5515 61.4652 12.2022 63.369C13.1787 60.9132 13.5184 58.7122 13.5325 56.6952C13.6033 56.5254 13.6811 56.3555 13.7589 56.1857C14.5515 54.4942 16.186 50.6372 21.3869 53.0859C24.6419 54.6216 26.9275 58.1814 25.9015 62.8665C25.2646 63.8219 24.458 65.0392 24.458 65.0392C22.7951 67.1553 20.8138 68.8467 18.8113 70.0498C19.3561 69.3562 19.8514 68.5778 20.2619 67.7002C21.6983 64.6499 20.6723 62.7462 18.974 61.9465H18.9811Z" fill="#828C6C"/>
<path d="M12.7116 72.1304C12.9805 71.826 13.2282 71.4722 13.4192 71.0476C14.1976 69.3915 13.5961 67.9902 12.2375 67.3462C11.82 67.1481 11.0063 66.964 10.4261 66.957C10.8719 66.1926 11.2893 65.4142 11.6644 64.6144C11.8625 64.1898 12.0465 63.7723 12.2092 63.3618C14.5585 61.458 17.4314 61.2103 18.9881 61.9393C20.6864 62.739 21.7124 64.6427 20.2759 67.693C19.8655 68.5706 19.3702 69.349 18.8254 70.0426C16.7025 71.3165 14.5514 72.0384 12.7187 72.1233L12.7116 72.1304Z" fill="#A3AA8D"/>
<path d="M12.1172 59.066C12.1951 59.1014 12.2659 59.1438 12.3437 59.1863C12.2517 60.9626 11.905 62.6895 11.1832 64.2323C10.1926 66.3413 9.09577 68.3583 8.07682 70.4389C6.98711 71.1466 5.47283 71.543 4.00808 71.5713C3.73211 68.9952 4.12129 65.7893 5.92569 61.9676C7.28429 59.0801 9.2373 57.7072 12.1243 59.066H12.1172Z" fill="#C5CEA1"/>
<path d="M0.802636 55.938C3.85242 49.4554 7.33385 48.9387 10.5888 48.3442C11.2045 50.2621 11.8201 52.5764 12.1385 54.9755C11.3106 53.6875 10.4615 52.6118 10.044 52.4136C7.0508 51.0052 3.35002 55.2445 1.84989 58.4362C0.314384 61.6917 -0.591347 66.9571 0.484215 70.708C-3.53499 68.0045 -0.860244 59.4907 0.809708 55.938H0.802636Z" fill="#809151"/>
<path d="M10.044 52.4137C10.4685 52.6119 11.3106 53.6876 12.1385 54.9756C12.3225 56.3698 12.4074 57.7924 12.3437 59.1795C12.2659 59.137 12.1951 59.0945 12.1173 59.0592C9.23023 57.7003 7.27723 59.0804 5.91863 61.9608C4.12131 65.7824 3.72504 68.9884 4.00101 71.5645C2.91837 71.5857 1.86405 71.4158 1.03615 71.0266C0.830941 70.9346 0.654033 70.8214 0.477132 70.7011C-0.591355 66.9502 0.314387 61.6848 1.84282 58.4293C3.34294 55.2446 7.05081 50.9983 10.0369 52.4066L10.044 52.4137Z" fill="#A2AF74"/>
<mask id="mask11_50_12052" style="mask-type:luminance" maskUnits="userSpaceOnUse" x="-2" y="46" width="30" height="27">
<path d="M14.3604 47.1977C16.9219 46.6952 19.5967 47.1269 21.953 48.238C28.838 51.4794 27.3874 60.1984 26.6515 61.7554L24.465 65.0392C20.0566 70.6443 13.4476 73.2982 10.0015 71.6704C9.32221 71.352 8.74905 70.8707 8.24664 70.3329C6.37856 71.6634 3.05989 71.9748 1.05028 71.0335C-3.76852 68.7617 -0.931017 59.6535 0.816772 55.945C5.09072 46.8651 10.2138 49.4907 14.3675 47.1977H14.3604Z" fill="white"/>
</mask>
<g mask="url(#mask11_50_12052)">
<path style="mix-blend-mode:multiply" d="M-25.5868 42.5814C-31.533 26.0535 -22.9569 7.83399 -6.43162 1.88686C10.0937 -4.06027 28.3105 4.51708 34.2567 21.0449C40.2029 37.5727 31.6269 55.7923 15.1016 61.7394C-1.42376 67.6865 -19.6406 59.1092 -25.5868 42.5814Z" fill="url(#paint18_radial_50_12052)"/>
</g>
</g>
</g>
<defs>
<radialGradient id="paint0_radial_50_12052" cx="0" cy="0" r="1" gradientUnits="userSpaceOnUse" gradientTransform="translate(54.9982 68.3252) rotate(-21.423) scale(18.943 18.9451)">
<stop stop-color="#8AA093"/>
<stop offset="0.58" stop-color="#C7D1CB"/>
<stop offset="1" stop-color="#F7F7F7"/>
</radialGradient>
<radialGradient id="paint1_radial_50_12052" cx="0" cy="0" r="1" gradientUnits="userSpaceOnUse" gradientTransform="translate(47.5435 105.173) rotate(-21.423) scale(18.943 18.9451)">
<stop stop-color="#EBEFDF"/>
<stop offset="1"/>
</radialGradient>
<radialGradient id="paint2_radial_50_12052" cx="0" cy="0" r="1" gradientUnits="userSpaceOnUse" gradientTransform="translate(117.538 106.124) rotate(-40.3543) scale(14.8961 14.8964)">
<stop stop-color="#617959"/>
<stop offset="1" stop-color="white"/>
</radialGradient>
<radialGradient id="paint3_radial_50_12052" cx="0" cy="0" r="1" gradientUnits="userSpaceOnUse" gradientTransform="translate(119.155 123.223) rotate(-58.4639) scale(16.7226 16.7214)">
<stop stop-color="#EBEFDF"/>
<stop offset="1"/>
</radialGradient>
<radialGradient id="paint4_radial_50_12052" cx="0" cy="0" r="1" gradientUnits="userSpaceOnUse" gradientTransform="translate(95.1309 94.655) rotate(-58.4639) scale(16.7226 16.7214)">
<stop stop-color="#617959"/>
<stop offset="1" stop-color="white"/>
</radialGradient>
<radialGradient id="paint5_radial_50_12052" cx="0" cy="0" r="1" gradientUnits="userSpaceOnUse" gradientTransform="translate(63.2858 76.1196) rotate(168.958) scale(19.9617 19.9645)">
<stop stop-color="#7FA595"/>
<stop offset="1" stop-color="white"/>
</radialGradient>
<radialGradient id="paint6_radial_50_12052" cx="0" cy="0" r="1" gradientUnits="userSpaceOnUse" gradientTransform="translate(96.4817 102.973) rotate(168.958) scale(19.9617 19.9645)">
<stop stop-color="#EBEFDF"/>
<stop offset="1"/>
</radialGradient>
<radialGradient id="paint7_radial_50_12052" cx="0" cy="0" r="1" gradientUnits="userSpaceOnUse" gradientTransform="translate(90.1917 98.0166) rotate(103.368) scale(26.5815 26.5779)">
<stop stop-color="#617959"/>
<stop offset="1" stop-color="white"/>
</radialGradient>
<radialGradient id="paint8_radial_50_12052" cx="0" cy="0" r="1" gradientUnits="userSpaceOnUse" gradientTransform="translate(137.434 110.917) rotate(-86.7705) scale(8.78273 8.7814)">
<stop stop-color="#7FA595"/>
<stop offset="1" stop-color="white"/>
</radialGradient>
<radialGradient id="paint9_radial_50_12052" cx="0" cy="0" r="1" gradientUnits="userSpaceOnUse" gradientTransform="translate(151.428 124.18) rotate(-86.7605) scale(8.78273 8.78141)">
<stop stop-color="#EBEFDF"/>
<stop offset="1"/>
</radialGradient>
<radialGradient id="paint10_radial_50_12052" cx="0" cy="0" r="1" gradientUnits="userSpaceOnUse" gradientTransform="translate(73.8254 91.423) rotate(-12.3718) scale(23.7758 23.779)">
<stop stop-color="#617959"/>
<stop offset="1" stop-color="white"/>
</radialGradient>
<radialGradient id="paint11_radial_50_12052" cx="0" cy="0" r="1" gradientUnits="userSpaceOnUse" gradientTransform="translate(81.1945 120.896) rotate(157.297) scale(8.7816 8.78253)">
<stop stop-color="#7FA595"/>
<stop offset="1" stop-color="white"/>
</radialGradient>
<radialGradient id="paint12_radial_50_12052" cx="0" cy="0" r="1" gradientUnits="userSpaceOnUse" gradientTransform="translate(97.8956 129.441) rotate(157.297) scale(8.7816 8.78253)">
<stop stop-color="#EBEFDF"/>
<stop offset="1"/>
</radialGradient>
<radialGradient id="paint13_radial_50_12052" cx="0" cy="0" r="1" gradientUnits="userSpaceOnUse" gradientTransform="translate(59.4805 24.4963) rotate(-147.246) scale(16.7215 16.7225)">
<stop stop-color="#EBEFDF"/>
<stop offset="1"/>
</radialGradient>
<radialGradient id="paint14_radial_50_12052" cx="0" cy="0" r="1" gradientUnits="userSpaceOnUse" gradientTransform="translate(30.2094 47.4921) rotate(-147.236) scale(16.7215 16.7225)">
<stop stop-color="#617959"/>
<stop offset="1" stop-color="white"/>
</radialGradient>
<radialGradient id="paint15_radial_50_12052" cx="0" cy="0" r="1" gradientUnits="userSpaceOnUse" gradientTransform="translate(94.1952 42.9928) rotate(-97.5989) scale(13.0573 13.0554)">
<stop stop-color="#7FA595"/>
<stop offset="1" stop-color="white"/>
</radialGradient>
<radialGradient id="paint16_radial_50_12052" cx="0" cy="0" r="1" gradientUnits="userSpaceOnUse" gradientTransform="translate(117.382 57.5746) rotate(-97.5989) scale(13.0573 13.0554)">
<stop stop-color="#EBEFDF"/>
<stop offset="1"/>
</radialGradient>
<radialGradient id="paint17_radial_50_12052" cx="0" cy="0" r="1" gradientUnits="userSpaceOnUse" gradientTransform="translate(72.7841 32.7016) rotate(-134.456) scale(17.8331 17.833)">
<stop stop-color="#617959"/>
<stop offset="1" stop-color="white"/>
</radialGradient>
<radialGradient id="paint18_radial_50_12052" cx="0" cy="0" r="1" gradientUnits="userSpaceOnUse" gradientTransform="translate(4.3631 31.6518) rotate(-154.787) scale(31.8007 31.8038)">
<stop stop-color="#617959"/>
<stop offset="1" stop-color="white"/>
</radialGradient>
<clipPath id="clip0_50_12052">
<rect width="196" height="140" fill="white" transform="matrix(-1 0 0 1 160 0)"/>
</clipPath>
</defs>
</svg>
