<svg width="136" height="113" viewBox="0 0 136 113" fill="none" xmlns="http://www.w3.org/2000/svg">
<g clip-path="url(#clip0_50_11850)">
<g opacity="0.86">
<path d="M61.3256 22.9118C62.1128 23.0375 63.2308 23.4031 64.4458 24.1399C65.6722 24.8654 66.9442 25.9907 68.2163 27.3902C69.5054 28.7726 70.8231 30.4349 72.54 31.8858C74.1315 33.2224 75.877 34.205 77.5711 34.8504C73.3101 35.0504 69.283 35.5816 65.5581 36.0672C60.7153 36.7126 56.363 37.3181 52.7066 37.838C45.8445 38.8148 41.4466 39.4888 40.9275 39.5688C41.4237 39.5231 45.8616 39.1232 52.7751 38.4263C56.4485 38.0493 60.8237 37.5923 65.6779 37.0554C70.5265 36.5298 75.8542 35.9072 81.45 35.9415C81.6439 35.9415 81.8435 35.9415 82.0318 35.9529C82.3683 35.9929 82.7049 36.0157 83.0186 36.0329C83.7716 36.0729 84.4504 36.0614 85.0436 36.0329C86.6008 36.09 88.141 36.1528 89.6583 36.1928C92.3221 36.2614 94.9232 36.1928 97.3817 35.8844C100.114 35.5531 102.652 34.999 104.963 34.3649C105.048 34.3763 105.134 34.382 105.225 34.3992C105.579 34.4392 105.995 34.4791 106.451 34.502C106.217 34.6505 105.989 34.7933 105.75 34.9418C105.185 35.2903 104.62 35.6273 104.061 35.9929C103.519 36.3756 102.966 36.7583 102.413 37.1468C101.86 37.5409 101.312 37.9236 100.753 38.3178C100.211 38.7234 99.6691 39.1461 99.1329 39.5745C98.2602 40.2714 97.3931 40.9968 96.5318 41.728C96.509 41.7451 96.4976 41.7623 96.4691 41.7737C95.2427 42.7334 93.9706 43.8073 92.7214 45.024C90.628 46.8405 88.4889 48.6456 86.2015 50.3078C81.5755 53.6838 76.6699 56.4371 71.924 59.0704C67.1667 61.7038 62.5463 64.2286 58.3309 66.9648C55.9694 68.5071 53.7334 70.0837 51.6 71.6317C51.5544 71.6488 51.503 71.666 51.4574 71.6831C50.2994 72.0087 48.9304 71.9287 47.4987 71.706C46.0612 71.4775 44.6808 71.2261 43.4145 71.0605C42.1482 70.8948 40.9902 70.8206 40.0148 70.8377C39.0451 70.8606 38.2522 70.9177 37.7274 71.1062C37.4651 71.1976 37.2825 71.3004 37.1627 71.3861C37.0486 71.4661 36.9973 71.5175 36.9973 71.5175C36.9973 71.5175 37.0543 71.4718 37.1798 71.4089C37.3053 71.3404 37.4936 71.2661 37.7503 71.209C38.2693 71.0948 39.0508 71.1233 40.0034 71.1862C40.956 71.2604 42.0797 71.4146 43.3232 71.6431C44.5668 71.8659 45.9358 72.1629 47.396 72.3914C48.3943 72.5457 49.4096 72.6371 50.3565 72.5457C49.1244 73.4482 47.9265 74.345 46.7457 75.219C44.0933 77.1954 41.5721 79.0634 39.1649 80.7599C38.3435 81.3368 37.5278 81.8966 36.7292 82.4336C30.506 86.6892 24.9558 89.2826 20.9743 90.6421C19.976 90.9734 19.0748 91.2191 18.299 91.459C18.1051 91.5218 17.9225 91.5789 17.74 91.6303C17.5575 91.6703 17.3806 91.7046 17.2152 91.7446C16.8787 91.8188 16.5764 91.8931 16.314 91.9559C15.2359 92.2073 14.6597 92.3615 14.6712 92.4015C14.6712 92.4415 15.253 92.3672 16.3539 92.1844C16.6334 92.1387 16.9414 92.0873 17.2837 92.0302C17.4548 92.0016 17.6316 91.9674 17.8142 91.9388C17.9967 91.8931 18.1849 91.8474 18.3846 91.796C19.1775 91.5846 20.0958 91.3733 21.1169 91.0763C24.9843 89.8995 30.3177 87.5632 36.2843 83.7131C36.2387 83.7646 36.193 83.8274 36.1474 83.8845C35.5313 84.7242 35.1149 85.6325 34.8012 86.4607C34.4932 87.289 34.2707 88.043 34.0768 88.6771C33.7003 89.9395 33.398 90.6992 33.398 90.6992C33.398 90.6992 33.8543 90.0138 34.4019 88.8028C34.9723 87.6089 35.5713 85.8667 36.7121 84.3015C37.3453 83.4332 38.0697 82.7021 38.7599 82.0794C41.4694 80.2515 44.3158 78.1951 47.3219 76.0016C49.3868 74.505 51.5201 72.9284 53.7619 71.3575C55.4161 70.1922 57.1331 69.0212 58.9128 67.873C63.0996 65.1826 67.7029 62.6977 72.4773 60.0758C77.2346 57.4539 82.1858 54.6834 86.8917 51.2561C87.4051 50.8848 87.9071 50.5078 88.3977 50.1193C88.3862 50.1422 88.3634 50.165 88.352 50.1879C86.8233 52.4042 85.5684 54.9519 84.4846 57.6481C83.4008 60.3443 82.4938 63.2004 81.5583 66.1022C80.6171 68.9984 79.6874 71.8088 78.5408 74.4193C77.4171 77.0355 76.128 79.4689 74.759 81.7024C73.3957 83.9416 71.9297 85.9638 70.4637 87.7746C69.745 88.7 68.9806 89.5282 68.2733 90.3451C67.5204 91.122 66.8302 91.9045 66.1057 92.59C63.2765 95.3833 60.7039 97.3655 58.8899 98.6507C57.9887 99.3076 57.2528 99.7646 56.7623 100.09C56.3915 100.33 56.1519 100.484 56.0607 100.547C56.1576 100.496 56.4086 100.347 56.7908 100.124C57.2985 99.8332 58.0571 99.4104 58.9983 98.7935C60.8807 97.5939 63.5503 95.726 66.5164 93.007C67.2751 92.3444 67.9938 91.5789 68.781 90.8135C69.5282 90.0081 70.3325 89.1912 71.0855 88.2772C72.6256 86.4779 74.1714 84.4672 75.6089 82.2165C75.7059 82.0623 75.8028 81.9195 75.8941 81.7596C75.8941 81.7938 75.8884 81.8281 75.8884 81.8624C75.837 82.4393 75.9055 83.0105 76.0253 83.5189C76.2763 84.5414 76.6756 85.3583 76.9551 86.0552C77.5711 87.4261 77.6909 88.3344 77.7936 88.3344C77.8335 88.3344 77.8792 88.0887 77.8392 87.6603C77.7993 87.2262 77.6624 86.6093 77.4171 85.8838C77.1832 85.1584 76.841 84.3244 76.647 83.3875C76.5558 82.9134 76.5101 82.4279 76.5615 81.9252C76.6071 81.4168 76.7326 80.8913 76.8923 80.3486C76.9551 80.1601 77.0121 79.9716 77.0806 79.7888C77.9761 78.2351 78.8146 76.5842 79.5847 74.8648C79.8756 74.2136 80.1608 73.551 80.4289 72.877C81.256 70.8091 81.9747 68.6499 82.6821 66.4564C83.6175 63.5489 84.5188 60.7156 85.5627 58.0651C86.4925 55.7288 87.5363 53.5238 88.7627 51.5531C88.6943 51.9244 88.6486 52.2957 88.6372 52.6499C88.6258 53.2325 88.7 53.7866 88.8026 54.2893C89.0308 55.3003 89.3445 56.14 89.5556 56.8598C90.0176 58.2821 89.9891 59.2075 90.0975 59.219C90.1831 59.2361 90.3941 58.2479 90.0347 56.7341C89.7495 55.2432 88.8768 53.2439 89.5898 51.1075C89.818 50.3764 90.1317 49.6966 90.4854 49.0854C91.0501 48.3485 91.6319 47.6459 92.2309 46.989C94.832 44.7555 97.3019 42.4877 99.8459 40.437C100.371 40.0143 100.901 39.5973 101.432 39.1975C101.706 39.0033 101.974 38.809 102.242 38.6205C102.27 38.6034 102.304 38.5863 102.327 38.5634C104.073 37.381 105.59 36.4327 106.765 35.673C107.735 35.0561 108.482 34.5763 108.967 34.2449C109.623 34.005 110.159 33.6737 110.627 33.3595C110.855 33.2053 111.066 33.0625 111.26 32.9254C111.26 32.9254 111.271 32.9254 111.277 32.914C111.83 32.6055 112.378 32.3085 112.937 32.0286C113.93 31.5031 114.922 30.9947 115.897 30.4977C116.776 30.1321 117.546 29.8008 118.208 29.5038C120.096 28.6641 121.123 28.15 121.094 28.0814C121.083 28.0528 120.963 28.0757 120.735 28.1442C121.528 27.7672 122.315 27.4017 123.09 27.0361C123.638 26.7904 124.197 26.5334 124.762 26.2649C125.064 26.1164 125.372 25.9736 125.674 25.8251C125.8 25.7679 125.925 25.7051 126.051 25.648C126.336 25.5166 126.621 25.3852 126.901 25.2481C126.638 25.4823 126.387 25.7451 126.136 26.025C125.686 26.5391 125.298 27.0589 124.979 27.5559C124.146 28.5213 123.695 29.5095 123.564 30.0978C122.138 32.1086 121.014 34.2107 120.21 36.2385C119.217 38.7119 118.732 41.0825 118.51 43.059C118.293 45.0468 118.288 46.6577 118.31 47.7659C118.345 48.8741 118.424 49.4853 118.499 49.4853C118.578 49.4853 118.664 48.874 118.761 47.7773C118.875 46.6863 119.006 45.0982 119.326 43.1732C119.651 41.2482 120.198 38.9975 121.208 36.6441C122.201 34.2906 123.627 31.8344 125.458 29.5152C127.745 26.6019 130.335 24.2599 132.776 22.4206C134.168 21.7294 135.503 21.0439 136.786 20.3584C137.522 19.9586 138.241 19.5644 138.937 19.1646C139.159 19.1074 139.387 19.0446 139.621 18.9703C142.302 18.1592 145.913 16.5998 149.432 14.1263C152.182 12.2127 154.378 10.0135 155.952 8.03708L156.477 7.71148C156.477 7.71148 156.517 7.68292 156.534 7.67149C156.534 7.67149 156.574 7.64864 156.585 7.63151C156.637 7.60866 156.677 7.57438 156.717 7.5344C156.722 7.5344 156.734 7.52297 156.734 7.52297C157.065 7.24307 157.253 6.90034 157.355 6.58616C157.39 6.47192 157.413 6.35767 157.424 6.24343C157.498 6.18059 157.561 6.11776 157.629 6.04921C157.823 5.84357 158 5.60937 158.023 5.33518C158.04 5.07241 157.852 4.79822 157.441 4.67255C157.047 4.54117 156.454 4.59829 155.924 4.92389C155.576 5.14096 155.359 5.4837 155.268 5.81501C155.137 5.8607 155.011 5.92354 154.891 6.00922C154.823 6.05492 154.766 6.11204 154.709 6.16917C153.779 6.77467 152.621 7.54011 151.258 8.44265C150.881 8.59688 150.476 8.79681 150.077 9.06528C149.757 9.28235 149.467 9.53369 149.198 9.79645C145.086 12.4984 139.644 15.9943 133.495 19.5073C130.158 21.4152 126.952 23.1917 124.02 24.7854C121.088 26.362 118.424 27.7672 116.171 28.9154C115.053 29.4981 114.027 30.0007 113.131 30.4577C112.235 30.9147 111.454 31.2974 110.821 31.6116C110.747 31.6459 110.678 31.6801 110.615 31.7144H110.61C110.353 31.8058 110.091 31.8915 109.817 31.9772C106.314 33.0911 102.088 34.2792 97.2848 34.8162C94.889 35.0904 92.3506 35.1246 89.7096 35.0504C87.0686 34.9761 84.3192 34.8047 81.4785 34.7819C80.7712 34.7762 80.0695 34.7819 79.3736 34.799C79.0029 34.6905 78.6264 34.5591 78.2442 34.4106C76.4987 33.7594 74.6677 32.7483 73.0192 31.3602C71.3764 29.9722 70.0302 28.3499 68.6726 26.9904C67.3321 25.6194 65.946 24.517 64.6455 23.8429C63.3449 23.1632 62.1755 22.8775 61.3656 22.8147C60.9663 22.7747 60.6468 22.7861 60.4358 22.7976C60.2247 22.8147 60.1106 22.8147 60.1106 22.8147C60.1106 22.8147 60.2247 22.8147 60.4358 22.8261C60.6468 22.8318 60.9606 22.849 61.3541 22.9232L61.3256 22.9118ZM144.96 14.6119C144.96 14.6119 145.012 14.6062 145.034 14.6005C144.886 14.6919 144.732 14.7775 144.578 14.8632C144.704 14.7775 144.835 14.6919 144.96 14.6062V14.6119Z" fill="#8D957B"/>
<path d="M88.3007 54.3005C91.5007 61.0809 92.4761 71.9913 92.0255 78.4462C93.1835 68.3755 90.8847 58.9045 88.8882 54.1462C88.7855 54.1177 88.6829 54.0891 88.5802 54.0605C88.4832 54.1405 88.3919 54.2205 88.295 54.3005H88.3007Z" fill="#EFEFEF"/>
<path d="M84.3135 74.322C83.6118 76.1213 84.1195 79.3259 85.4429 81.6794C87.3538 82.4334 90.2344 83.2274 91.5749 81.4851C91.7631 80.4684 91.9171 79.4573 92.0312 78.4462C92.0768 77.7608 92.1111 77.0182 92.1225 76.2413C91.187 74.7333 89.9035 73.0938 88.4661 72.5283C86.7891 71.8714 85.1463 72.1799 84.3077 74.322H84.3135Z" fill="#D8E5DC"/>
<path d="M82.8931 66.7875C81.9405 69.221 81.3872 71.7686 81.3302 74.3106C81.4443 75.1389 81.604 75.9386 81.815 76.6869C81.9918 74.5448 82.3512 72.4084 82.722 71.4716C83.783 68.764 86.4867 65.6908 89.1734 66.7476C90.32 67.1988 91.3011 68.267 91.8658 69.4666C91.6376 66.9304 91.2611 64.3027 90.7135 61.7893C90.0633 61.0924 89.1392 60.5897 88.8026 60.4584C85.922 59.3273 83.9769 64.0171 82.8874 66.7875H82.8931Z" fill="#A3B7AB"/>
<path d="M81.3302 74.3164C81.3872 71.7744 81.9405 69.2267 82.8931 66.7933C83.9769 64.0171 85.9277 59.3331 88.8083 60.4641C89.1449 60.5955 90.069 61.0982 90.7192 61.7951C90.126 59.0646 89.3274 56.477 88.3064 54.312C85.6824 56.5341 83.8799 58.5162 82.4311 62.2235C81.3016 65.1025 80.7426 70.0836 81.3359 74.3221L81.3302 74.3164Z" fill="#8AA093"/>
<path d="M82.722 71.4714C82.3569 72.4083 81.9976 74.5504 81.815 76.6867C82.4824 79.0802 83.6404 80.9709 85.4429 81.6793C84.1138 79.3201 83.6061 76.1212 84.3135 74.3219C85.152 72.1798 86.7948 71.8713 88.4718 72.5282C89.9093 73.0937 91.187 74.7331 92.1282 76.2412C92.1681 74.1962 92.0882 71.877 91.8715 69.4607C91.3068 68.2611 90.3257 67.193 89.1791 66.7417C86.4924 65.6849 83.7887 68.7581 82.7277 71.4657L82.722 71.4714Z" fill="#BFD1C6"/>
<path d="M98.4826 80.2171C100.114 76.0471 94.7977 68.8839 91.9342 66.3306C92.248 68.8611 92.402 71.5801 92.3221 74.402C93.0694 74.0364 93.8965 73.9107 94.7464 74.2421C96.3036 74.8533 98.089 78.4234 96.7029 81.9536C96.5489 82.342 96.3664 82.7133 96.1439 83.0675C96.6972 82.8904 97.2619 82.5934 97.7753 82.125C97.9464 81.6394 98.1062 81.1482 98.283 80.6969C98.3685 80.4856 98.4427 80.3142 98.4826 80.2171Z" fill="#C3C9C4"/>
<path d="M94.7464 74.2475C93.8965 73.9105 93.0694 74.0361 92.3221 74.4074C92.2822 75.7384 92.1909 77.0922 92.0369 78.4517C91.9571 79.5656 91.8373 80.5481 91.6776 81.3536C91.6776 81.3478 91.689 81.3421 91.689 81.3364C92.1966 82.0447 92.6872 82.7474 93.5485 83.0844C94.1018 83.3014 95.1058 83.4043 96.1496 83.0787C96.3721 82.7245 96.5603 82.3532 96.7086 81.9648C98.0947 78.4289 96.3093 74.8644 94.7521 74.2532L94.7464 74.2475Z" fill="#D9DDDA"/>
<path d="M91.9285 66.3307C94.792 68.8841 100.114 76.0472 98.4769 80.2172C98.437 80.3143 98.3628 80.4857 98.2773 80.697C98.1004 81.1483 97.9464 81.6395 97.7696 82.1251C98.2944 81.6452 98.7621 80.9941 99.1044 80.1087C99.6178 78.8005 99.7547 77.4239 99.6976 76.1443C99.0245 74.0993 97.8837 72.6027 97.4216 71.3346C97.3361 71.0947 96.201 60.4356 93.2804 59.2932C93.1606 59.2475 93.0237 59.1903 92.8811 59.1332C92.2651 58.8933 91.341 58.6362 90.9759 59.1732C90.8333 59.2303 90.7135 59.3217 90.6223 59.4417C91.1528 61.4867 91.6148 63.8173 91.9228 66.3364L91.9285 66.3307Z" fill="#AAB2AC"/>
<path d="M90.628 59.4356C90.7192 59.3156 90.8447 59.2242 90.9816 59.1671C91.341 58.6358 92.2708 58.8872 92.8868 59.1271C93.0294 59.1842 93.1606 59.2413 93.2861 59.287C96.2009 60.4352 97.3361 71.0886 97.4274 71.3285C97.8894 72.5966 99.0302 74.0932 99.7033 76.1382C99.5721 73.2307 98.4427 70.8258 98.4427 70.8258C98.4484 70.8087 98.4541 70.7915 98.4598 70.7801C98.5283 70.603 96.1154 56.9222 90.1146 54.563C89.7153 54.403 89.2989 54.2717 88.8882 54.146C89.4757 55.5398 90.0804 57.3334 90.6223 59.4298L90.628 59.4356Z" fill="#8A9990"/>
<mask id="mask0_50_11850" style="mask-type:luminance" maskUnits="userSpaceOnUse" x="81" y="54" width="19" height="30">
<path d="M85.4429 81.6849C87.4108 82.456 90.3941 83.2786 91.6832 81.3364C92.1909 82.0447 92.6815 82.7473 93.5428 83.0844C94.6894 83.5356 97.7867 83.5014 99.1158 80.114C100.793 75.8298 98.4484 70.8373 98.4484 70.8373C98.4541 70.8201 98.4598 70.803 98.4655 70.7916C98.534 70.6145 96.1211 56.9336 90.1203 54.5745C89.6183 54.3802 89.105 54.2146 88.5859 54.0718C85.808 56.3967 83.9313 58.3788 82.4254 62.2232C80.3719 67.4613 80.1893 79.6284 85.4429 81.6963V81.6849Z" fill="white"/>
</mask>
<g mask="url(#mask0_50_11850)">
<path style="mix-blend-mode:multiply" d="M85.2835 70.7723C93.7002 70.2406 100.093 62.9767 99.5618 54.5481C99.0308 46.1195 91.7772 39.7178 83.3605 40.2496C74.9438 40.7813 68.5512 48.0452 69.0822 56.4738C69.6132 64.9024 76.8668 71.3041 85.2835 70.7723Z" fill="url(#paint0_radial_50_11850)"/>
<path style="mix-blend-mode:screen" d="M89.915 100.381C98.3484 100.381 105.185 93.535 105.185 85.0896C105.185 76.6442 98.3484 69.7979 89.915 69.7979C81.4815 69.7979 74.6449 76.6442 74.6449 85.0896C74.6449 93.535 81.4815 100.381 89.915 100.381Z" fill="url(#paint1_radial_50_11850)"/>
</g>
<path d="M36.4041 85.2383C36.0162 85.3468 35.6454 85.4439 35.2974 85.5182C32.896 89.4025 33.6889 92.927 31.0022 97.6282C33.8144 93.0984 34.6529 88.1001 36.4041 85.2383Z" fill="#B8C9AE"/>
<path d="M24.5565 89.968C23.0848 91.7045 23.5754 95.3089 24.5907 98.3079C24.9957 98.9819 25.3893 99.4732 25.6403 99.6845C26.1137 100.084 26.6442 100.353 27.1804 100.519C24.0488 96.9026 26.2449 93.0012 26.9351 92.19C28.0132 90.9162 30.1694 89.9908 31.5555 91.1675C32.2001 91.7159 32.5537 92.6127 32.7477 93.361C33.1584 91.8701 33.398 90.4706 33.7801 89.0883C30.4432 90.1964 26.8324 87.2775 24.5565 89.9622V89.968Z" fill="#607562"/>
<path d="M24.5964 98.3021C23.5754 95.3032 23.0848 91.6987 24.5622 89.9622C26.8382 87.2774 30.4489 90.1964 33.7858 89.0882C34.1167 87.9001 34.5559 86.7291 35.3032 85.5181C29.0571 86.929 28.3326 83.8615 24.6135 88.2428C21.7044 91.6759 23.2388 96.0458 24.5964 98.3021Z" fill="#617959"/>
<path d="M28.1444 96.4057C27.0948 97.6396 27.2374 99.4104 27.4884 100.604C27.8877 100.707 28.2756 100.758 28.6293 100.776C28.8403 100.53 29.0514 100.284 29.2624 100.039C29.9184 99.2619 30.4945 98.4564 31.0022 97.6339C31.0592 97.5368 31.1106 97.4454 31.1619 97.3483C31.0421 96.4971 30.66 95.8231 30.4375 95.6346C30.1181 95.3604 28.8917 95.526 28.1444 96.4057Z" fill="#92A27C"/>
<path d="M26.9408 92.1842C26.2506 92.9953 24.0545 96.8968 27.1861 100.513C27.2888 100.547 27.3858 100.575 27.4884 100.598C27.2374 99.4045 27.0948 97.6394 28.1444 96.3998C28.8917 95.5201 30.1181 95.3545 30.4375 95.6287C30.66 95.8172 31.0421 96.4912 31.1619 97.3423C31.9377 95.9257 32.4054 94.6119 32.7477 93.3609C32.5537 92.6126 32.2001 91.7158 31.5555 91.1674C30.1694 89.9907 28.0132 90.916 26.9351 92.1899L26.9408 92.1842Z" fill="#819B81"/>
<path d="M37.2711 100.542C37.5677 98.0396 37.1969 95.2863 35.8907 94.1781C34.9894 93.4126 34.1623 92.9842 33.2497 93.0699C32.645 94.5779 31.932 96.1317 31.0022 97.634C30.8539 97.8911 30.6942 98.1538 30.5288 98.4223C32.1373 97.3655 33.7687 98.1253 33.957 98.2909C34.0939 98.4109 34.2422 98.5137 34.3791 98.6279C35.0579 99.2049 35.4172 101.021 34.8069 102.678C35.5998 102.272 36.3299 101.707 36.906 101.027C37.0315 100.884 37.1513 100.719 37.2711 100.547V100.542Z" fill="#617959"/>
<path d="M34.3791 98.622C34.2479 98.5077 34.0996 98.4049 33.957 98.285C33.763 98.1193 32.1316 97.3539 30.5288 98.4163C30.0382 99.1818 29.4564 99.9815 28.7491 100.815C29.0856 101.495 29.5533 102.204 29.9469 102.535C31.2475 103.637 33.1584 103.517 34.8126 102.672C35.4172 101.015 35.0579 99.1989 34.3848 98.622H34.3791Z" fill="#819B81"/>
<path d="M37.0657 87.1521C36.6037 86.758 36.0333 86.7922 35.5028 87.0436C34.7727 88.763 34.1281 90.8708 33.2496 93.07C34.1623 92.99 34.9837 93.4127 35.8907 94.1782C37.1969 95.2864 37.5677 98.0397 37.2711 100.542C37.7902 99.7876 38.2807 98.7594 38.6971 97.5941C39.6783 93.7384 39.1592 88.9343 37.0657 87.1578V87.1521Z" fill="#526943"/>
<path d="M35.5028 87.0435C36.0333 86.7922 36.6037 86.7579 37.0658 87.1521C39.1592 88.9286 39.6783 93.7383 38.6971 97.5884C40.1802 93.4413 40.7335 87.5119 38.3663 85.4955C37.9271 85.1242 37.4365 84.9243 36.9517 85.0728C36.7634 85.1299 36.5866 85.1813 36.4098 85.2327C36.0846 85.764 35.788 86.3752 35.5085 87.0378L35.5028 87.0435Z" fill="#4C5948"/>
<mask id="mask1_50_11850" style="mask-type:luminance" maskUnits="userSpaceOnUse" x="22" y="85" width="18" height="19">
<path d="M25.646 99.6789C26.5929 100.484 27.7908 100.741 28.7262 100.776C29.0685 101.467 29.5419 102.192 29.9412 102.535C31.8635 104.169 35.1263 103.123 36.906 101.027C39.4444 98.0337 41.5549 88.2201 38.3663 85.5067C37.9271 85.1354 37.4365 84.9355 36.9517 85.084C29.154 87.4889 28.635 83.5131 24.6135 88.2543C20.8317 92.7156 24.5622 98.7649 25.646 99.6903V99.6789Z" fill="white"/>
</mask>
<g mask="url(#mask1_50_11850)">
<path style="mix-blend-mode:multiply" d="M45.8669 86.1222C46.4149 79.5041 41.5016 73.6942 34.8929 73.1454C28.2841 72.5966 22.4824 77.5168 21.9344 84.135C21.3864 90.7531 26.2997 96.563 32.9084 97.1118C39.5172 97.6605 45.3189 92.7403 45.8669 86.1222Z" fill="url(#paint2_radial_50_11850)"/>
</g>
<path d="M48.8962 74.6763C48.8962 75.3732 48.8791 76.0758 48.8449 76.7898C49.9058 76.5899 51.0296 77.401 51.6399 78.4007C52.2902 79.4631 53.4767 82.1879 53.8417 84.9526C53.7105 82.5135 53.1116 80.1201 51.8396 78.0465C51.4174 77.3553 50.0484 75.2989 48.8962 74.682V74.6763Z" fill="#617959"/>
<path d="M39.684 91.1223C37.0144 92.7617 36.3698 94.9266 37.2882 97.1716C38.874 99.268 40.859 100.765 43.0779 100.25C43.4658 99.4736 43.8993 98.4854 44.35 97.3315C44.9318 95.3151 45.4851 93.0359 45.9757 90.6482C44.2644 89.757 41.9257 89.7456 39.684 91.1223Z" fill="#D7E2D7"/>
<path d="M43.0779 100.251C43.192 100.222 43.3061 100.193 43.4202 100.159C43.4259 100.159 43.4316 100.171 43.443 100.171C43.751 99.308 44.0591 98.354 44.3557 97.3315C43.9051 98.4854 43.4715 99.4794 43.0836 100.251H43.0779Z" fill="#E7F2E7"/>
<path d="M48.1718 74.5108C47.8466 81.0457 46.2837 90.6537 44.35 97.3313C46.4548 91.9104 48.9076 82.805 48.8962 74.6765C48.6395 74.5394 48.3942 74.4708 48.1718 74.5108Z" fill="#E7F2E7"/>
<path d="M41.1442 86.0668C37.6932 88.186 36.1131 91.3906 35.9705 95.0922C36.0675 95.3092 36.1816 95.5206 36.3128 95.7262C36.6208 96.2232 36.9459 96.7087 37.2939 97.1657C36.3755 94.9208 37.0201 92.7558 39.6897 91.1164C41.9314 89.7398 44.2701 89.7512 45.9814 90.6423C46.3179 88.9972 46.6316 87.3121 46.9054 85.6269C45.7361 83.8961 42.8212 85.0386 41.1442 86.0668Z" fill="#BACCBA"/>
<path d="M47.9265 74.6025C44.7093 76.5789 37.8529 83.188 35.9135 89.283C38.1267 84.2733 42.5703 80.4404 43.751 79.7092C44.8063 79.058 45.9072 78.9781 46.5575 80.0463C47.1907 81.0802 46.894 82.6796 47.2363 83.4165C47.704 80.2119 48.0349 77.1159 48.1661 74.5054C48.0805 74.5225 48.0007 74.5511 47.9208 74.5968L47.9265 74.6025Z" fill="#819B81"/>
<path d="M43.7567 79.709C42.576 80.4345 38.1324 84.2731 35.9192 89.2828C35.2632 91.3449 35.172 93.3499 35.9705 95.0922C36.1131 91.3849 37.6932 88.186 41.1442 86.0668C42.8156 85.0386 45.7304 83.9018 46.9054 85.6269C47.0252 84.8843 47.1393 84.1475 47.2477 83.4163C46.8997 82.6794 47.2021 81.08 46.5689 80.0461C45.9186 78.9836 44.8177 79.0635 43.7624 79.709H43.7567Z" fill="#9DB29D"/>
<path d="M48.8449 76.7842C48.6737 80.4686 48.0577 84.2673 47.2477 87.7632C47.4645 87.5461 47.7097 87.3462 48.0006 87.1634C48.9818 86.5636 50.5789 86.2552 51.5087 87.7746C53.1173 90.3965 52.3758 94.0067 51.3262 96.7943C52.3472 94.7036 53.22 92.0588 53.625 89.2655C53.5964 89.0142 53.6535 88.7743 53.7219 88.5001C53.8531 87.3233 53.8988 86.1295 53.836 84.9413C53.471 82.1823 52.2845 79.4518 51.6342 78.3894C51.0182 77.3897 49.9001 76.5729 48.8392 76.7785L48.8449 76.7842Z" fill="#7E9675"/>
<path d="M49.3069 96.2518C48.4114 94.7895 46.375 94.6695 45.0573 95.4121C44.8234 96.0919 44.5839 96.7317 44.3557 97.3314C44.0648 98.3425 43.7624 99.285 43.4544 100.142C43.4544 100.153 43.4544 100.17 43.4544 100.182C44.7207 100.987 45.4965 101.85 46.8826 101.513C48.3885 100.205 50.2538 97.7999 49.3069 96.2518Z" fill="#BFCEBA"/>
<path d="M51.5087 87.7748C50.5789 86.2611 48.9818 86.5638 48.0006 87.1636C47.7097 87.3407 47.4588 87.5464 47.2477 87.7634C46.5974 90.5796 45.8217 93.1958 45.0516 95.4064C46.3693 94.6581 48.4056 94.7838 49.3012 96.2461C50.2538 97.7942 48.3828 100.199 46.8769 101.507C47.2705 101.41 47.7097 101.222 48.2288 100.902C49.2099 100.296 50.3394 98.8052 51.3205 96.7945C52.3643 94.0069 53.1059 90.3968 51.503 87.7748H51.5087Z" fill="#9CAF95"/>
<mask id="mask2_50_11850" style="mask-type:luminance" maskUnits="userSpaceOnUse" x="35" y="74" width="19" height="28">
<path d="M36.3071 95.7318C38.0868 98.6336 40.5738 101.078 43.4145 100.159C45.063 101.198 45.8787 102.358 48.2345 100.907C51.6342 98.8164 56.7566 86.0666 51.8396 78.0409C51.2863 77.1326 49.1016 73.8766 47.9265 74.6021C43.4829 77.3326 32.1088 88.8827 36.3071 95.7318Z" fill="white"/>
</mask>
<g mask="url(#mask2_50_11850)">
<path style="mix-blend-mode:screen" d="M37.5887 112.274C44.6311 109.858 48.3844 102.182 45.9719 95.13C43.5593 88.0775 35.8945 84.3189 28.8521 86.7349C21.8096 89.1508 18.0563 96.8265 20.4689 103.879C22.8814 110.931 30.5462 114.69 37.5887 112.274Z" fill="url(#paint3_radial_50_11850)"/>
<path style="mix-blend-mode:multiply" d="M52.4442 89.8082C59.8884 89.8082 65.9232 83.7649 65.9232 76.3101C65.9232 68.8553 59.8884 62.812 52.4442 62.812C45 62.812 38.9652 68.8553 38.9652 76.3101C38.9652 83.7649 45 89.8082 52.4442 89.8082Z" fill="url(#paint4_radial_50_11850)"/>
</g>
<path d="M74.2456 59.042C73.1618 64.6057 60.219 75.5676 57.7662 82.5308C63.208 72.0088 72.8138 65.7996 75.5062 58.8592C75.4149 58.545 75.3237 58.2194 75.2324 57.8767C75.067 57.7853 74.8959 57.6996 74.719 57.6196C74.5137 58.2937 74.2627 58.8649 74.2627 58.8649C74.2513 58.9277 74.2513 58.9791 74.2399 59.042H74.2456Z" fill="#E8EAE9"/>
<path d="M60.7153 64.6856C57.5095 64.0572 54.0357 65.6795 52.9291 71.3746C52.5469 73.3454 52.2332 75.556 52.1419 77.7838C52.6724 79.1433 53.6535 80.2515 54.9312 81.1312C54.0414 79.1033 53.8703 76.9213 54.281 74.8134C54.9027 71.6089 56.6767 70.6035 57.7263 70.8091C58.7473 71.0091 60.6639 73.4253 60.2589 78.0409C61.1887 76.7099 62.2782 75.3218 63.4419 73.9166C63.6415 73.2825 63.8069 72.6428 63.9324 71.9859C64.6454 68.3357 64.3831 65.3996 60.721 64.6856H60.7153Z" fill="#C4D6C9"/>
<path d="M57.7206 70.8093C56.671 70.6037 54.897 71.609 54.2753 74.8136C53.8646 76.9214 54.0357 79.1035 54.9255 81.1314C55.5986 81.5941 56.3516 81.9939 57.1616 82.3309C57.2757 82.5537 57.4012 82.7708 57.5323 82.9821C57.6065 82.8279 57.6864 82.6737 57.7662 82.5252C58.2454 81.1599 59.1352 79.6405 60.2532 78.041C60.6639 73.4255 58.7473 71.0092 57.7206 70.8093Z" fill="#DAE5DF"/>
<path d="M74.2684 58.8649C74.2684 58.8649 74.5194 58.2937 74.7247 57.6196C73.7493 57.1684 72.6541 56.8713 71.8384 56.7114C67.3492 55.8374 62.4379 57.0256 58.5192 60.6471C61.9132 59.0191 65.484 58.4822 67.5432 58.882C68.9863 59.1619 70.2641 59.4818 69.6708 62.515C69.2202 64.8285 68.4159 67.0791 67.6516 68.9185C70.8858 65.1027 73.755 61.5268 74.2399 59.0363C74.2513 58.9734 74.2513 58.9163 74.2627 58.8592L74.2684 58.8649Z" fill="#94B7A9"/>
<path d="M67.5489 58.8878C65.4897 58.4879 61.9189 59.0249 58.5249 60.6529C55.4674 63.4804 53.0203 67.7932 51.8567 73.7625C51.5601 75.2934 51.6856 76.6301 52.1362 77.7897C52.2275 75.5619 52.5355 73.3512 52.9234 71.3805C54.0357 65.6797 57.5095 64.0631 60.7096 64.6914C64.3717 65.4055 64.634 68.3416 63.921 71.9917C63.7955 72.6486 63.6301 73.2941 63.4305 73.9225C64.7995 72.2602 66.2654 70.5751 67.6573 68.9299C68.4216 67.0906 69.2259 64.84 69.6765 62.5265C70.2698 59.4876 68.9863 59.1734 67.5489 58.8935V58.8878Z" fill="#A1C0AC"/>
<path d="M73.6409 77.4983C74.6278 72.443 72.4545 69.4955 69.9332 69.0042C69.2544 68.8728 68.4102 69.0956 67.5546 69.4783C66.1342 71.0321 64.6569 72.6658 63.2194 74.4194C64.4743 73.4598 65.849 72.7286 66.9214 72.94C70.8687 73.7111 71.268 77.0299 70.5721 80.5772C70.4637 81.1371 70.3439 81.7026 70.2298 82.2624C70.1386 82.7308 69.4427 84.7358 67.4177 86.2838C68.4501 85.8325 69.5453 85.2327 70.6234 84.4902C72.1864 82.1881 73.2245 79.6119 73.6181 77.584C73.6238 77.5555 73.6295 77.5269 73.6352 77.4926L73.6409 77.4983Z" fill="#A1C0AC"/>
<path d="M75.5119 58.8594C74.8331 60.6016 73.7265 62.2924 72.3518 64.0233C72.9907 63.7833 73.6523 63.6577 74.1315 63.7548C77.2175 64.3603 76.0538 69.9012 75.5689 72.4032C75.3978 73.2943 75.2096 74.1797 75.0385 75.0708C74.5251 77.7156 74.1828 80.7088 74.1657 80.823C74.1258 81.023 74.0802 81.2229 74.0345 81.4171C75.3294 79.8577 76.339 78.0012 76.7611 75.8419C78.7918 65.4228 76.8638 63.4121 75.5119 58.8651V58.8594Z" fill="#7FA595"/>
<path d="M70.5721 80.577C71.2623 77.0297 70.863 73.7109 66.9214 72.9397C65.849 72.7284 64.4743 73.4653 63.2194 74.4192C61.2344 76.8469 59.3292 79.5088 57.7662 82.5306C57.6978 82.7191 57.6407 82.9019 57.5894 83.0847C58.9356 85.2439 60.9891 86.8834 63.0654 87.2947C63.8811 87.4546 65.5296 87.1176 67.4177 86.2893C69.4427 84.7356 70.1386 82.7306 70.2298 82.2679C70.3382 81.7023 70.458 81.1425 70.5721 80.5827V80.577Z" fill="#C4D6C9"/>
<path d="M75.0385 75.0708C75.2096 74.1796 75.3978 73.2942 75.5689 72.4031C76.0595 69.9012 77.2175 64.3603 74.1315 63.7548C73.6466 63.6634 72.9907 63.7833 72.3518 64.0232C70.96 65.7769 69.3001 67.5705 67.5546 69.4784C68.4159 69.0957 69.2601 68.8729 69.9332 69.0043C72.4488 69.4956 74.6221 72.4431 73.6409 77.4985C73.6352 77.527 73.6295 77.5556 73.6238 77.5899C73.2302 79.6177 72.1921 82.1939 70.6291 84.496C71.8441 83.6563 73.0249 82.6281 74.0345 81.4171C74.0802 81.2229 74.1258 81.0229 74.1657 80.823C74.1885 80.7088 74.5251 77.7155 75.0385 75.0708Z" fill="#94B7A9"/>
<mask id="mask3_50_11850" style="mask-type:luminance" maskUnits="userSpaceOnUse" x="51" y="56" width="27" height="32">
<path d="M75.2382 57.8767C74.1544 57.2712 72.8025 56.8999 71.8442 56.7171C63.8527 55.1576 54.5149 60.1444 51.8625 73.7682C51.0297 78.0467 53.4996 80.8171 57.1674 82.3423C58.4736 84.8671 60.761 86.8493 63.0769 87.3005C65.4955 87.7747 75.204 83.8846 76.7669 75.8474C78.9402 64.7028 76.5844 63.1776 75.2439 57.8881L75.2382 57.8767Z" fill="white"/>
</mask>
<g mask="url(#mask3_50_11850)">
<path style="mix-blend-mode:multiply" d="M92.663 67.9394C96.2508 59.7972 92.568 50.2841 84.4373 46.6912C76.3066 43.0984 66.8069 46.7864 63.2192 54.9286C59.6314 63.0708 63.3142 72.584 71.4449 76.1768C79.5756 79.7697 89.0752 76.0817 92.663 67.9394Z" fill="url(#paint5_radial_50_11850)"/>
<path style="mix-blend-mode:screen" d="M60.171 96.4728C67.5422 91.5013 69.4932 81.4871 64.5288 74.1055C59.5643 66.7238 49.5643 64.77 42.1931 69.7415C34.8219 74.713 32.8709 84.7272 37.8353 92.1088C42.7998 99.4905 52.7998 101.444 60.171 96.4728Z" fill="url(#paint6_radial_50_11850)"/>
</g>
<path d="M46.181 72.6373C46.3408 72.2488 46.4948 71.8718 46.683 71.5062C43.8708 70.5352 40.7906 68.4445 35.5998 69.6783C34.1509 70.0211 32.742 70.5523 31.3559 71.1407C31.3559 71.1407 31.3559 71.1407 31.3559 71.1464C31.3217 71.1749 31.2931 71.2092 31.2646 71.2378C32.7762 70.8493 34.2593 70.4095 35.788 70.0439C39.2847 69.2099 43.443 71.0721 46.181 72.6316V72.6373Z" fill="#E6EAD8"/>
<path d="M44.5439 64.8513C45.4395 68.6271 42.673 69.1697 41.4466 69.4611C41.3268 69.4896 41.2013 69.5125 41.0815 69.541C43.289 69.9809 45.0288 70.9348 46.6773 71.506C46.8884 71.0833 47.1336 70.6835 47.4531 70.3122C48.1376 68.6899 48.2231 66.8677 47.8181 65.154C46.6317 60.1615 40.6879 59.9101 39.5528 60.1843C39.5528 60.1843 39.1763 60.3329 38.72 60.5214C41.9485 60.4928 43.9849 62.4921 44.5439 64.857V64.8513Z" fill="#697552"/>
<path d="M31.6012 67.6274C31.2988 67.7017 31.0307 67.8102 30.7912 67.9473C30.62 68.6156 30.5915 69.244 30.7227 69.8038C30.8368 70.295 31.0764 70.7349 31.3559 71.1404C32.1887 70.7863 33.0329 70.455 33.8828 70.1694C33.9627 69.7866 33.9513 69.2268 33.8828 68.9184C33.649 67.9301 32.8047 67.3418 31.6069 67.6274H31.6012Z" fill="#C8CCB8"/>
<path d="M38.372 65.2166C38.6401 66.3419 38.0811 68.2041 36.4953 69.4951C38.2465 69.1924 39.7467 69.2723 41.0815 69.5408C41.207 69.518 41.3268 69.4894 41.4466 69.4608C42.673 69.1695 45.4395 68.6269 44.5439 64.851C43.9849 62.4862 41.9485 60.4869 38.72 60.5154C38.0069 60.8011 37.0886 61.1723 37.0886 61.1723C35.4629 61.9778 34.0711 63.0517 33.0044 64.2056C33.5406 63.9428 34.1224 63.7257 34.7556 63.5715C36.9688 63.046 38.0754 63.9828 38.372 65.2166Z" fill="#828C6C"/>
<path d="M30.7912 67.9472C31.0307 67.8101 31.2988 67.7016 31.6012 67.6273C32.799 67.3417 33.6433 67.9301 33.8771 68.9183C33.9513 69.2211 33.9627 69.7866 33.8771 70.1693C34.4418 69.9808 35.018 69.8151 35.5941 69.678C35.9021 69.6038 36.1987 69.5467 36.4953 69.4952C38.0754 68.21 38.6344 66.3421 38.372 65.2168C38.0811 63.9829 36.9688 63.0461 34.7556 63.5716C34.1224 63.7201 33.5406 63.9372 33.0044 64.2057C31.8693 65.4281 31.0992 66.7534 30.7855 67.9529L30.7912 67.9472Z" fill="#A3AA8D"/>
<path d="M39.3246 70.1466C39.3132 70.0895 39.2961 70.0381 39.279 69.981C38.0925 69.7925 36.906 69.7868 35.7937 70.0495C34.2707 70.4151 32.7819 70.855 31.2703 71.2434C30.6543 71.866 30.1865 72.8086 29.9641 73.7739C31.624 74.3109 33.7916 74.4994 36.5581 73.8368C38.6458 73.3398 39.8266 72.243 39.3303 70.1466H39.3246Z" fill="#C5CEA1"/>
<path d="M39.8209 78.0465C44.5154 76.9269 45.3368 74.6991 46.181 72.637C45.006 71.9687 43.5628 71.2432 42.0227 70.6948C42.7585 71.4203 43.3518 72.1286 43.4259 72.4314C43.9393 74.602 40.6366 76.4585 38.3264 77.0126C35.9706 77.5724 32.3712 77.441 30.0439 76.2186C31.2703 79.2461 37.2483 78.6577 39.8209 78.0465Z" fill="#809151"/>
<path d="M43.4202 72.4374C43.3461 72.1289 42.7528 71.4263 42.017 70.7008C41.1214 70.3867 40.1974 70.1296 39.2733 69.9868C39.2904 70.0439 39.3075 70.0953 39.3189 70.1525C39.8152 72.2432 38.6401 73.3456 36.5467 73.8426C33.7744 74.4995 31.6126 74.3167 29.9527 73.7798C29.7872 74.4881 29.7587 75.2078 29.9013 75.8133C29.9355 75.9618 29.9812 76.0989 30.0382 76.2303C32.3655 77.4527 35.9591 77.5841 38.3207 77.0243C40.6309 76.4759 43.9393 74.6138 43.4202 72.4431V72.4374Z" fill="#A2AF74"/>
<mask id="mask4_50_11850" style="mask-type:luminance" maskUnits="userSpaceOnUse" x="29" y="60" width="20" height="19">
<path d="M47.4589 70.3122C48.1434 68.6899 48.229 66.8677 47.824 65.154C46.6375 60.1615 40.6937 59.9101 39.5586 60.1843L37.0944 61.1726C32.7935 63.3089 30.1296 67.3018 30.7228 69.8095C30.8426 70.3008 31.0765 70.7463 31.3617 71.1519C30.2266 72.2029 29.5592 74.3508 29.9071 75.8074C30.7342 79.3033 37.14 78.6921 39.821 78.0523C46.3979 76.4871 45.3712 72.7399 47.4589 70.3122Z" fill="white"/>
</mask>
<g mask="url(#mask4_50_11850)">
<path style="mix-blend-mode:multiply" d="M77.6179 80.0567C78.1629 68.2198 69.0227 58.1817 57.2026 57.6359C45.3825 57.0902 35.3586 66.2434 34.8136 78.0802C34.2686 89.917 43.4088 99.9551 55.2289 100.501C67.049 101.047 77.0729 91.8935 77.6179 80.0567Z" fill="url(#paint7_radial_50_11850)"/>
</g>
<path d="M18.9265 91.4474C16.4394 91.5903 10.895 96.5828 7.72346 97.234C12.6291 95.486 15.9033 91.6702 19.0862 90.9048C19.2174 90.9619 19.3543 91.0247 19.4969 91.0819C19.5254 91.1618 19.5539 91.2418 19.5767 91.3218C19.2687 91.3732 19.0063 91.4474 19.0063 91.4474C18.9778 91.4474 18.955 91.4474 18.9265 91.4474Z" fill="#E8EAE9"/>
<path d="M15.6637 97.0109C15.7435 98.4447 14.8309 99.8671 12.2868 100.01C11.4027 100.061 10.4272 100.061 9.45183 99.9699C8.89282 99.6557 8.46501 99.1645 8.16269 98.5532C8.98979 99.0616 9.93098 99.2673 10.8722 99.2159C12.3039 99.1359 12.8458 98.4219 12.823 97.9535C12.7945 97.4965 11.859 96.514 9.82831 96.4169C10.4615 96.0913 11.1346 95.6971 11.8134 95.2744C12.0986 95.223 12.3895 95.1944 12.6861 95.1773C14.3175 95.0859 15.5781 95.3715 15.6694 97.0166L15.6637 97.0109Z" fill="#C4D6C9"/>
<path d="M12.823 97.9536C12.8515 98.4277 12.3039 99.136 10.8722 99.216C9.93098 99.2674 8.98979 99.0618 8.16268 98.5534C8.00296 98.2335 7.87177 97.8793 7.7748 97.508C7.68353 97.4452 7.59797 97.3767 7.51241 97.3081C7.58656 97.2853 7.65501 97.2567 7.72346 97.2339C8.34522 97.1082 9.05824 96.8111 9.8226 96.417C11.8533 96.5141 12.7945 97.4966 12.8173 97.9536H12.823Z" fill="#DAE5DF"/>
<path d="M19.0063 91.4474C19.0063 91.4474 19.2687 91.3732 19.5767 91.3218C19.7136 91.773 19.7764 92.27 19.7992 92.6356C19.9133 94.6463 19.1033 96.7199 17.2894 98.2108C18.202 96.8284 18.647 95.3032 18.5956 94.3778C18.5614 93.7324 18.4987 93.1554 17.1411 93.2297C16.1086 93.2868 15.0819 93.5039 14.2319 93.7266C16.0858 92.5442 17.8142 91.5046 18.9265 91.4417C18.955 91.4417 18.9778 91.4417 19.0063 91.4417V91.4474Z" fill="#94B7A9"/>
<path d="M18.5956 94.3776C18.647 95.303 18.202 96.8282 17.2894 98.2106C15.8747 99.3759 13.8555 100.187 11.1859 100.336C10.5014 100.376 9.92527 100.238 9.45183 99.9699C10.4272 100.061 11.4084 100.061 12.2868 100.01C14.8309 99.8671 15.7435 98.4448 15.6637 97.011C15.5724 95.3716 14.3118 95.0802 12.6804 95.1716C12.3895 95.1888 12.0986 95.223 11.8077 95.2687C12.6119 94.7718 13.4333 94.2348 14.2319 93.7207C15.0761 93.4979 16.1029 93.2809 17.1411 93.2237C18.4987 93.1495 18.5614 93.7264 18.5956 94.3719V94.3776Z" fill="#A1C0AC"/>
<path d="M10.8608 90.6078C13.1196 90.4822 14.2719 91.6018 14.3346 92.7328C14.3517 93.0355 14.2034 93.3897 13.9866 93.7439C13.228 94.2694 12.4294 94.8178 11.5795 95.3376C12.07 94.8463 12.475 94.2922 12.4465 93.8124C12.3495 92.0473 10.9235 91.6703 9.34344 91.7617C9.09246 91.7731 8.84148 91.796 8.59049 91.8074C8.38514 91.8188 7.46677 92.0016 6.67389 92.7956C6.93058 92.3729 7.25572 91.9274 7.6436 91.5047C8.7388 90.962 9.91957 90.6592 10.8265 90.6078C10.8379 90.6078 10.8551 90.6078 10.8665 90.6078H10.8608Z" fill="#A1C0AC"/>
<path d="M19.0862 90.9045C18.2876 91.093 17.4833 91.4815 16.6505 91.9727C16.7931 91.71 16.8844 91.4301 16.873 91.213C16.7931 89.8306 14.3118 90.0077 13.1938 90.0705C12.7945 90.0934 12.4009 90.122 12.0016 90.1448C10.8208 90.2134 9.49746 90.1791 9.44612 90.1848C9.35485 90.1848 9.26929 90.1962 9.17802 90.2076C9.93098 89.7335 10.8037 89.4022 11.7677 89.3508C16.4223 89.088 17.181 90.0477 19.0805 90.9102L19.0862 90.9045Z" fill="#7FA595"/>
<path d="M9.33775 91.7616C10.9235 91.6703 12.3438 92.0473 12.4408 93.8123C12.4693 94.2922 12.0643 94.8463 11.5738 95.3375C10.3987 96.0573 9.12669 96.7313 7.71776 97.234C7.6322 97.2511 7.54663 97.2683 7.46678 97.2797C6.60544 96.5657 6.01791 95.566 5.96087 94.6406C5.93806 94.275 6.18904 93.5782 6.65678 92.8013C7.45537 92.0073 8.36804 91.8245 8.57339 91.8131C8.82437 91.8016 9.07535 91.7788 9.32634 91.7674L9.33775 91.7616Z" fill="#C4D6C9"/>
<path d="M12.0016 90.1392C12.4009 90.1163 12.7945 90.0878 13.1938 90.0649C14.3118 90.0021 16.7931 89.825 16.873 91.2074C16.8844 91.4244 16.7931 91.7043 16.6505 91.9671C15.8063 92.4698 14.9221 93.0867 13.9924 93.7322C14.2091 93.378 14.3574 93.0239 14.3403 92.7211C14.2776 91.5958 13.1253 90.4705 10.8665 90.5962C10.8551 90.5962 10.8379 90.5962 10.8265 90.5962C9.91957 90.6476 8.7388 90.9446 7.6436 91.493C8.08282 91.0132 8.6019 90.5562 9.18373 90.1906C9.26929 90.1792 9.36056 90.1735 9.45182 90.1678C9.50316 90.1678 10.8265 90.1963 12.0073 90.1278L12.0016 90.1392Z" fill="#94B7A9"/>
<mask id="mask5_50_11850" style="mask-type:luminance" maskUnits="userSpaceOnUse" x="5" y="89" width="15" height="12">
<path d="M19.4969 91.0817C19.6965 91.5901 19.7764 92.2013 19.7992 92.6355C19.9988 96.2171 17.2722 99.9929 11.1859 100.336C9.27499 100.444 8.21401 99.1989 7.77479 97.508C6.75375 96.7883 6.02932 95.6687 5.97227 94.6348C5.90953 93.5494 8.18549 89.5509 11.7734 89.3452C16.7532 89.0653 17.278 90.1792 19.4969 91.0817Z" fill="white"/>
</mask>
<g mask="url(#mask5_50_11850)">
<path style="mix-blend-mode:multiply" d="M23.3858 94.4108C25.9901 91.4908 25.7376 87.0095 22.8217 84.4015C19.9059 81.7934 15.4309 82.0463 12.8266 84.9663C10.2223 87.8863 10.4748 92.3676 13.3906 94.9756C16.3065 97.5837 20.7815 97.3308 23.3858 94.4108Z" fill="url(#paint8_radial_50_11850)"/>
<path style="mix-blend-mode:screen" d="M13.8186 102.245C15.0209 98.5196 12.9798 94.5236 9.25967 93.3196C5.53956 92.1156 1.54918 94.1596 0.3469 97.885C-0.855378 101.61 1.18573 105.606 4.90583 106.81C8.62594 108.014 12.6163 105.97 13.8186 102.245Z" fill="url(#paint9_radial_50_11850)"/>
</g>
<path d="M75.3978 82.6447C75.7401 82.4962 76.0766 82.3476 76.4018 82.1763C77.3144 84.6782 79.231 87.403 78.21 92.0756C77.9248 93.378 77.4798 94.6519 76.9722 95.8971C76.9722 95.8971 76.9722 95.8971 76.9665 95.8971C76.9379 95.9257 76.9094 95.9542 76.8866 95.9828C77.206 94.6233 77.5768 93.2866 77.8791 91.91C78.5693 88.7682 76.841 85.0667 75.4035 82.6447H75.3978Z" fill="#E6EAD8"/>
<path d="M82.3797 83.9872C78.9972 83.2446 78.5522 85.7295 78.3127 86.8319C78.2898 86.9405 78.267 87.049 78.2499 87.1633C77.8221 85.1925 76.938 83.6502 76.4018 82.1822C76.7725 81.9879 77.1319 81.7595 77.457 81.4681C78.8945 80.8284 80.5202 80.7255 82.0546 81.0626C86.5324 82.0451 86.8461 87.3689 86.6236 88.3857C86.6236 88.3857 86.4925 88.7227 86.3384 89.1397C86.3099 86.2436 84.4903 84.4556 82.374 83.9929L82.3797 83.9872Z" fill="#697552"/>
<path d="M80.1038 95.629C80.0467 95.9032 79.9497 96.1431 79.83 96.3602C79.2367 96.5259 78.672 96.5601 78.1757 96.4516C77.7365 96.3545 77.3372 96.1489 76.9722 95.9032C77.2745 95.1549 77.5597 94.3952 77.7993 93.624C78.1415 93.5441 78.6435 93.5498 78.9173 93.6069C79.8014 93.8011 80.3433 94.5494 80.1095 95.6233L80.1038 95.629Z" fill="#C8CCB8"/>
<path d="M82.1516 89.5225C81.1419 89.2997 79.4877 89.8309 78.3583 91.2704C78.6036 89.6938 78.5066 88.3515 78.2442 87.1633C78.2613 87.0548 78.2841 86.9405 78.3069 86.832C78.5465 85.7295 78.9915 83.2447 82.374 83.9873C84.4903 84.45 86.3099 86.2436 86.3384 89.134C86.0932 89.7795 85.7794 90.6021 85.7794 90.6021C85.0835 92.0701 84.148 93.3325 83.1327 94.3093C83.3609 93.8295 83.5434 93.304 83.6689 92.7328C84.1024 90.7449 83.2468 89.7624 82.1402 89.5225H82.1516Z" fill="#828C6C"/>
<path d="M79.83 96.3599C79.9498 96.1428 80.041 95.9029 80.1038 95.6287C80.3376 94.5491 79.8014 93.8065 78.9116 93.6123C78.6378 93.5495 78.1358 93.5495 77.7936 93.6294C77.9533 93.121 78.0902 92.6069 78.2043 92.0871C78.267 91.8129 78.3127 91.5387 78.3526 91.276C79.4763 89.8365 81.1305 89.311 82.1459 89.528C83.2525 89.7737 84.1081 90.7505 83.6746 92.7383C83.5491 93.3095 83.3666 93.8351 83.1384 94.3149C82.0603 95.3488 80.8966 96.0629 79.83 96.3599Z" fill="#A3AA8D"/>
<path d="M77.7308 88.7514C77.7822 88.7628 77.8278 88.7799 77.8791 88.7914C78.0617 89.8481 78.0902 90.9106 77.8734 91.916C77.5711 93.2869 77.2003 94.6236 76.8809 95.9888C76.339 96.5543 75.5005 96.9885 74.6392 97.1998C74.1315 95.7203 73.9319 93.7839 74.4795 91.2933C74.8902 89.414 75.8542 88.3401 77.7308 88.7514Z" fill="#C5CEA1"/>
<path d="M70.6691 88.4312C71.5931 84.2098 73.5668 83.4387 75.4035 82.6504C76.0196 83.6957 76.6927 84.9753 77.2003 86.3462C76.5387 85.695 75.8998 85.1809 75.626 85.1181C73.6809 84.6897 72.0723 87.6829 71.616 89.7622C71.1539 91.8814 71.325 95.1031 72.4545 97.1653C69.7336 96.1142 70.1614 90.7504 70.6691 88.4369V88.4312Z" fill="#809151"/>
<path d="M75.626 85.1127C75.8998 85.1755 76.5444 85.6896 77.2003 86.3408C77.497 87.1348 77.7365 87.9631 77.8848 88.7856C77.8335 88.7742 77.7879 88.7571 77.7365 88.7457C75.8599 88.3344 74.8958 89.4026 74.4851 91.2876C73.9375 93.7782 74.1372 95.7146 74.6449 97.1941C74.0117 97.354 73.3728 97.394 72.8309 97.2741C72.6997 97.2455 72.5742 97.2055 72.4602 97.1598C71.3307 95.0977 71.1539 91.876 71.6216 89.7567C72.078 87.6775 73.6866 84.6899 75.6317 85.1127H75.626Z" fill="#A2AF74"/>
<mask id="mask6_50_11850" style="mask-type:luminance" maskUnits="userSpaceOnUse" x="70" y="80" width="17" height="18">
<path d="M77.457 81.4681C78.8945 80.8284 80.5202 80.7255 82.0546 81.0626C86.5324 82.0451 86.8461 87.3689 86.6236 88.3857L85.7794 90.6078C83.9427 94.4978 80.4118 96.9427 78.17 96.4514C77.7308 96.3543 77.3258 96.1486 76.9608 95.903C76.0424 96.9369 74.1315 97.5653 72.8252 97.2797C69.6879 96.5942 70.1386 90.8477 70.6634 88.4314C71.9582 82.5135 75.318 83.376 77.457 81.4681Z" fill="white"/>
</mask>
<g mask="url(#mask6_50_11850)">
<path style="mix-blend-mode:multiply" d="M88.668 74.2713C88.9451 63.6749 80.5917 54.8598 70.0102 54.5823C59.4287 54.3048 50.6261 62.67 50.349 73.2665C50.0719 83.863 58.4253 92.6781 69.0068 92.9555C79.5883 93.233 88.3909 84.8678 88.668 74.2713Z" fill="url(#paint10_radial_50_11850)"/>
</g>
<path d="M62.0786 96.2001C61.1203 98.5022 54.5719 102.072 52.8949 104.848C56.1748 100.799 60.8636 98.982 62.6376 96.2287C62.6262 96.0859 62.6148 95.9374 62.6091 95.7831C62.5463 95.7317 62.4779 95.6746 62.4094 95.6289C62.2611 95.9031 62.1014 96.1259 62.1014 96.1259C62.09 96.1487 62.09 96.1773 62.0786 96.2001Z" fill="#E8EAE9"/>
<path d="M55.7469 97.4282C54.4236 96.8741 52.7808 97.2625 51.7996 99.616C51.4574 100.433 51.1266 101.358 50.8927 102.306C51.0011 102.941 51.3262 103.506 51.7939 103.997C51.5886 103.043 51.7084 102.089 52.0734 101.215C52.6268 99.8902 53.4767 99.616 53.9159 99.7988C54.338 99.9758 54.9484 101.187 54.3665 103.14C54.8856 102.649 55.4788 102.147 56.1006 101.644C56.2432 101.387 56.3687 101.124 56.4828 100.856C57.1159 99.3475 57.2643 98.0622 55.7469 97.4282Z" fill="#C4D6C9"/>
<path d="M53.9159 99.7989C53.4824 99.6161 52.6268 99.896 52.0734 101.216C51.7084 102.084 51.5886 103.043 51.7939 103.997C52.0449 104.254 52.3301 104.494 52.6496 104.711C52.6781 104.82 52.7123 104.923 52.7522 105.026C52.7979 104.969 52.8435 104.906 52.8949 104.849C53.2257 104.306 53.7391 103.729 54.3608 103.141C54.9484 101.187 54.3323 99.976 53.9102 99.7989H53.9159Z" fill="#DAE5DF"/>
<path d="M62.1014 96.1259C62.1014 96.1259 62.2611 95.9031 62.4094 95.6289C62.0272 95.349 61.5823 95.1205 61.2458 94.9835C59.3919 94.2066 57.1673 94.2808 55.1594 95.4918C56.768 95.092 58.3537 95.1777 59.2037 95.5375C59.7969 95.7889 60.3217 96.0345 59.7969 97.2912C59.3976 98.2509 58.85 99.1477 58.3595 99.8674C60.0935 98.5136 61.6451 97.2284 62.0729 96.1945C62.0843 96.1659 62.09 96.143 62.0957 96.1202L62.1014 96.1259Z" fill="#94B7A9"/>
<path d="M59.2037 95.5374C58.3537 95.1833 56.768 95.0919 55.1594 95.4917C53.5908 96.44 52.1533 98.0794 51.1265 100.547C50.8642 101.181 50.7957 101.769 50.8927 102.306C51.1266 101.353 51.4574 100.433 51.7996 99.616C52.7865 97.2625 54.4236 96.8741 55.7469 97.4282C57.2585 98.0622 57.1102 99.3475 56.4828 100.856C56.3687 101.13 56.2432 101.392 56.1006 101.644C56.8364 101.05 57.6179 100.456 58.3652 99.8673C58.8614 99.1419 59.4033 98.245 59.8026 97.2911C60.3274 96.0344 59.8026 95.783 59.2094 95.5374H59.2037Z" fill="#A1C0AC"/>
<path d="M60.1791 104.094C61.0518 102.004 60.3787 100.541 59.3349 100.107C59.0554 99.9872 58.6732 100.01 58.2682 100.101C57.5209 100.644 56.7395 101.215 55.9637 101.844C56.5912 101.541 57.2471 101.347 57.6921 101.535C59.3235 102.221 59.198 103.683 58.5876 105.151C58.4906 105.385 58.388 105.614 58.291 105.848C58.2111 106.042 57.732 106.842 56.7224 107.333C57.2072 107.23 57.732 107.07 58.2625 106.848C59.1409 105.996 59.814 104.98 60.1677 104.14C60.1677 104.129 60.1791 104.117 60.1848 104.106L60.1791 104.094Z" fill="#A1C0AC"/>
<path d="M62.6376 96.2344C62.1927 96.9256 61.5652 97.5539 60.818 98.1765C61.1146 98.1308 61.4112 98.1366 61.6108 98.2165C62.8886 98.7535 61.896 101.033 61.4625 102.072C61.3085 102.444 61.1488 102.803 60.9948 103.175C60.5384 104.266 60.1277 105.528 60.1049 105.574C60.0707 105.654 60.0365 105.74 59.9966 105.82C60.6925 105.265 61.2914 104.551 61.6679 103.66C63.4647 99.3533 62.8144 98.3136 62.6376 96.2344Z" fill="#7FA595"/>
<path d="M58.5819 105.151C59.1923 103.683 59.3178 102.221 57.6864 101.535C57.2414 101.347 56.5855 101.541 55.958 101.844C54.8856 102.712 53.8303 103.689 52.8891 104.854C52.8435 104.928 52.8036 105.003 52.7637 105.077C53.1515 106.128 53.8931 107.019 54.7487 107.379C55.0853 107.522 55.8268 107.522 56.7109 107.333C57.7206 106.848 58.1997 106.042 58.2796 105.848C58.3766 105.614 58.4792 105.385 58.5762 105.151H58.5819Z" fill="#C4D6C9"/>
<path d="M60.9948 103.175C61.1488 102.809 61.3085 102.443 61.4625 102.072C61.896 101.038 62.8886 98.7534 61.6108 98.2164C61.4112 98.1307 61.1146 98.125 60.818 98.1764C60.065 98.8105 59.1866 99.4331 58.2682 100.101C58.6732 100.016 59.0554 99.9929 59.3349 100.107C60.373 100.541 61.0518 102.004 60.1791 104.094C60.1791 104.106 60.1677 104.117 60.162 104.129C59.814 104.968 59.1352 105.985 58.2568 106.836C58.8557 106.585 59.4547 106.248 59.9966 105.814C60.0365 105.734 60.0707 105.654 60.1049 105.568C60.1277 105.522 60.5384 104.26 60.9948 103.169V103.175Z" fill="#94B7A9"/>
<mask id="mask7_50_11850" style="mask-type:luminance" maskUnits="userSpaceOnUse" x="50" y="94" width="13" height="14">
<path d="M62.6089 95.7831C62.1925 95.4289 61.6449 95.1491 61.2513 94.9777C57.9486 93.5953 53.4823 94.9091 51.1321 100.541C50.3963 102.307 51.212 103.723 52.6552 104.706C52.9917 105.911 53.8017 106.968 54.76 107.368C55.7582 107.785 60.2873 106.973 61.6735 103.655C63.5958 99.0505 62.7173 98.1823 62.6089 95.7831Z" fill="white"/>
</mask>
<g mask="url(#mask7_50_11850)">
<path style="mix-blend-mode:multiply" d="M66.1381 104.127C69.7552 102.642 71.4849 98.5009 70.0014 94.8786C68.5179 91.2563 64.383 89.5242 60.7658 91.0098C57.1486 92.4954 55.419 96.6361 56.9025 100.258C58.386 103.881 62.5209 105.613 66.1381 104.127Z" fill="url(#paint11_radial_50_11850)"/>
<path style="mix-blend-mode:screen" d="M54.6214 109.894C57.5845 107.34 57.919 102.864 55.3685 99.8971C52.8181 96.9298 48.3484 96.5948 45.3854 99.1489C42.4223 101.703 42.0878 106.179 44.6382 109.146C47.1887 112.113 51.6583 112.448 54.6214 109.894Z" fill="url(#paint12_radial_50_11850)"/>
</g>
<path d="M106.286 34.7533C105.59 34.7704 104.888 34.7647 104.175 34.7476C104.398 35.8043 103.611 36.9468 102.624 37.5808C101.58 38.2549 98.8819 39.5002 96.1325 39.9229C98.5682 39.7401 100.941 39.0889 102.983 37.7693C103.662 37.3295 105.693 35.9129 106.28 34.7533H106.286Z" fill="#617959"/>
<path d="M89.6697 25.8759C87.9755 23.2369 85.8022 22.6371 83.5776 23.6082C81.5184 25.2419 80.0638 27.264 80.6286 29.469C81.41 29.846 82.4082 30.2572 83.5719 30.68C85.5969 31.2226 87.89 31.7253 90.28 32.1651C91.1299 30.4343 91.0957 28.0923 89.6697 25.8759Z" fill="#D7E2D7"/>
<path d="M80.6285 29.4692C80.6571 29.5835 80.6913 29.692 80.7312 29.8063C80.7312 29.812 80.7198 29.8177 80.7198 29.8291C81.5868 30.1204 82.5451 30.406 83.5776 30.6802C82.4139 30.2575 81.4157 29.8405 80.6342 29.4692H80.6285Z" fill="#E7F2E7"/>
<path d="M106.434 34.0219C99.9029 33.8333 90.2743 32.4738 83.5719 30.6802C89.0308 32.6738 98.1746 34.9358 106.286 34.753C106.417 34.4903 106.48 34.2446 106.434 34.0219Z" fill="#E7F2E7"/>
<path d="M94.7464 27.23C92.556 23.8197 89.3274 22.306 85.6254 22.2432C85.4143 22.346 85.2033 22.4659 84.9979 22.5973C84.5074 22.9115 84.0282 23.2542 83.5833 23.6084C85.8079 22.6373 87.9812 23.2371 89.6754 25.8762C91.1014 28.0925 91.1356 30.4346 90.2857 32.1654C91.9342 32.4681 93.6284 32.748 95.3168 32.9879C97.0166 31.7769 95.8188 28.8808 94.7578 27.23H94.7464Z" fill="#BACCBA"/>
<path d="M106.337 33.7818C104.295 30.6 97.5528 23.8767 91.4265 22.0659C96.4747 24.1737 100.399 28.5436 101.146 29.7146C101.82 30.76 101.922 31.8567 100.873 32.5308C99.8516 33.1877 98.2544 32.9192 97.5243 33.2848C100.736 33.6847 103.833 33.9474 106.44 34.0217C106.423 33.936 106.394 33.856 106.343 33.7818H106.337Z" fill="#819B81"/>
<path d="M101.146 29.7147C100.394 28.5437 96.469 24.1795 91.4265 22.066C89.3559 21.4547 87.3538 21.4033 85.6254 22.243C89.3274 22.3059 92.5617 23.8253 94.7464 27.2298C95.8074 28.8807 97.0052 31.7768 95.3054 32.9878C96.0469 33.0963 96.7885 33.1934 97.5186 33.2848C98.2487 32.925 99.8516 33.1877 100.867 32.5308C101.917 31.8568 101.814 30.76 101.141 29.7147H101.146Z" fill="#9DB29D"/>
<path d="M104.175 34.7471C100.496 34.65 96.6915 34.1187 93.1777 33.3818C93.4002 33.5932 93.6055 33.8388 93.7938 34.1244C94.4155 35.0898 94.7521 36.6835 93.2576 37.6489C90.6736 39.3112 87.0514 38.6485 84.2507 37.6603C86.3555 38.6428 89.0194 39.4597 91.8144 39.8024C92.0597 39.7681 92.3107 39.8196 92.5788 39.8824C93.7596 39.9909 94.9517 40.0081 96.1325 39.9224C98.8819 39.4997 101.58 38.2544 102.624 37.5804C103.611 36.9463 104.398 35.8038 104.175 34.7471Z" fill="#7E9675"/>
<path d="M84.7527 35.6211C86.1958 34.69 86.2757 32.6508 85.4999 31.3484C84.8154 31.1256 84.1708 30.9028 83.5719 30.6857C82.5566 30.4116 81.6097 30.1317 80.7483 29.8403C80.7369 29.8403 80.7198 29.8403 80.7084 29.846C79.9326 31.1256 79.0884 31.9253 79.4535 33.3077C80.794 34.7872 83.2296 36.6037 84.7584 35.6211H84.7527Z" fill="#BFCEBA"/>
<path d="M93.2576 37.6488C94.7521 36.6834 94.4155 35.0954 93.7938 34.1243C93.6055 33.833 93.4002 33.5931 93.1777 33.3817C90.3542 32.7876 87.7245 32.0679 85.4999 31.3481C86.2757 32.6563 86.1958 34.6955 84.7527 35.6209C83.2239 36.6034 80.7883 34.7869 79.4478 33.3075C79.5504 33.7016 79.7501 34.1357 80.0809 34.6498C80.7027 35.6209 82.22 36.7177 84.2507 37.6602C87.0514 38.6484 90.6793 39.3168 93.2576 37.6488Z" fill="#9CAF95"/>
<mask id="mask8_50_11850" style="mask-type:luminance" maskUnits="userSpaceOnUse" x="79" y="21" width="28" height="19">
<path d="M84.9922 22.5974C82.1344 24.4368 79.7444 26.9844 80.7255 29.8063C79.7216 31.48 78.5864 32.3197 80.0809 34.6446C82.2428 38.0034 95.0772 42.8645 102.983 37.7692C103.873 37.1923 107.079 34.9416 106.337 33.782C103.519 29.395 91.746 18.2504 84.9922 22.5974Z" fill="white"/>
</mask>
<g mask="url(#mask8_50_11850)">
<path style="mix-blend-mode:screen" d="M89.6748 30.0511C95.447 25.3435 96.3154 16.8414 91.6144 11.061C86.9135 5.28071 78.4234 4.4111 72.6512 9.1187C66.8791 13.8263 66.0107 22.3285 70.7116 28.1088C75.4126 33.8891 83.9027 34.7587 89.6748 30.0511Z" fill="url(#paint13_radial_50_11850)"/>
<path style="mix-blend-mode:multiply" d="M112.855 49.1013C118.791 44.6024 119.961 36.1366 115.468 30.1924C110.976 24.2481 102.522 23.0764 96.5862 27.5753C90.6504 32.0741 89.4803 40.54 93.9728 46.4842C98.4653 52.4284 106.919 53.6002 112.855 49.1013Z" fill="url(#paint14_radial_50_11850)"/>
</g>
<path d="M53.876 37.5292C50.2082 37.038 40.7164 42.7788 35.8964 42.8473C43.5457 41.6706 49.3982 37.0094 54.2524 36.7866C54.4293 36.9123 54.6118 37.038 54.8057 37.1636C54.8286 37.2836 54.8457 37.4093 54.8571 37.5349C54.395 37.5235 53.99 37.5578 53.99 37.5578C53.9501 37.5578 53.9159 37.5406 53.876 37.5349V37.5292Z" fill="#E8EAE9"/>
<path d="M47.5557 44.7495C47.2762 46.8688 45.5479 48.6853 41.7888 48.1826C40.4883 48.0112 39.0565 47.7427 37.659 47.3314C36.9289 46.7202 36.444 45.8748 36.1702 44.9037C37.2369 45.8805 38.5545 46.4403 39.9464 46.6288C42.0569 46.9087 43.0551 46.0233 43.1464 45.3264C43.2377 44.6524 42.1425 42.9559 39.1991 42.2418C40.2202 41.9448 41.304 41.5563 42.4163 41.1279C42.8498 41.1394 43.2833 41.1679 43.7168 41.225C46.124 41.5449 47.8866 42.3218 47.5614 44.7438L47.5557 44.7495Z" fill="#C4D6C9"/>
<path d="M43.1407 45.3268C43.0494 46.0237 42.0569 46.9091 39.9407 46.6292C38.5545 46.4464 37.2369 45.8809 36.1645 44.9041C36.0162 44.39 35.9306 43.8416 35.8907 43.2647C35.7766 43.1447 35.6682 43.0248 35.5656 42.8991C35.6739 42.882 35.788 42.8648 35.8964 42.8477C36.8433 42.8363 37.967 42.6021 39.1934 42.2422C42.1368 42.9505 43.232 44.6471 43.1407 45.3268Z" fill="#DAE5DF"/>
<path d="M53.99 37.5525C53.99 37.5525 54.395 37.5125 54.8571 37.5296C54.9312 38.2322 54.8856 38.9691 54.8171 39.5061C54.4236 42.4764 52.661 45.2754 49.5978 46.9491C51.3148 45.184 52.3929 43.0819 52.5754 41.7167C52.7009 40.7628 52.775 39.9059 50.7729 39.6374C49.2442 39.4318 47.6869 39.4604 46.3864 39.5518C49.421 38.3408 52.2331 37.3125 53.8817 37.5296C53.9216 37.5296 53.9558 37.5467 53.9957 37.5525H53.99Z" fill="#94B7A9"/>
<path d="M52.5754 41.7223C52.3929 43.0819 51.3148 45.1897 49.5978 46.9548C47.2078 48.2572 44.0305 48.8798 40.089 48.3486C39.0793 48.2115 38.2807 47.8573 37.659 47.3318C39.0565 47.7431 40.4883 48.0115 41.7888 48.1829C45.5479 48.6856 47.2762 46.8691 47.5557 44.7498C47.8809 42.3278 46.1183 41.551 43.7111 41.2311C43.2776 41.174 42.8441 41.1397 42.4106 41.134C43.7282 40.6313 45.0744 40.0772 46.3807 39.5574C47.6812 39.466 49.2385 39.4374 50.7672 39.6431C52.7693 39.9116 52.7009 40.7684 52.5697 41.7223H52.5754Z" fill="#A1C0AC"/>
<path d="M42.3307 34.0508C45.6676 34.4963 47.0366 36.4614 46.8142 38.1236C46.7571 38.5692 46.4377 39.049 46.0213 39.5003C44.7607 40.0601 43.443 40.6313 42.0569 41.1568C42.9125 40.5799 43.6541 39.8773 43.7453 39.169C44.0933 36.5585 42.1196 35.616 39.7809 35.3075C39.4102 35.2561 39.0394 35.2161 38.6686 35.1647C38.3606 35.1247 36.9745 35.1361 35.5941 36.0672C36.0903 35.5246 36.6893 34.9648 37.3738 34.4564C39.125 33.9651 40.9332 33.8623 42.2737 34.0394C42.2908 34.0394 42.3136 34.0394 42.3307 34.0451V34.0508Z" fill="#A1C0AC"/>
<path d="M54.2524 36.7867C53.0317 36.8438 51.754 37.1809 50.3964 37.6664C50.6816 37.318 50.8927 36.9352 50.9383 36.6154C51.2121 34.5704 47.5386 34.1362 45.8844 33.9135C45.2969 33.8335 44.7093 33.7649 44.1218 33.685C42.3763 33.4508 40.454 33.0338 40.3799 33.0281C40.2487 33.0109 40.1175 32.9938 39.9863 32.9881C41.2184 32.5082 42.5817 32.2683 44.0077 32.4625C50.8813 33.3822 51.7198 34.9931 54.2524 36.7867Z" fill="#7FA595"/>
<path d="M39.7866 35.3075C42.1254 35.6217 44.099 36.5642 43.751 39.169C43.6541 39.8773 42.9125 40.5742 42.0626 41.1569C40.146 41.8823 38.0982 42.505 35.9021 42.8477C35.7709 42.8477 35.6454 42.8477 35.5199 42.842C34.4646 41.5567 33.8771 39.9344 34.0596 38.5635C34.1338 38.0208 34.6871 37.0726 35.5941 36.073C36.9802 35.1419 38.3663 35.1247 38.6686 35.1704C39.0394 35.2218 39.4102 35.2618 39.7809 35.3132L39.7866 35.3075Z" fill="#C4D6C9"/>
<path d="M44.1275 33.6907C44.715 33.7707 45.3026 33.8392 45.8901 33.9192C47.5386 34.142 51.2121 34.5761 50.944 36.6211C50.9041 36.941 50.6873 37.3237 50.4021 37.6721C49.0274 38.1691 47.5671 38.826 46.0213 39.5115C46.4377 39.0602 46.7514 38.5804 46.8142 38.1348C47.0366 36.4726 45.6676 34.5075 42.3307 34.062C42.3136 34.062 42.2908 34.062 42.2737 34.0563C40.9389 33.8792 39.1249 33.982 37.3738 34.4733C38.1495 33.8963 39.028 33.3765 39.992 32.9995C40.1232 33.0109 40.2544 33.0224 40.3856 33.0395C40.4597 33.0509 42.382 33.4679 44.1275 33.6964V33.6907Z" fill="#94B7A9"/>
<mask id="mask9_50_11850" style="mask-type:luminance" maskUnits="userSpaceOnUse" x="34" y="32" width="21" height="17">
<path d="M54.8057 37.1581C54.954 37.9578 54.9027 38.8718 54.8171 39.5058C54.1155 44.7897 49.073 49.5423 40.089 48.3427C37.2711 47.9657 36.0675 45.8522 35.8907 43.2588C34.6015 41.9221 33.8543 40.0885 34.0596 38.5576C34.2707 36.9582 38.7085 31.7486 44.0077 32.4569C51.3547 33.4394 51.811 35.2159 54.8057 37.1581Z" fill="white"/>
</mask>
<g mask="url(#mask9_50_11850)">
<path style="mix-blend-mode:multiply" d="M56.6011 44.7018C62.0954 42.8029 65.0124 36.8032 63.1162 31.3011C61.2201 25.7989 55.2289 22.8778 49.7345 24.7767C44.2401 26.6755 41.3232 32.6752 43.2193 38.1774C45.1155 43.6795 51.1067 46.6006 56.6011 44.7018Z" fill="url(#paint15_radial_50_11850)"/>
<path style="mix-blend-mode:screen" d="M44.6658 47.4719C45.0288 41.6627 40.6203 36.6587 34.8193 36.2953C29.0183 35.9318 24.0214 40.3465 23.6585 46.1558C23.2956 51.965 27.704 56.969 33.505 57.3324C39.306 57.6959 44.3029 53.2812 44.6658 47.4719Z" fill="url(#paint16_radial_50_11850)"/>
</g>
<path d="M70.0872 29.4635C69.9903 28.9894 69.9104 28.5438 69.8477 28.1154C65.4212 24.9108 61.1545 25.5563 55.7812 21.9404C60.9377 25.6877 66.8301 27.1215 70.0929 29.4635H70.0872Z" fill="#B8C9AE"/>
<path d="M65.4611 14.8977C63.516 12.9841 59.1808 13.264 55.5188 14.2236C54.6802 14.652 54.0642 15.0805 53.7904 15.3604C53.2713 15.8916 52.9119 16.5085 52.661 17.1312C57.2414 13.6981 61.7021 16.657 62.6148 17.5539C64.0408 18.9534 64.9592 21.6096 63.4362 23.1633C62.7231 23.8888 61.6279 24.2372 60.7153 24.3972C62.455 25.0141 64.1035 25.4196 65.7178 26.0023C64.6797 21.9123 68.4729 17.8509 65.4668 14.8977H65.4611Z" fill="#607562"/>
<path d="M55.5188 14.2235C59.1808 13.2638 63.516 12.9839 65.4611 14.8976C68.4672 17.8508 64.6797 21.9122 65.7121 26.0022C67.0982 26.4992 68.4615 27.1218 69.8363 28.1214C68.6954 20.5356 72.4088 19.9301 67.5032 15.1089C63.6586 11.3331 58.3195 12.7954 55.5131 14.2292L55.5188 14.2235Z" fill="#617959"/>
<path d="M57.481 18.6274C56.0949 17.2679 53.9786 17.2851 52.5298 17.485C52.3758 17.9534 52.2845 18.4104 52.2274 18.8388C52.5012 19.113 52.7808 19.3872 53.0546 19.6557C53.9216 20.5068 54.8343 21.2608 55.7697 21.9463C55.8781 22.0205 55.9865 22.0891 56.0949 22.1576C57.1159 22.0891 57.9544 21.6892 58.1997 21.4379C58.5534 21.078 58.4621 19.5985 57.4753 18.6274H57.481Z" fill="#92A27C"/>
<path d="M62.6148 17.5477C61.7021 16.6509 57.2414 13.6919 52.661 17.125C52.6153 17.2449 52.5697 17.3592 52.5298 17.4791C53.9729 17.2792 56.0949 17.2621 57.481 18.6216C58.4678 19.5927 58.5591 21.0721 58.2054 21.432C57.9601 21.6776 57.1273 22.0775 56.1006 22.1518C57.7263 23.2028 59.2493 23.8712 60.7153 24.391C61.6222 24.2253 62.7231 23.8826 63.4362 23.1571C64.9592 21.6034 64.0408 18.9472 62.6148 17.5477Z" fill="#819B81"/>
<path d="M51.7654 29.1897C54.7202 29.7552 58.0343 29.5496 59.4718 28.0872C60.4643 27.0762 61.0404 26.1222 61.0233 25.0255C59.2778 24.1743 57.4867 23.1861 55.7755 21.9466C55.4788 21.7466 55.1822 21.5353 54.8799 21.3125C56.0036 23.3232 54.9541 25.2083 54.743 25.4253C54.589 25.5796 54.4521 25.7509 54.3038 25.8994C53.5565 26.6592 51.3604 26.9334 49.4381 26.0651C49.8488 27.0476 50.4649 27.9673 51.2235 28.7156C51.3832 28.8755 51.5658 29.0355 51.7654 29.1954V29.1897Z" fill="#617959"/>
<path d="M54.3038 25.8935C54.4464 25.745 54.589 25.5793 54.743 25.4194C54.954 25.2023 56.0093 23.3172 54.8799 21.3065C54.0072 20.6553 53.1116 19.8899 52.1761 18.9702C51.3376 19.3187 50.4535 19.8099 50.0199 20.2498C48.5939 21.7064 48.5711 24.0084 49.4381 26.0534C51.3604 26.9217 53.5622 26.6475 54.3038 25.8878V25.8935Z" fill="#819B81"/>
<path d="M67.7428 30.0922C68.2562 29.5724 68.2619 28.8869 68.0109 28.2357C66.0202 27.2132 63.5674 26.265 61.0233 25.0254C61.0461 26.1221 60.4643 27.0704 59.4718 28.0872C58.0343 29.5552 54.7202 29.7609 51.7654 29.1896C52.621 29.8751 53.8018 30.5491 55.1594 31.1489C59.6714 32.6513 65.444 32.4399 67.7428 30.0922Z" fill="#526943"/>
<path d="M68.0109 28.23C68.2619 28.8869 68.2562 29.5667 67.7428 30.0865C65.444 32.4342 59.6657 32.6456 55.1594 31.1432C59.9737 33.2682 67.0013 34.4449 69.6081 31.783C70.0872 31.2918 70.3724 30.7205 70.2355 30.1265C70.1842 29.898 70.1386 29.6809 70.0929 29.4638C69.4826 29.0297 68.7867 28.6241 68.0166 28.23H68.0109Z" fill="#4C5948"/>
<mask id="mask10_50_11850" style="mask-type:luminance" maskUnits="userSpaceOnUse" x="48" y="12" width="23" height="22">
<path d="M53.7906 15.3602C52.7524 16.4227 52.336 17.8336 52.2219 18.9532C51.372 19.3017 50.4651 19.8043 50.0201 20.2556C47.9096 22.4091 48.8793 26.4077 51.2237 28.7098C54.5721 32 66.0945 35.3645 69.6026 31.783C70.0817 31.2917 70.3669 30.7205 70.23 30.1264C68.0339 20.5983 72.8197 20.3184 67.5091 15.1031C62.5123 10.1963 54.9828 14.1378 53.7906 15.3602Z" fill="white"/>
</mask>
<g mask="url(#mask10_50_11850)">
<path style="mix-blend-mode:multiply" d="M83.6897 32.0371C86.7521 24.7023 83.297 16.2702 75.9726 13.2035C68.6482 10.1368 60.228 13.5968 57.1657 20.9316C54.1033 28.2664 57.5584 36.6985 64.8828 39.7652C72.2072 42.8319 80.6273 39.3719 83.6897 32.0371Z" fill="url(#paint17_radial_50_11850)"/>
</g>
<path d="M120.438 39.0204C119.947 38.929 119.463 38.8376 118.989 38.7119C118.539 42.2478 116.856 46.3721 119.571 52.1586C120.33 53.7694 121.294 55.3003 122.326 56.7741C122.326 56.7741 122.326 56.7741 122.332 56.7684C122.372 56.7969 122.423 56.8255 122.463 56.8541C121.642 55.1747 120.757 53.541 119.959 51.8444C118.128 47.9486 119.286 42.6134 120.432 39.0204H120.438Z" fill="#E6EAD8"/>
<path d="M111.733 42.8477C115.926 40.8713 117.244 43.9844 117.883 45.3497C117.945 45.4868 118.008 45.6239 118.065 45.761C118.042 43.0648 118.727 40.7856 118.995 38.712C118.453 38.5692 117.917 38.375 117.403 38.0951C115.338 37.6895 113.182 38.038 111.283 38.9348C105.733 41.551 106.902 48.5885 107.495 49.8452C107.495 49.8452 107.763 50.2508 108.094 50.742C107.267 46.9605 109.11 44.0873 111.733 42.8477Z" fill="#697552"/>
<path d="M118.162 57.3513C118.322 57.6883 118.516 57.9739 118.732 58.2253C119.554 58.2653 120.301 58.1453 120.917 57.854C121.459 57.5969 121.921 57.2142 122.326 56.7858C121.704 55.8947 121.111 54.9921 120.569 54.061C120.101 54.061 119.445 54.2153 119.109 54.3752C118.014 54.8893 117.529 56.0261 118.156 57.3627L118.162 57.3513Z" fill="#C8CCB8"/>
<path d="M113.679 49.9995C114.928 49.4111 117.249 49.611 119.143 51.1476C118.356 49.1655 118.082 47.389 118.071 45.761C118.014 45.6239 117.951 45.4868 117.888 45.3497C117.249 43.9845 115.932 40.8713 111.739 42.8477C109.115 44.0873 107.273 46.9605 108.1 50.7421C108.613 51.5132 109.264 52.4957 109.264 52.4957C110.604 54.2037 112.201 55.5689 113.815 56.54C113.376 55.9802 112.977 55.3519 112.646 54.6435C111.488 52.1816 112.315 50.645 113.684 49.9995H113.679Z" fill="#828C6C"/>
<path d="M118.732 58.2194C118.516 57.9738 118.316 57.6882 118.162 57.3455C117.535 56.0088 118.019 54.8778 119.115 54.3579C119.451 54.198 120.107 54.0495 120.575 54.0438C120.216 53.4268 119.879 52.7985 119.577 52.153C119.417 51.8103 119.269 51.4732 119.137 51.1419C117.244 49.6053 114.928 49.4054 113.673 49.9938C112.304 50.6393 111.477 52.1759 112.635 54.6378C112.966 55.3462 113.365 55.9745 113.804 56.5343C115.515 57.5625 117.249 58.1452 118.727 58.2137L118.732 58.2194Z" fill="#A3AA8D"/>
<path d="M119.212 47.6747C119.149 47.7033 119.092 47.7375 119.029 47.7718C119.103 49.2056 119.383 50.5994 119.965 51.8447C120.763 53.5469 121.647 55.1749 122.469 56.8543C123.347 57.4255 124.568 57.7454 125.749 57.7683C125.971 55.689 125.657 53.1014 124.203 50.0167C123.108 47.6861 121.533 46.578 119.206 47.6747H119.212Z" fill="#C5CEA1"/>
<path d="M128.333 45.1498C125.874 39.9173 123.068 39.5003 120.444 39.0205C119.947 40.5685 119.451 42.4364 119.194 44.3729C119.862 43.3333 120.546 42.465 120.883 42.3051C123.296 41.1683 126.279 44.59 127.488 47.1662C128.726 49.7938 129.456 54.0438 128.589 57.0713C131.829 54.8892 129.673 48.0173 128.327 45.1498H128.333Z" fill="#809151"/>
<path d="M120.883 42.3051C120.541 42.465 119.862 43.3333 119.194 44.3729C119.046 45.4982 118.978 46.6464 119.029 47.766C119.092 47.7317 119.149 47.6975 119.212 47.6689C121.539 46.5721 123.113 47.686 124.208 50.0109C125.657 53.0956 125.977 55.6832 125.754 57.7625C126.627 57.7796 127.477 57.6425 128.144 57.3283C128.31 57.2541 128.452 57.1627 128.595 57.0656C129.456 54.0381 128.726 49.7881 127.494 47.1605C126.285 44.59 123.296 41.1626 120.889 42.2994L120.883 42.3051Z" fill="#A2AF74"/>
<mask id="mask11_50_11850" style="mask-type:luminance" maskUnits="userSpaceOnUse" x="106" y="37" width="25" height="22">
<path d="M117.403 38.0951C115.338 37.6895 113.182 38.038 111.283 38.9348C105.733 41.551 106.902 48.5885 107.495 49.8452L109.258 52.4957C112.812 57.0198 118.139 59.1619 120.917 57.8481C121.465 57.591 121.927 57.2026 122.332 56.7685C123.838 57.8424 126.513 58.0937 128.133 57.334C132.017 55.5004 129.73 48.1487 128.321 45.1555C124.876 37.8266 120.746 39.9459 117.398 38.0951H117.403Z" fill="white"/>
</mask>
<g mask="url(#mask11_50_11850)">
<path style="mix-blend-mode:multiply" d="M149.606 34.3688C154.399 21.0285 147.486 6.32274 134.164 1.52256C120.843 -3.27762 106.158 3.64552 101.365 16.9858C96.5711 30.3262 103.484 45.0319 116.806 49.8321C130.127 54.6323 144.812 47.7091 149.606 34.3688Z" fill="url(#paint18_radial_50_11850)"/>
</g>
</g>
</g>
<defs>
<radialGradient id="paint0_radial_50_11850" cx="0" cy="0" r="1" gradientUnits="userSpaceOnUse" gradientTransform="translate(84.6443 55.1478) rotate(-158.552) scale(15.273 15.2888)">
<stop stop-color="#8AA093"/>
<stop offset="0.58" stop-color="#C7D1CB"/>
<stop offset="1" stop-color="#F7F7F7"/>
</radialGradient>
<radialGradient id="paint1_radial_50_11850" cx="0" cy="0" r="1" gradientUnits="userSpaceOnUse" gradientTransform="translate(90.6537 84.8896) rotate(-158.552) scale(15.273 15.2888)">
<stop stop-color="#EBEFDF"/>
<stop offset="1"/>
</radialGradient>
<radialGradient id="paint2_radial_50_11850" cx="0" cy="0" r="1" gradientUnits="userSpaceOnUse" gradientTransform="translate(34.2297 85.6565) rotate(-139.61) scale(12.0144 12.0172)">
<stop stop-color="#617959"/>
<stop offset="1" stop-color="white"/>
</radialGradient>
<radialGradient id="paint3_radial_50_11850" cx="0" cy="0" r="1" gradientUnits="userSpaceOnUse" gradientTransform="translate(32.9263 99.4583) rotate(-121.504) scale(13.4929 13.4842)">
<stop stop-color="#EBEFDF"/>
<stop offset="1"/>
</radialGradient>
<radialGradient id="paint4_radial_50_11850" cx="0" cy="0" r="1" gradientUnits="userSpaceOnUse" gradientTransform="translate(52.2925 76.3996) rotate(-121.504) scale(13.4929 13.4842)">
<stop stop-color="#617959"/>
<stop offset="1" stop-color="white"/>
</radialGradient>
<radialGradient id="paint5_radial_50_11850" cx="0" cy="0" r="1" gradientUnits="userSpaceOnUse" gradientTransform="translate(77.9635 61.4388) rotate(11.0553) scale(16.0923 16.1135)">
<stop stop-color="#7FA595"/>
<stop offset="1" stop-color="white"/>
</radialGradient>
<radialGradient id="paint6_radial_50_11850" cx="0" cy="0" r="1" gradientUnits="userSpaceOnUse" gradientTransform="translate(51.2035 83.1136) rotate(11.0553) scale(16.0923 16.1135)">
<stop stop-color="#EBEFDF"/>
<stop offset="1"/>
</radialGradient>
<radialGradient id="paint7_radial_50_11850" cx="0" cy="0" r="1" gradientUnits="userSpaceOnUse" gradientTransform="translate(56.2741 79.113) rotate(76.6482) scale(21.4536 21.4265)">
<stop stop-color="#617959"/>
<stop offset="1" stop-color="white"/>
</radialGradient>
<radialGradient id="paint8_radial_50_11850" cx="0" cy="0" r="1" gradientUnits="userSpaceOnUse" gradientTransform="translate(18.1912 89.5257) rotate(-93.2254) scale(7.08889 7.07891)">
<stop stop-color="#7FA595"/>
<stop offset="1" stop-color="white"/>
</radialGradient>
<radialGradient id="paint9_radial_50_11850" cx="0" cy="0" r="1" gradientUnits="userSpaceOnUse" gradientTransform="translate(6.9099 100.23) rotate(-93.2354) scale(7.08889 7.07892)">
<stop stop-color="#EBEFDF"/>
<stop offset="1"/>
</radialGradient>
<radialGradient id="paint10_radial_50_11850" cx="0" cy="0" r="1" gradientUnits="userSpaceOnUse" gradientTransform="translate(69.4673 73.7908) rotate(-167.613) scale(19.1673 19.192)">
<stop stop-color="#617959"/>
<stop offset="1" stop-color="white"/>
</radialGradient>
<radialGradient id="paint11_radial_50_11850" cx="0" cy="0" r="1" gradientUnits="userSpaceOnUse" gradientTransform="translate(63.5269 97.5791) rotate(22.7289) scale(7.08038 7.08742)">
<stop stop-color="#7FA595"/>
<stop offset="1" stop-color="white"/>
</radialGradient>
<radialGradient id="paint12_radial_50_11850" cx="0" cy="0" r="1" gradientUnits="userSpaceOnUse" gradientTransform="translate(50.0638 104.476) rotate(22.7289) scale(7.08038 7.08742)">
<stop stop-color="#EBEFDF"/>
<stop offset="1"/>
</radialGradient>
<radialGradient id="paint13_radial_50_11850" cx="0" cy="0" r="1" gradientUnits="userSpaceOnUse" gradientTransform="translate(81.031 19.7717) rotate(-32.7869) scale(13.4846 13.4925)">
<stop stop-color="#EBEFDF"/>
<stop offset="1"/>
</radialGradient>
<radialGradient id="paint14_radial_50_11850" cx="0" cy="0" r="1" gradientUnits="userSpaceOnUse" gradientTransform="translate(104.627 38.3329) rotate(-32.7969) scale(13.4846 13.4925)">
<stop stop-color="#617959"/>
<stop offset="1" stop-color="white"/>
</radialGradient>
<radialGradient id="paint15_radial_50_11850" cx="0" cy="0" r="1" gradientUnits="userSpaceOnUse" gradientTransform="translate(53.0467 34.7009) rotate(-82.4106) scale(10.5389 10.5245)">
<stop stop-color="#7FA595"/>
<stop offset="1" stop-color="white"/>
</radialGradient>
<radialGradient id="paint16_radial_50_11850" cx="0" cy="0" r="1" gradientUnits="userSpaceOnUse" gradientTransform="translate(34.3557 46.4702) rotate(-82.4106) scale(10.5389 10.5245)">
<stop stop-color="#EBEFDF"/>
<stop offset="1"/>
</radialGradient>
<radialGradient id="paint17_radial_50_11850" cx="0" cy="0" r="1" gradientUnits="userSpaceOnUse" gradientTransform="translate(70.3067 26.3947) rotate(-45.5806) scale(14.3849 14.3845)">
<stop stop-color="#617959"/>
<stop offset="1" stop-color="white"/>
</radialGradient>
<radialGradient id="paint18_radial_50_11850" cx="0" cy="0" r="1" gradientUnits="userSpaceOnUse" gradientTransform="translate(125.462 25.5471) rotate(-25.2413) scale(25.6412 25.6643)">
<stop stop-color="#617959"/>
<stop offset="1" stop-color="white"/>
</radialGradient>
<clipPath id="clip0_50_11850">
<rect width="158" height="113" fill="white"/>
</clipPath>
</defs>
</svg>
