<svg width="81" height="80" viewBox="0 0 81 80" fill="none" xmlns="http://www.w3.org/2000/svg">
<g clip-path="url(#clip0_26_585)">
<path d="M39.4 79.992C17.656 79.84 -0.136 61.688 1.42551e-07 39.824C0.144 17.456 18.464 -0.311997 40.592 3.17441e-06C62.248 0.304003 80.08 17.952 80.016 40.096C79.944 62.824 61.28 80.4 39.4 79.992ZM16.896 39.992C16.896 39.992 16.856 39.992 16.84 39.992C16.84 43.208 16.824 46.424 16.84 49.632C16.888 57.336 22.768 63.168 30.472 63.168C36.904 63.168 43.328 63.184 49.76 63.168C57.24 63.152 63.16 57.2 63.168 49.728C63.168 43.24 63.168 36.744 63.168 30.256C63.168 22.88 57.296 16.904 49.92 16.856C43.32 16.808 36.728 16.816 30.128 16.856C23.104 16.896 17.312 22.288 16.92 29.28C16.72 32.84 16.888 36.416 16.888 39.992H16.896Z" fill="#50657F"/>
<path d="M58.888 40.088C58.888 43.472 58.928 46.856 58.88 50.232C58.816 54.544 55.84 58.04 51.616 58.84C51 58.96 50.36 59 49.736 59C43.264 59.008 36.792 59.008 30.328 59C24.992 59 21.128 55.136 21.128 49.816C21.128 43.368 21.128 36.92 21.128 30.472C21.128 25.048 24.96 21.232 30.384 21.232C36.896 21.232 43.408 21.232 49.92 21.232C54.872 21.232 58.8 25.04 58.888 29.992C58.944 33.352 58.896 36.712 58.896 40.072L58.888 40.088ZM52.024 40.128C52.008 33.456 46.664 28.104 40 28.104C33.344 28.104 27.992 33.472 28 40.144C28 46.8 33.376 52.144 40.048 52.128C46.672 52.112 52.032 46.736 52.024 40.12V40.128ZM52.464 24.88C51.288 24.88 50.336 25.848 50.344 27.016C50.352 28.176 51.328 29.136 52.488 29.128C53.648 29.128 54.6 28.152 54.6 26.984C54.6 25.808 53.64 24.872 52.464 24.88Z" fill="#50657F"/>
<path d="M40 32.336C44.264 32.32 47.792 35.832 47.8 40.112C47.808 44.384 44.312 47.888 40.024 47.904C35.76 47.92 32.232 44.408 32.232 40.136C32.232 35.864 35.728 32.352 40.008 32.344L40 32.336Z" fill="#50657F"/>
</g>
<defs>
<clipPath id="clip0_26_585">
<rect width="80.016" height="80" fill="white"/>
</clipPath>
</defs>
</svg>
