<svg width="80" height="80" viewBox="0 0 80 80" fill="none" xmlns="http://www.w3.org/2000/svg">
<g clip-path="url(#clip0_26_584)">
<path d="M42.456 80H37.464C37.264 79.952 37.064 79.888 36.864 79.872C28.904 79.24 21.736 76.512 15.464 71.576C7.392 65.232 2.4 56.984 0.6 46.856C0.344 45.424 0.2 43.976 0 42.544C0 40.88 0 39.216 0 37.552C0.096 36.832 0.192 36.12 0.28 35.4C1.712 24.032 7.008 14.832 16.16 7.992C29.048 -1.64 46.136 -2.688 59.984 5.536C72.784 13.136 79.44 24.632 79.88 39.536C80.128 47.712 77.848 55.28 73.272 62.064C66.92 71.496 58.112 77.296 46.912 79.384C45.44 79.656 43.936 79.8 42.448 80.008L42.456 80ZM42.304 60.344C42.304 59.968 42.304 59.688 42.304 59.4C42.304 54.592 42.312 49.776 42.304 44.968C42.304 43.4 42.824 42.064 43.96 40.984C46.584 38.488 50.624 39.608 51.504 43.112C51.744 44.056 51.816 45.064 51.824 46.04C51.856 50.512 51.84 54.984 51.84 59.464C51.84 59.744 51.84 60.024 51.84 60.32H60.856C60.872 60.16 60.888 60.064 60.888 59.96C60.888 54.552 60.928 49.144 60.84 43.728C60.816 42.344 60.552 40.928 60.152 39.592C59.032 35.84 56.56 33.416 52.64 32.744C48.592 32.048 45.096 33.008 42.632 36.56C42.56 36.656 42.56 36.808 42.528 36.928L42.256 36.744V33.232H33.296V60.344H42.304ZM28.192 60.344V33.248H19.24V60.344H28.192ZM23.672 29.464C26.608 29.464 28.632 27.736 28.832 25.056C29.016 22.584 27.264 20.536 24.624 20.128C22.08 19.736 19.672 21.016 18.912 23.168C17.768 26.4 20.08 29.464 23.664 29.464H23.672Z" fill="#50657F"/>
</g>
<defs>
<clipPath id="clip0_26_584">
<rect width="79.904" height="80" fill="white"/>
</clipPath>
</defs>
</svg>
