<svg width="80" height="80" viewBox="0 0 80 80" fill="none" xmlns="http://www.w3.org/2000/svg">
<g clip-path="url(#clip0_26_629)">
<path d="M40 80C62.0914 80 80 62.0914 80 40C80 17.9086 62.0914 0 40 0C17.9086 0 0 17.9086 0 40C0 62.0914 17.9086 80 40 80Z" fill="#50657F"/>
<path d="M19.2694 50.6302C19.3412 53.2384 19.4131 55.8466 19.479 58.4547C19.485 58.7362 19.452 59.0207 19.4131 59.3022C19.3412 59.8202 19.0088 60.0179 18.5088 59.8562C17.9548 59.6765 17.6913 59.3022 17.6823 58.7272C17.6164 54.3613 17.6344 49.9894 17.4487 45.6295C17.3379 42.9973 16.9756 40.3682 16.5923 37.757C16.4126 36.5233 15.8856 35.3465 15.5742 34.1277C14.598 30.3128 15.2718 26.7284 17.2421 23.3806C18.0057 22.084 18.907 20.8713 19.7784 19.6405C20.2665 18.9518 20.9403 18.9937 21.4014 19.6915C21.4793 19.8082 21.5511 19.943 21.6619 20.0208C23.6562 21.4702 25.1595 23.3836 26.6896 25.2761C30.0285 29.4025 33.4182 33.4869 36.6971 37.6582C38.3171 39.7184 39.7185 41.9523 41.2756 44.0694C42.1351 45.2402 43.0903 46.3392 44.0306 47.4501C45.4978 49.1779 47.4412 49.9864 49.6332 50.3158C51.4868 50.5973 53.3403 50.8428 55.1699 51.3309C59.4191 52.4688 63.6203 53.7175 67.561 55.7058C68.2677 56.0622 68.8906 56.6341 69.4565 57.2031C69.8548 57.6013 69.756 58.0535 69.2828 58.3859C68.8816 58.6644 68.4354 58.9159 67.9743 59.0656C65.8721 59.7573 63.6772 59.9819 61.4942 60.2245C55.4305 60.8982 49.3397 60.8713 43.249 60.8473C42.0093 60.8413 40.7636 60.8473 39.5808 60.3562C38.1884 59.7753 37.1702 58.7452 36.2779 57.5834C34.5381 55.3166 33.2715 52.7772 32.0647 50.205C31.0106 47.9562 30.0015 45.6834 28.4624 43.704C27.2017 42.084 25.7524 40.6976 23.7431 40.0418C22.6202 39.6765 21.4942 39.6585 20.3384 39.955C19.7365 40.1107 19.464 40.452 19.4011 41.009C19.2903 42.0301 19.1406 43.0542 19.1226 44.0783C19.0807 46.2613 19.1107 48.4443 19.1107 50.6272C19.1646 50.6272 19.2185 50.6272 19.2724 50.6272L19.2694 50.6302ZM54.0051 52.6515C53.7865 52.5916 53.7266 52.5676 53.6667 52.5587C52.3671 52.379 51.0705 52.1813 49.7709 52.0316C48.2468 51.8579 46.6807 51.7322 45.429 50.7799C44.3959 49.9924 43.4347 49.0611 42.6142 48.052C41.108 46.1924 39.7724 44.1951 38.2872 42.3146C33.8105 36.6461 29.2948 31.0075 24.7941 25.357C24.6923 25.2282 24.5725 25.1144 24.4618 24.9946C24.7582 25.6055 25.1355 26.1535 25.4948 26.7105C29.7829 33.3402 34.035 39.9909 38.368 46.5907C39.8473 48.8425 41.4823 50.9955 43.1172 53.1366C44.4438 54.8764 46.2435 55.6429 48.4504 55.3255C49.738 55.1399 50.8998 54.6188 52.0018 53.9631C52.6486 53.5798 53.2595 53.1396 53.9991 52.6485L54.0051 52.6515Z" fill="white"/>
<path d="M61.09 36.179H58.1944L54.0081 29.7559L49.8219 36.179H46.9262L52.5708 27.54L47.0939 19.1436H49.9895L54.0051 25.3241L58.0446 19.1436H60.9403L55.4634 27.54L61.084 36.179H61.09Z" fill="white"/>
</g>
<defs>
<clipPath id="clip0_26_629">
<rect width="80" height="80" fill="white"/>
</clipPath>
</defs>
</svg>
