<svg width="615" height="165" viewBox="0 0 615 165" fill="none" xmlns="http://www.w3.org/2000/svg">
<g clip-path="url(#clip0_1_103)">
<path d="M32.65 60.74C39.72 58.72 44.6 53.52 46.38 46.1C47.67 40.67 45.85 33.87 42.05 29.92C39.04 26.79 35.02 25.81 30.6 26.42C24.25 27.28 20.72 32.35 21.62 39.12C22.17 43.27 26.1 46.07 27.53 46.49C30.02 47.44 31.98 46.94 33.08 45.91C34.52 44.56 34.61 42.39 33.28 40.63C31.69 38.53 29.17 38.68 27.32 38.69C24.64 38.69 24.57 36.28 24.62 35.37C24.81 31.85 28.03 29.65 31.43 29.59C34.68 29.53 37.21 30.23 39.38 32.48C42.32 35.54 43.79 41.02 42.77 45.24C41.32 51.31 37.36 55.55 31.63 57.19C24.56 59.2 16.05 56.82 10.45 51.27C4.01 44.87 2.1 35.4 5.08 24.61C10.08 6.58 28.9 1.02 44.92 4.84C53.9 6.98 61.94 13.36 66.45 21.89C68.42 25.63 69.56 29.49 69.82 33.14C62.68 35.29 61.27 39 61.04 40.93C60.69 43.85 62.59 46.66 65.35 47.34C67.59 47.89 70.55 47.01 72.12 42.9C72.94 40.75 73.41 38.44 73.53 36.03C76.07 35.54 79.23 35.23 83.09 35.2C106.05 35.01 171.91 35.16 235.6 35.3C274.21 35.39 311.43 35.47 336.3 35.47L536.51 33.82L336.3 31.77C311.44 31.77 274.22 31.69 235.61 31.6C171.91 31.45 106.05 31.3 83.07 31.5C79.24 31.53 76.07 31.82 73.46 32.29C73.09 28.3 71.83 24.17 69.72 20.17C64.73 10.71 55.78 3.63 45.79 1.25C28.03 -2.99 7.14 3.34 1.53 23.61C0.45 27.52 0 31.05 0 34.2C0 44.28 4.58 50.63 7.86 53.88C14.48 60.45 24.21 63.14 32.65 60.73V60.74ZM30.53 43.27C30.22 43.92 28.35 43.16 27.4 42.1C29.18 41.82 31 42.29 30.53 43.27ZM68.68 41.57C68.39 42.33 67.57 44.07 66.24 43.74C65.4 43.53 64.6 42.57 64.72 41.35C64.89 39.87 66.4 38.24 69.76 37.03C69.59 38.62 69.23 40.14 68.68 41.57Z" fill="url(#paint0_linear_1_103)"/>
</g>
<g clip-path="url(#clip1_1_103)">
<path d="M581.86 103.87C574.79 105.89 569.91 111.09 568.13 118.51C566.84 123.94 568.66 130.74 572.46 134.69C575.47 137.82 579.49 138.8 583.91 138.19C590.26 137.33 593.79 132.26 592.89 125.49C592.34 121.34 588.41 118.54 586.98 118.12C584.49 117.17 582.53 117.67 581.43 118.7C579.99 120.05 579.9 122.22 581.23 123.98C582.82 126.08 585.34 125.93 587.19 125.92C589.87 125.92 589.94 128.33 589.89 129.24C589.7 132.76 586.48 134.96 583.08 135.02C579.83 135.08 577.3 134.38 575.13 132.13C572.19 129.07 570.72 123.59 571.74 119.37C573.19 113.3 577.15 109.06 582.88 107.42C589.95 105.41 598.46 107.79 604.06 113.34C610.5 119.74 612.41 129.21 609.43 140C604.43 158.03 585.61 163.59 569.59 159.77C560.61 157.63 552.57 151.25 548.06 142.72C546.09 138.98 544.95 135.12 544.69 131.47C551.83 129.32 553.24 125.61 553.47 123.68C553.82 120.76 551.92 117.95 549.16 117.27C546.92 116.72 543.96 117.6 542.39 121.71C541.57 123.86 541.1 126.17 540.98 128.58C538.44 129.07 535.28 129.38 531.42 129.41C508.46 129.6 442.6 129.45 378.91 129.31C340.3 129.22 303.08 129.14 278.21 129.14L78 130.79L278.21 132.84C303.07 132.84 340.29 132.92 378.9 133.01C442.6 133.16 508.46 133.31 531.44 133.11C535.27 133.08 538.44 132.79 541.05 132.32C541.42 136.31 542.68 140.44 544.79 144.44C549.78 153.9 558.73 160.98 568.72 163.36C586.48 167.6 607.37 161.27 612.98 141C614.06 137.09 614.51 133.56 614.51 130.41C614.51 120.33 609.93 113.98 606.65 110.73C600.03 104.16 590.3 101.47 581.86 103.88L581.86 103.87ZM583.98 121.34C584.29 120.69 586.16 121.45 587.11 122.51C585.33 122.79 583.51 122.32 583.98 121.34ZM545.83 123.04C546.12 122.28 546.94 120.54 548.27 120.87C549.11 121.08 549.91 122.04 549.79 123.26C549.62 124.74 548.11 126.37 544.75 127.58C544.92 125.99 545.28 124.47 545.83 123.04Z" fill="url(#paint1_linear_1_103)"/>
</g>
<defs>
<linearGradient id="paint0_linear_1_103" x1="0" y1="30.8" x2="536.51" y2="30.8" gradientUnits="userSpaceOnUse">
<stop stop-color="#B98B3C"/>
<stop offset="0.2" stop-color="#BA8C3D"/>
<stop offset="0.28" stop-color="#BE9343"/>
<stop offset="0.33" stop-color="#C59F4D"/>
<stop offset="0.37" stop-color="#CFB05C"/>
<stop offset="0.41" stop-color="#DCC66F"/>
<stop offset="0.44" stop-color="#ECE086"/>
<stop offset="0.46" stop-color="#F6F194"/>
<stop offset="0.47" stop-color="#F0E78C"/>
<stop offset="0.52" stop-color="#DFCB73"/>
<stop offset="0.57" stop-color="#D1B35F"/>
<stop offset="0.63" stop-color="#C6A14F"/>
<stop offset="0.7" stop-color="#BE9444"/>
<stop offset="0.8" stop-color="#BA8D3D"/>
<stop offset="1" stop-color="#B98B3C"/>
</linearGradient>
<linearGradient id="paint1_linear_1_103" x1="614.51" y1="133.81" x2="78" y2="133.81" gradientUnits="userSpaceOnUse">
<stop stop-color="#B98B3C"/>
<stop offset="0.2" stop-color="#BA8C3D"/>
<stop offset="0.28" stop-color="#BE9343"/>
<stop offset="0.33" stop-color="#C59F4D"/>
<stop offset="0.37" stop-color="#CFB05C"/>
<stop offset="0.41" stop-color="#DCC66F"/>
<stop offset="0.44" stop-color="#ECE086"/>
<stop offset="0.46" stop-color="#F6F194"/>
<stop offset="0.47" stop-color="#F0E78C"/>
<stop offset="0.52" stop-color="#DFCB73"/>
<stop offset="0.57" stop-color="#D1B35F"/>
<stop offset="0.63" stop-color="#C6A14F"/>
<stop offset="0.7" stop-color="#BE9444"/>
<stop offset="0.8" stop-color="#BA8D3D"/>
<stop offset="1" stop-color="#B98B3C"/>
</linearGradient>
<clipPath id="clip0_1_103">
<rect width="536.51" height="61.61" fill="white"/>
</clipPath>
<clipPath id="clip1_1_103">
<rect width="536.51" height="61.61" fill="white" transform="translate(614.51 164.61) rotate(-180)"/>
</clipPath>
</defs>
</svg>
