<svg width="532" height="534" viewBox="0 0 532 534" fill="none" xmlns="http://www.w3.org/2000/svg">
<g clip-path="url(#clip0_1_98)">
<path d="M89.96 122.21C89.25 120.54 87.91 119.38 85.94 118.73C83.98 118.08 80.85 117.75 76.56 117.75C76.2 117.75 76.02 117.39 76.02 116.68C76.02 115.97 76.2 115.61 76.56 115.61L85.49 115.79C90.73 116.03 94.89 116.15 97.99 116.15C101.32 116.15 105.61 116.03 110.85 115.79L119.6 115.61C119.84 115.61 119.96 115.97 119.96 116.68C119.96 117.39 119.84 117.75 119.6 117.75C115.43 117.75 112.34 118.11 110.31 118.82C108.28 119.53 106.92 120.76 106.2 122.48C105.49 124.21 105.13 126.86 105.13 130.43V212.76C105.13 216.45 105.46 219.13 106.11 220.8C106.76 222.47 108.07 223.6 110.04 224.19C112 224.79 115.19 225.08 119.59 225.08C119.95 225.08 120.13 225.44 120.13 226.15C120.13 226.86 119.95 227.22 119.59 227.22C115.78 227.22 112.8 227.16 110.66 227.04L97.98 226.86L85.48 227.04C83.22 227.16 80.12 227.22 76.19 227.22C75.95 227.22 75.83 226.86 75.83 226.15C75.83 225.44 75.95 225.08 76.19 225.08C80.48 225.08 83.63 224.78 85.66 224.19C87.68 223.6 89.08 222.44 89.86 220.71C90.63 218.99 91.02 216.33 91.02 212.76V130.08C91.02 126.51 90.66 123.89 89.95 122.22L89.96 122.21ZM147.46 122.21C147.46 119.24 143.95 117.75 136.92 117.75C136.56 117.75 136.38 117.39 136.38 116.68C136.38 115.97 136.56 115.61 136.92 115.61L144.78 115.79C149.54 116.03 154.07 116.15 158.35 116.15C162.63 116.15 167.04 116.03 171.56 115.79L178.52 115.61C178.88 115.61 179.06 115.97 179.06 116.68C179.06 117.39 178.88 117.75 178.52 117.75C173.52 117.75 168.1 119 162.27 121.5C156.44 124 151.08 127.63 146.2 132.39L100.3 177.75L95.84 177.57L141.74 131.32C145.55 127.27 147.45 124.24 147.45 122.21H147.46ZM109.24 166.5L119.96 157.21L146.39 191.68C154.72 202.87 161.09 210.76 165.5 215.34C169.9 219.92 173.33 222.69 175.77 223.64C178.21 224.59 181.63 225.07 186.04 225.07C186.4 225.07 186.58 225.43 186.58 226.14C186.58 226.85 186.4 227.21 186.04 227.21H166.04L160.5 227.39C158.83 227.39 157.55 227.15 156.66 226.68C155.77 226.21 154.75 225.31 153.62 224C152.49 222.69 150.61 220.25 147.99 216.68C146.92 215.37 145.49 213.5 143.7 211.05C141.91 208.61 139.47 205.37 136.38 201.32L109.23 166.5H109.24Z" fill="#262262"/>
<path d="M377.1 357.83C379.36 361.22 382.1 364.14 385.31 366.58C388.52 369.02 392.99 371.97 398.7 375.42C404.65 379.11 409.38 382.3 412.9 384.97C416.41 387.65 419.42 390.95 421.92 394.88C424.42 398.81 425.67 403.45 425.67 408.81C425.67 414.64 424.15 419.91 421.12 424.61C418.08 429.31 413.74 433 408.08 435.68C402.42 438.36 395.85 439.7 388.35 439.7C383.59 439.7 378.89 439.13 374.24 438C369.6 436.87 365.55 435.23 362.1 433.09C361.5 432.73 361.09 432.32 360.85 431.84C360.61 431.37 360.49 430.65 360.49 429.7L358.7 404.16C358.58 403.69 358.85 403.39 359.5 403.27C360.15 403.15 360.54 403.33 360.66 403.81C363.52 412.86 367.51 420.54 372.63 426.85C377.75 433.16 384.42 436.31 392.63 436.31C398.22 436.31 402.93 434.79 406.74 431.76C410.55 428.72 412.45 423.75 412.45 416.85C412.45 411.61 411.26 407.03 408.88 403.1C406.5 399.17 403.58 395.87 400.13 393.19C396.67 390.51 392.09 387.45 386.38 383.99C380.78 380.42 376.35 377.35 373.08 374.79C369.8 372.23 367.04 369.08 364.78 365.33C362.52 361.58 361.39 357.2 361.39 352.2C361.39 346.13 363.02 340.95 366.3 336.66C369.57 332.37 373.86 329.19 379.16 327.11C384.46 325.03 390.02 323.98 395.86 323.98C403.72 323.98 410.92 325.35 417.47 328.09C419.26 328.92 420.15 330 420.15 331.3L421.04 353.62C421.04 354.1 420.71 354.37 420.06 354.42C419.4 354.48 419.02 354.27 418.9 353.8C417.59 347.37 414.82 341.3 410.6 335.58C406.37 329.87 400.33 327.01 392.47 327.01C386.52 327.01 381.9 328.8 378.63 332.37C375.35 335.94 373.72 340.47 373.72 345.94C373.72 350.47 374.85 354.42 377.11 357.82L377.1 357.83Z" fill="#262262"/>
<path d="M375.97 51.32C375.97 40.12 380.05 34 387.59 34C395.13 34 399.26 40.18 399.26 51.32C399.26 62.46 395.13 68.54 387.59 68.54C380.05 68.54 375.97 62.52 375.97 51.32ZM396.43 51.32C396.43 42 393.66 36.67 387.59 36.67C381.52 36.67 378.8 42.01 378.8 51.32C378.8 60.63 381.52 65.87 387.59 65.87C393.66 65.87 396.43 60.64 396.43 51.32Z" fill="#262262"/>
<path d="M411.5 58.8C411.5 54.04 414.75 51.21 417.52 50.27C414.9 49.28 412.39 46.55 412.39 42.63C412.39 37.76 416.37 33.99 421.71 33.99C427.05 33.99 431.03 37.76 431.03 42.63C431.03 46.56 428.52 49.28 425.9 50.27C428.67 51.21 431.92 54.04 431.92 58.8C431.92 63.98 427.94 68.53 421.71 68.53C415.48 68.53 411.5 63.98 411.5 58.8ZM429.08 58.8C429.08 55.03 426.2 51.73 421.7 51.73C417.2 51.73 414.32 55.03 414.32 58.8C414.32 62.57 417.25 65.87 421.7 65.87C426.15 65.87 429.08 62.73 429.08 58.8ZM428.29 42.68C428.29 39.23 425.46 36.56 421.7 36.56C417.94 36.56 415.11 39.23 415.11 42.68C415.11 45.93 417.36 49.01 421.7 49.07C426.04 49.02 428.29 45.93 428.29 42.68Z" fill="#262262"/>
<path d="M375.97 114.12C375.97 102.92 380.05 96.8 387.59 96.8C395.13 96.8 399.26 102.98 399.26 114.12C399.26 125.26 395.13 131.34 387.59 131.34C380.05 131.34 375.97 125.32 375.97 114.12ZM396.43 114.12C396.43 104.8 393.66 99.47 387.59 99.47C381.52 99.47 378.8 104.81 378.8 114.12C378.8 123.43 381.52 128.67 387.59 128.67C393.66 128.67 396.43 123.44 396.43 114.12Z" fill="#262262"/>
<path d="M413.28 130.82L428.25 99.94H410.46V97.32H432.44L416.32 130.82H413.28Z" fill="#262262"/>
<path d="M142.52 429.97H157.28V432.59H136.14L149.33 419.24C152.1 416.47 154.72 413.43 154.72 409.35C154.72 405.9 152 401.24 146.19 401.24C141.43 401.24 138.13 405.01 138.13 409.35C138.13 410.97 138.86 413.43 140.33 414.95L138.29 416.68C136.35 414.69 135.31 411.55 135.31 409.35C135.31 403.91 139.55 398.57 146.2 398.57C153.32 398.57 157.61 404.17 157.61 409.35C157.61 413.85 155.1 417.15 152.27 420.08L142.53 429.97H142.52Z" fill="#262262"/>
<path d="M169.84 415.89C169.84 404.69 173.92 398.57 181.46 398.57C189 398.57 193.13 404.75 193.13 415.89C193.13 427.03 189 433.11 181.46 433.11C173.92 433.11 169.84 427.09 169.84 415.89ZM190.3 415.89C190.3 406.57 187.53 401.24 181.46 401.24C175.39 401.24 172.67 406.58 172.67 415.89C172.67 425.2 175.39 430.44 181.46 430.44C187.53 430.44 190.3 425.21 190.3 415.89Z" fill="#262262"/>
<path d="M142.52 492.77H157.28V495.39H136.14L149.33 482.04C152.1 479.27 154.72 476.23 154.72 472.15C154.72 468.7 152 464.04 146.19 464.04C141.43 464.04 138.13 467.81 138.13 472.15C138.13 473.77 138.86 476.23 140.33 477.75L138.29 479.48C136.35 477.49 135.31 474.35 135.31 472.15C135.31 466.71 139.55 461.37 146.2 461.37C153.32 461.37 157.61 466.97 157.61 472.15C157.61 476.65 155.1 479.95 152.27 482.88L142.53 492.77H142.52Z" fill="#262262"/>
<path d="M169.74 490.31L171.99 488.84C173.56 491.4 176.18 493.24 179.74 493.24C184.92 493.24 187.85 489.31 187.85 485.23C187.85 481.15 184.66 477.22 179.79 477.22C178.43 477.22 176.7 477.74 175.86 478.37L174.29 476.59L184.86 464.4H171.2V461.89H189.88L178.47 475.18C178.99 474.97 179.73 474.81 180.46 474.81C185.64 474.81 190.67 479.47 190.67 485.23C190.67 490.1 187.06 495.91 179.73 495.91C174.81 495.91 171.72 493.45 169.73 490.31H169.74Z" fill="#262262"/>
<path d="M234.43 64.22L232.78 89.6C232.62 98.07 232.09 106.54 232.22 115C232.25 131.92 233.46 148.87 236.68 165.4C239.95 181.93 245.46 197.89 253.48 212.74C257.48 220.18 261.94 227.39 266.48 234.62C270.87 241.95 274.5 249.78 277.23 257.91C277.4 258.42 277.13 258.97 276.62 259.14C276.12 259.31 275.58 259.05 275.4 258.55V258.52C269.61 242.69 260.16 228.56 251.18 214.04C242.51 199.3 236.37 182.89 233.57 165.99C232.6 161.81 232.35 157.53 231.74 153.3C231.49 151.18 231.18 149.06 230.98 146.94L230.56 140.55C230.35 136.29 229.84 132.04 229.87 127.78L229.74 115C229.68 106.48 230.29 97.98 230.54 89.48L232.73 64.06C232.77 63.59 233.18 63.24 233.65 63.28C234.11 63.32 234.46 63.72 234.43 64.18V64.21V64.22Z" fill="#262262"/>
<path d="M284.83 56.47C285.13 64.1 285.34 71.73 285.5 79.35C286.04 86.96 286.47 94.57 287.16 102.16C288.17 109.71 288.64 117.33 289.94 124.84L291.61 136.14L293.75 147.37C299.65 177.3 310.98 205.93 316.41 236.29C319.62 251.36 320.39 266.98 319.07 282.31C318.95 286.16 318.45 289.97 318.04 293.79L316.81 305.24C315.74 312.83 314.61 320.4 313.34 327.95C310.87 343.06 307.85 358.07 304.6 373.01L299.84 395.43C298.38 402.91 296.9 410.44 296.67 417.98V418.01C296.66 418.37 296.36 418.65 296 418.64C295.65 418.63 295.37 418.33 295.37 417.98C295.53 410.22 296.96 402.66 298.34 395.14L302.88 372.65C305.95 357.68 308.94 342.7 311.33 327.62C312.55 320.08 313.51 312.51 314.36 304.93L315.27 293.55C315.52 289.75 315.92 285.97 315.81 282.16L315.84 270.77L315.3 259.42C315.24 255.63 314.74 251.88 314.47 248.1L314.08 242.42C313.93 240.53 313.62 238.66 313.39 236.77C311.55 221.66 307.16 206.99 303.04 192.3C298.75 177.63 294.8 162.81 291.44 147.85C284.56 117.92 282.45 87.04 283.19 56.45C283.2 55.99 283.58 55.63 284.04 55.64C284.48 55.65 284.83 56 284.85 56.43V56.46L284.83 56.47Z" fill="#262262"/>
<path d="M281.74 280.84C280.52 298.25 278.33 315.55 275.46 332.73C272.77 349.93 269.47 367.01 266.96 384.2C264.53 401.4 263.06 418.73 263.02 436.1C262.94 453.47 264.71 470.76 266.24 488.02V488.09C266.33 489.09 265.59 489.98 264.59 490.07C263.59 490.16 262.7 489.42 262.61 488.41C262.61 488.41 262.61 488.39 262.61 488.38C261.96 479.68 261.12 470.98 261.09 462.24C260.98 457.88 260.87 453.52 261 449.15C261.09 444.79 260.94 440.43 261.14 436.07C261.48 418.64 262.88 401.23 265.27 383.97C267.51 366.68 270.8 349.58 273.85 332.47C276.76 315.34 279.22 298.11 279.77 280.75C279.79 280.21 280.24 279.78 280.78 279.8C281.32 279.82 281.75 280.27 281.73 280.81C281.73 280.82 281.73 280.84 281.73 280.85L281.74 280.84Z" fill="#262262"/>
<path d="M248.74 309.02C245.9 319.03 243.63 329.23 241.64 339.45C239.69 349.69 238.04 359.99 236.93 370.34C234.82 391.01 234.19 412.07 238.37 432.4V432.43C238.48 432.95 238.15 433.46 237.63 433.56C237.11 433.67 236.61 433.34 236.5 432.82C234.26 422.51 233.37 412 233.18 401.5C233.14 391 233.93 380.53 235.08 370.13C236.28 359.72 238.02 349.39 240.05 339.13C242.13 328.87 244.51 318.69 247.36 308.6C247.47 308.22 247.86 308 248.25 308.1C248.63 308.21 248.85 308.6 248.75 308.99V309.01L248.74 309.02Z" fill="#262262"/>
<path d="M252.96 312.7C247.38 331.1 243.22 350 240.41 369.04C238.96 378.56 238.1 388.15 237.48 397.74C236.87 407.34 236.93 416.96 237.45 426.54V426.57C237.48 427.11 237.07 427.58 236.52 427.61C235.98 427.64 235.52 427.23 235.48 426.69C234.9 417.01 234.8 407.3 235.37 397.62C236.01 387.96 237.02 378.32 238.55 368.76C241.58 349.65 245.79 330.74 251.53 312.24C251.65 311.84 252.07 311.62 252.47 311.75C252.86 311.87 253.08 312.29 252.96 312.68V312.7Z" fill="#262262"/>
<path d="M220.39 312.93C221.54 321.41 223.7 329.91 226.54 338.08C229.34 346.28 233.02 354.18 237.45 361.63C237.64 361.94 237.55 362.36 237.23 362.55C236.92 362.74 236.51 362.64 236.31 362.34C231.66 354.89 227.77 346.97 224.76 338.72C221.71 330.47 219.36 322.01 217.97 313.23C217.87 312.57 218.32 311.94 218.98 311.84C219.64 311.74 220.27 312.19 220.37 312.85C220.37 312.85 220.37 312.86 220.37 312.87V312.94L220.39 312.93Z" fill="#262262"/>
<path d="M237.67 379.29C239.08 373.54 241.13 368.01 243.79 362.72C245.17 360.1 246.67 357.54 248.4 355.09C250.19 352.68 252.22 350.43 254.54 348.41C255.14 347.88 256.06 347.95 256.59 348.55C257.12 349.15 257.05 350.07 256.45 350.6C256.42 350.63 256.38 350.66 256.34 350.69L256.3 350.72C251.78 353.95 248.22 358.6 245.44 363.61C242.71 368.66 240.5 374.07 238.97 379.61V379.64C238.86 380 238.49 380.2 238.14 380.11C237.79 380.01 237.58 379.66 237.67 379.31V379.29Z" fill="#262262"/>
<path d="M222.88 303.03C224.43 308.93 219.42 315.36 219.42 315.36C219.42 315.36 211.9 312.23 210.35 306.33C208.8 300.43 213.81 294 213.81 294C213.81 294 221.33 297.13 222.89 303.03H222.88Z" fill="#262262"/>
<path d="M247.7 101.63C245.72 104.37 243.93 107.62 242.34 110.82C240.74 114.06 239.33 117.4 238.08 120.8C236.83 124.21 235.73 127.67 234.74 131.18C233.75 134.68 232.93 138.23 232.16 141.8C232.08 142.21 231.67 142.48 231.26 142.4C230.86 142.32 230.6 141.93 230.66 141.53C231.85 134.27 233.53 127.07 235.77 120.02C236.92 116.51 238.17 113.01 239.62 109.59C241.11 106.15 242.65 102.85 244.79 99.52C245.33 98.68 246.44 98.44 247.28 98.98C248.12 99.52 248.36 100.63 247.82 101.47C247.8 101.5 247.79 101.52 247.77 101.55L247.7 101.64V101.63Z" fill="#262262"/>
<path d="M255.04 97.66C251.99 102.93 243.91 103.98 243.91 103.98C243.91 103.98 240.77 96.46 243.82 91.18C246.87 85.9 254.96 84.86 254.96 84.86C254.96 84.86 258.09 92.38 255.04 97.67V97.66Z" fill="#262262"/>
<path d="M240.96 53.42C240.27 62.14 233.25 68.71 233.25 68.71C233.25 68.71 227.35 61.13 228.05 52.4C228.74 43.67 235.76 37.11 235.76 37.11C235.76 37.11 241.66 44.7 240.96 53.43V53.42Z" fill="#262262"/>
<path d="M302.04 88.85C300.22 90.83 298.54 93.33 297.09 95.81C295.63 98.32 294.37 100.96 293.27 103.66C292.23 106.39 291.26 109.16 290.56 112.01C289.8 114.85 289.29 117.74 288.85 120.65V120.68C288.78 121.14 288.34 121.46 287.88 121.39C287.43 121.32 287.12 120.91 287.16 120.46C287.49 117.47 287.9 114.48 288.56 111.54C289.16 108.58 290.04 105.68 291.01 102.81C292.04 99.96 293.24 97.17 294.66 94.47C296.11 91.76 297.65 89.21 299.76 86.71C300.32 86.05 301.3 85.97 301.96 86.52C302.62 87.08 302.7 88.06 302.15 88.72C302.14 88.73 302.13 88.75 302.11 88.76L302.03 88.85H302.04Z" fill="#262262"/>
<path d="M263.27 110.79C267.88 111.9 270.44 117.71 270.44 117.71C270.44 117.71 265.52 121.71 260.9 120.6C256.28 119.49 253.73 113.67 253.73 113.67C253.73 113.67 258.65 109.67 263.27 110.79Z" fill="#262262"/>
<path d="M307.04 60.77C303.84 64.27 297.52 63.71 297.52 63.71C297.52 63.71 296.39 57.47 299.6 53.96C302.8 50.46 309.12 51.02 309.12 51.02C309.12 51.02 310.25 57.26 307.04 60.77Z" fill="#262262"/>
<path d="M244.9 136.84C243.78 138.91 242.8 141.6 241.95 144.1C241.09 146.66 240.31 149.26 239.65 151.9C238.29 157.17 237.18 162.51 236.19 167.88C236.1 168.39 235.61 168.73 235.1 168.64C234.6 168.55 234.27 168.08 234.34 167.58C235.13 162.14 236.03 156.72 237.19 151.32C237.77 148.62 238.39 145.93 239.1 143.24C239.86 140.52 240.55 137.96 241.85 135.12C242.25 134.24 243.3 133.85 244.18 134.26C245.06 134.66 245.45 135.71 245.04 136.59C245.02 136.62 245.01 136.66 244.99 136.69L244.9 136.85V136.84Z" fill="#262262"/>
<path d="M251.71 131.93C249.38 137.56 241.5 139.65 241.5 139.65C241.5 139.65 237.4 132.61 239.73 126.97C242.06 121.33 249.94 119.24 249.94 119.24C249.94 119.24 254.04 126.28 251.71 131.92V131.93Z" fill="#262262"/>
<path d="M251.02 160.28C249.84 162.55 248.79 165.1 247.87 167.61C246.95 170.14 246.12 172.72 245.44 175.34C244.05 180.57 243.13 185.94 242.67 191.35C242.63 191.9 242.15 192.32 241.59 192.27C241.05 192.23 240.65 191.76 240.66 191.23C240.85 185.68 241.52 180.13 242.68 174.67C243.25 171.94 243.97 169.24 244.79 166.56C245.63 163.87 246.54 161.28 247.76 158.6C248.18 157.68 249.26 157.28 250.18 157.7C251.1 158.12 251.5 159.2 251.08 160.12C251.07 160.15 251.06 160.17 251.04 160.2L251 160.27L251.02 160.28Z" fill="#262262"/>
<path d="M257.68 155.3C255.41 160.96 247.57 163.15 247.57 163.15C247.57 163.15 243.38 156.16 245.65 150.49C247.91 144.83 255.77 142.64 255.77 142.64C255.77 142.64 259.95 149.63 257.69 155.3H257.68Z" fill="#262262"/>
<path d="M217.16 129C221.31 132.9 224.86 137.21 228.04 141.85C231.17 146.5 233.75 151.59 235.17 157.09C235.29 157.54 235.02 158.01 234.56 158.12C234.11 158.24 233.65 157.95 233.53 157.51C232.08 152.3 229.52 147.43 226.39 142.98C223.26 138.54 219.56 134.41 215.55 130.83L215.51 130.79C215.01 130.34 214.96 129.57 215.41 129.07C215.86 128.57 216.63 128.52 217.13 128.97L217.15 128.99L217.16 129Z" fill="#262262"/>
<path d="M207.16 128.8C211.2 133.36 219.33 132.78 219.33 132.78C219.33 132.78 220.92 124.79 216.88 120.22C212.84 115.65 204.71 116.23 204.71 116.23C204.71 116.23 203.13 124.22 207.16 128.8Z" fill="#262262"/>
<path d="M224.27 161.85C228.55 165.63 232.21 169.9 235.36 174.59C238.46 179.29 241.06 184.43 242.35 190C242.47 190.54 242.14 191.08 241.6 191.2C241.09 191.32 240.57 191.02 240.42 190.52V190.49C238.82 185.35 236.29 180.53 233.13 176.12C229.99 171.73 226.38 167.56 222.51 163.87L222.46 163.82C221.92 163.31 221.9 162.46 222.42 161.92C222.92 161.4 223.74 161.37 224.28 161.84L224.27 161.85Z" fill="#262262"/>
<path d="M214.18 161.75C218.22 166.31 226.35 165.73 226.35 165.73C226.35 165.73 227.94 157.74 223.9 153.17C219.86 148.6 211.73 149.18 211.73 149.18C211.73 149.18 210.15 157.17 214.18 161.75Z" fill="#262262"/>
<path d="M227.15 208.03C229.41 206.59 231.62 205.77 234.05 205.27C236.45 204.8 238.95 204.73 241.35 205.24C243.72 205.76 246.03 206.6 248.02 207.92C250.07 209.15 251.77 210.79 253.39 212.45C253.75 212.82 253.74 213.4 253.37 213.76C253.03 214.09 252.5 214.11 252.14 213.81L252.07 213.75C251.22 213.06 250.41 212.33 249.55 211.68C248.63 211.13 247.8 210.42 246.82 209.98C244.97 208.91 242.92 208.33 240.89 208.01C238.84 207.71 236.75 207.91 234.77 208.42C232.82 208.92 230.8 209.88 229.33 210.96L229.21 211.05C228.4 211.65 227.25 211.47 226.66 210.65C226.06 209.84 226.24 208.69 227.06 208.1C227.09 208.08 227.13 208.05 227.16 208.03H227.15Z" fill="#262262"/>
<path d="M228.31 220.38C232.07 215.59 230.04 207.69 230.04 207.69C230.04 207.69 221.89 207.56 218.12 212.36C214.35 217.15 216.38 225.05 216.38 225.05C216.38 225.05 224.53 225.17 228.3 220.38H228.31Z" fill="#262262"/>
<path d="M264.38 350.28C259.83 354.34 251.83 352.8 251.83 352.8C251.83 352.8 251.2 344.68 255.75 340.61C260.3 336.54 268.3 338.09 268.3 338.09C268.3 338.09 268.93 346.21 264.38 350.28Z" fill="#262262"/>
<path d="M264.93 385.43C266.31 379.68 268.29 374.13 270.96 368.83C273.67 363.59 277.11 358.56 281.87 354.71C282.39 354.29 283.16 354.37 283.58 354.89C284 355.41 283.92 356.18 283.4 356.6C283.4 356.6 283.38 356.61 283.37 356.62L283.34 356.64C278.88 360.02 275.41 364.71 272.64 369.72C269.92 374.77 267.65 380.15 266.08 385.7V385.73C265.98 386.05 265.65 386.23 265.34 386.14C265.03 386.05 264.85 385.74 264.92 385.43H264.93Z" fill="#262262"/>
<path d="M291.56 356.4C287.01 360.46 279.01 358.92 279.01 358.92C279.01 358.92 278.38 350.8 282.93 346.73C287.48 342.66 295.48 344.21 295.48 344.21C295.48 344.21 296.11 352.33 291.56 356.4Z" fill="#262262"/>
<path d="M316.67 291.06C318.16 282.42 320.6 274.03 323.83 265.89C327.06 257.76 331.2 249.95 336.31 242.73C336.89 241.91 338.03 241.71 338.85 242.29C339.67 242.87 339.87 244.01 339.29 244.83C339.29 244.83 339.29 244.84 339.28 244.85L339.24 244.91C336.74 248.32 334.32 251.82 332.29 255.57C330.24 259.3 328.34 263.13 326.68 267.07C323.32 274.93 320.49 283.09 318.43 291.39V291.43C318.3 291.91 317.82 292.2 317.34 292.08C316.89 291.97 316.6 291.52 316.68 291.07L316.67 291.06Z" fill="#262262"/>
<path d="M346.71 244.54C342.16 248.6 334.16 247.06 334.16 247.06C334.16 247.06 333.53 238.94 338.08 234.87C342.63 230.8 350.63 232.35 350.63 232.35C350.63 232.35 351.26 240.47 346.71 244.54Z" fill="#262262"/>
<path d="M283.65 279.39C284.62 282.71 286.2 286.08 287.82 289.29C289.51 292.5 291.4 295.63 293.48 298.64C295.52 301.68 297.85 304.53 300.22 307.33L303.89 311.46L307.71 315.47C307.96 315.72 307.96 316.13 307.71 316.38C307.47 316.61 307.09 316.62 306.84 316.41C304 313.99 301.24 311.45 298.67 308.73C296.13 305.97 293.63 303.16 291.41 300.12C289.17 297.1 287.05 293.95 285.36 290.55C283.67 287.14 282.24 283.62 281.76 279.65C281.7 279.13 282.07 278.65 282.6 278.59C283.07 278.53 283.5 278.83 283.63 279.27L283.66 279.38L283.65 279.39Z" fill="#262262"/>
<path d="M314.21 234.52C316.68 227.97 318.56 221.14 320.03 214.27C321.52 207.4 322.5 200.43 322.86 193.45C322.89 192.78 323.45 192.25 324.12 192.28C324.79 192.31 325.32 192.87 325.29 193.54V193.58C324.76 200.72 323.59 207.77 321.92 214.69C320.25 221.61 318.19 228.4 315.7 235.09C315.55 235.5 315.08 235.72 314.67 235.56C314.26 235.41 314.04 234.94 314.2 234.53V234.5L314.21 234.52Z" fill="#262262"/>
<path d="M287.53 225.79C289.1 229.54 291.13 233.33 293.27 236.93C295.42 240.55 297.79 244.06 300.37 247.42C302.97 250.75 305.72 253.99 308.74 256.96C311.7 259.99 314.86 262.83 318.1 265.56L316.61 267.43C313.24 264.71 309.89 261.95 306.84 258.85C303.72 255.83 300.89 252.53 298.1 249.2C295.35 245.83 292.84 242.27 290.53 238.57C288.25 234.83 286.22 231.02 284.7 226.77L287.53 225.78V225.79Z" fill="#262262"/>
<path d="M266.75 115.09C269.71 116.03 272.32 117.3 274.87 118.83C277.4 120.35 279.75 122.16 281.88 124.2C286.2 128.23 289.33 133.41 291.3 138.87C291.42 139.2 291.25 139.56 290.92 139.67C290.61 139.78 290.27 139.63 290.13 139.34V139.31C288.97 136.74 287.72 134.2 286.04 131.95C284.44 129.65 282.53 127.59 280.45 125.74C278.37 123.88 276.09 122.26 273.65 120.91C271.24 119.57 268.6 118.43 266.06 117.73L265.97 117.71C265.24 117.51 264.81 116.75 265.01 116.02C265.21 115.29 265.97 114.86 266.69 115.06C266.7 115.06 266.72 115.06 266.74 115.07L266.75 115.09Z" fill="#262262"/>
<path d="M284.21 88.56C285.3 82.95 287.31 77.66 290.03 72.67C292.71 67.68 296.27 63.13 300.45 59.24C300.99 58.74 301.84 58.77 302.34 59.31C302.84 59.85 302.81 60.7 302.27 61.2C302.27 61.2 302.25 61.22 302.24 61.23L302.21 61.25C298.14 64.79 294.58 68.99 291.84 73.71C289.06 78.38 286.9 83.55 285.69 88.82V88.88C285.58 89.28 285.18 89.54 284.77 89.44C284.37 89.35 284.12 88.96 284.2 88.56H284.21Z" fill="#262262"/>
<path d="M290.54 43.47C290.66 46.09 289.98 48.63 288.89 50.9C287.77 53.17 286.36 55.21 284.6 57.06L284.07 57.6L283.5 57.14C281.51 55.53 279.86 53.69 278.46 51.57C277.09 49.46 276.1 47.02 275.89 44.41C275.75 41.8 276.37 39.23 277.43 36.93C278.51 34.62 279.89 32.55 281.65 30.64L281.67 30.62L282.36 29.91L283.1 30.53C285.09 32.2 286.72 34.08 288.09 36.24C289.43 38.39 290.39 40.86 290.55 43.48L290.54 43.47ZM288.75 43.58C288.55 41.36 287.67 39.21 286.41 37.3C285.15 35.4 283.51 33.63 281.76 32.25L283.19 32.16H283.18C280.09 35.42 277.46 39.79 277.68 44.29C277.99 48.77 281.04 52.88 284.51 55.81L283.41 55.88C286.48 52.53 289 48.08 288.75 43.59V43.58Z" fill="#262262"/>
<path d="M283.37 56.41L283 44.6C282.86 40.65 282.44 36.73 282.07 32.78C282.04 32.51 282.24 32.28 282.51 32.25C282.75 32.23 282.97 32.39 283.03 32.62C284 36.51 284.49 40.5 284.84 44.49C285.15 48.49 285.2 52.5 284.61 56.52C284.56 56.86 284.24 57.1 283.9 57.05C283.6 57.01 283.38 56.75 283.37 56.45V56.42V56.41Z" fill="#262262"/>
<path d="M285 54.13C285.69 54.39 286.15 54.66 286.67 54.98C287.17 55.3 287.64 55.66 288.08 56.06C288.96 56.85 289.68 57.82 290.19 58.87C290.41 59.33 290.22 59.88 289.76 60.1C289.36 60.29 288.89 60.17 288.63 59.83L288.6 59.79C288.04 59.07 287.37 58.46 286.59 58.01C286.2 57.78 285.8 57.58 285.38 57.43C284.99 57.28 284.49 57.13 284.19 57.1C283.34 57 282.73 56.22 282.83 55.36C282.93 54.51 283.71 53.9 284.57 54C284.69 54.02 284.81 54.05 284.93 54.09L285 54.11V54.13Z" fill="#262262"/>
<path d="M284.39 57.11C284.09 57.15 283.59 57.29 283.2 57.44C282.78 57.6 282.38 57.79 281.99 58.02C281.21 58.47 280.53 59.07 279.97 59.8L279.94 59.84C279.63 60.24 279.06 60.31 278.67 60C278.33 59.73 278.23 59.27 278.41 58.89C278.91 57.84 279.63 56.87 280.51 56.08C280.95 55.68 281.42 55.32 281.92 55C282.44 54.67 282.9 54.41 283.59 54.14L283.65 54.12C284.45 53.81 285.35 54.22 285.66 55.02C285.97 55.82 285.56 56.72 284.76 57.03C284.64 57.08 284.51 57.11 284.39 57.12V57.11Z" fill="#262262"/>
<path d="M314.71 82.53C312.99 84.63 310.72 86.09 308.37 87.05C305.98 88 303.56 88.56 300.99 88.75L300.13 88.8L299.97 87.97C299.48 85.43 299.4 82.95 299.7 80.4C300.02 77.87 300.83 75.31 302.42 73.1C304.04 70.93 306.27 69.35 308.62 68.27C311.01 67.2 313.42 66.51 316.08 66.2H316.11L317.59 66.06L317.82 67.5C318.04 68.88 318.1 70.1 318.1 71.41C318.1 72.7 317.99 73.98 317.78 75.27C317.35 77.83 316.41 80.39 314.73 82.53H314.71ZM312.62 80.93C313.86 79.18 314.57 77.06 314.84 74.84C314.97 73.73 315.02 72.6 314.97 71.47C314.93 70.36 314.8 69.16 314.6 68.16L316.3 69.47H316.28C311.94 69.83 307.18 71.37 304.46 74.7C301.78 78.08 301.26 83.14 301.86 87.6L300.84 86.82C305.31 86.24 310.05 84.41 312.61 80.95L312.62 80.93Z" fill="#262262"/>
<path d="M300.4 87.26C302.82 84.17 305.13 80.96 307.63 77.93C310.18 74.93 312.44 71.71 314.8 68.53C315.04 68.2 315.49 68.13 315.82 68.37C316.11 68.58 316.19 68.97 316.04 69.28C314.26 72.89 312.02 76.24 309.73 79.54C308.57 81.18 307.28 82.73 305.87 84.18C304.46 85.63 303.03 87.03 301.41 88.29C301.09 88.54 300.63 88.48 300.38 88.16C300.17 87.89 300.19 87.51 300.38 87.25L300.4 87.26Z" fill="#262262"/>
<path d="M303.43 86.53C303.79 87.22 303.95 87.73 304.12 88.34C304.28 88.93 304.39 89.53 304.45 90.13C304.58 91.33 304.45 92.56 304.12 93.7C303.96 94.25 303.38 94.57 302.83 94.4C302.37 94.26 302.07 93.84 302.08 93.38V93.31C302.1 92.41 301.96 91.53 301.65 90.71C301.5 90.3 301.31 89.9 301.09 89.53C300.89 89.18 300.59 88.75 300.4 88.57C299.65 87.86 299.62 86.68 300.33 85.93C301.04 85.18 302.22 85.15 302.97 85.86C303.12 86 303.25 86.17 303.34 86.35L303.43 86.53Z" fill="#262262"/>
<path d="M300.66 88.79C300.45 88.62 299.99 88.39 299.61 88.23C299.21 88.06 298.79 87.93 298.36 87.83C297.5 87.63 296.61 87.6 295.72 87.75H295.66C295.11 87.85 294.59 87.47 294.51 86.92C294.44 86.46 294.68 86.03 295.08 85.85C296.15 85.35 297.35 85.06 298.56 85.01C299.16 84.98 299.77 85.01 300.38 85.08C301.01 85.17 301.54 85.25 302.27 85.51L302.46 85.58C303.43 85.92 303.95 86.99 303.61 87.96C303.27 88.93 302.2 89.45 301.23 89.11C301.02 89.04 300.83 88.93 300.67 88.8L300.66 88.79Z" fill="#262262"/>
<path d="M252.13 261.14C251.4 261.26 250.69 262.19 250.58 263.48C250.4 264.75 250.57 266.18 250.83 267.58C250.97 268.24 251.13 269.01 251.26 269.89C251.34 270.72 251.39 271.55 251.37 272.37C251.34 274.01 251.09 275.6 250.75 277.14C250.09 280.24 248.99 283.15 247.85 286C247.3 287.42 246.57 288.86 246.33 290.04C246.07 291.32 246.11 292.69 246.43 293.97C247.04 296.55 248.97 298.68 251.55 298.97C254.13 299.29 257 298.38 259.11 296.65C263.43 293.05 265.23 286.9 265.71 281.09V281.07C265.75 280.58 266.18 280.22 266.67 280.26C267.15 280.3 267.5 280.71 267.48 281.19C267.18 287.29 265.66 293.97 260.59 298.43C258.04 300.58 254.7 301.76 251.23 301.4C247.6 301.07 244.7 297.91 243.94 294.62C243.5 292.96 243.42 291.23 243.74 289.53C244.1 287.72 244.76 286.42 245.24 284.99C246.27 282.17 247.2 279.34 247.83 276.5C248.43 273.58 248.74 270.98 248.14 268C247.96 266.41 247.85 264.77 248.21 263.03C248.46 261.41 249.75 259.11 252.26 259.15C252.8 259.15 253.23 259.6 253.23 260.15C253.23 260.63 252.87 261.03 252.4 261.1L252.15 261.14H252.13Z" fill="#262262"/>
<path d="M280.79 281.69C280.23 285.29 278.63 288.27 276.79 291.11C274.91 293.92 272.62 296.47 269.88 298.53C267.15 300.56 263.92 302.12 260.44 302.59C256.96 303.09 253.43 302.52 250.15 301.39C249.45 301.15 249.08 300.38 249.32 299.68C249.56 298.98 250.33 298.61 251.03 298.85C251.04 298.85 251.06 298.85 251.07 298.87L251.14 298.9C254.02 300.02 257.08 300.65 260.15 300.34C263.21 300.07 266.18 298.82 268.69 296.93C271.22 295.07 273.38 292.68 275.15 290.04C276.89 287.42 278.39 284.43 278.85 281.51L278.87 281.4C278.95 280.87 279.45 280.5 279.98 280.59C280.51 280.67 280.88 281.17 280.79 281.7V281.69Z" fill="#262262"/>
<path d="M251.74 301.22C251.74 301.39 251.99 301.62 252.09 301.62H252.06L252 301.59L251.87 301.56L251.61 301.49L251.08 301.36L250.02 301.13C249.32 300.98 248.61 300.85 247.9 300.75C246.48 300.55 245.05 300.46 243.67 300.51C242.29 300.58 240.93 300.86 239.9 301.53C238.82 302.23 238.26 303.23 238.62 304.23C238.93 305.25 240.02 306.02 241.23 306.23C242.46 306.45 243.82 306.19 245.07 305.68C246.33 305.16 247.54 304.41 248.67 303.56C249.24 303.13 249.78 302.67 250.31 302.18L251.04 301.52C251.2 301.4 251.44 301.37 251.75 301.22H251.74ZM252.88 300.92C252.69 301.32 252.43 301.82 252.09 302.25C251.73 302.7 251.55 302.86 251.26 303.17C250.73 303.71 250.19 304.24 249.6 304.73C248.44 305.72 247.17 306.63 245.7 307.24C244.25 307.85 242.61 308.24 240.91 307.96C239.25 307.69 237.5 306.64 236.87 304.8C236.56 303.9 236.62 302.83 237.08 301.96C237.55 301.07 238.18 300.53 238.91 300.04C240.38 299.12 242.03 298.85 243.58 298.79C245.14 298.72 246.67 298.93 248.15 299.24C248.89 299.39 249.62 299.58 250.35 299.78L251.43 300.12L251.96 300.31L252.23 300.41L252.36 300.46L252.43 300.49H252.46C252.58 300.52 252.85 300.75 252.87 300.93L252.88 300.92Z" fill="#262262"/>
<path d="M254.89 301.14C255 301 255.35 300.94 255.45 300.99H255.49L255.56 301.01L255.7 301.04L255.98 301.09L256.53 301.21L257.63 301.48C258.36 301.67 259.08 301.88 259.8 302.13C261.23 302.62 262.65 303.2 263.97 304.04C265.27 304.87 266.56 305.93 267.37 307.46C267.76 308.25 268.03 309.05 267.98 310.05C267.94 311.03 267.44 311.98 266.72 312.62C265.25 313.91 263.17 313.97 261.6 313.33C259.99 312.69 258.77 311.51 257.84 310.24C256.89 308.97 256.27 307.53 255.78 306.08C255.53 305.36 255.34 304.62 255.17 303.89C255.09 303.48 255.01 303.25 254.92 302.69C254.84 302.15 254.87 301.59 254.9 301.15L254.89 301.14ZM255.72 301.97C255.91 302.25 256.09 302.41 256.16 302.59L256.45 303.53C256.66 304.22 256.9 304.89 257.18 305.55C257.74 306.86 258.4 308.11 259.23 309.18C260.06 310.25 261.09 311.15 262.26 311.57C263.4 311.98 264.7 311.92 265.49 311.22C266.31 310.56 266.32 309.41 265.76 308.26C265.22 307.15 264.2 306.21 263.05 305.44C261.89 304.68 260.61 304.04 259.29 303.48C258.63 303.21 257.95 302.95 257.26 302.73L256.23 302.41L255.71 302.26L255.45 302.19L255.32 302.16L255.26 302.14H255.23C255.31 302.17 255.64 302.11 255.73 301.97H255.72Z" fill="#262262"/>
<path d="M252.65 301.47C251.07 303.16 249.75 305.21 249.1 307.34C248.77 308.41 248.68 309.52 248.79 310.59C248.86 311.68 249.35 312.68 249.82 313.65L248.79 313.15C249.72 312.95 250.8 312.34 251.6 311.6C252.44 310.86 253.08 309.9 253.53 308.83C254 307.76 254.21 306.57 254.4 305.37C254.52 304.15 254.51 302.91 254.44 301.66V301.64C254.42 301.35 254.64 301.1 254.93 301.08C255.2 301.06 255.44 301.26 255.48 301.52C255.69 302.81 255.83 304.11 255.84 305.45C255.78 306.78 255.68 308.15 255.17 309.46C254.71 310.76 253.98 312.02 252.95 313.03C251.89 314.04 250.69 314.76 249.12 315.11L248.41 315.27L248.09 314.61C247.51 313.41 247 312.12 246.94 310.74C246.85 309.39 247.03 308.03 247.47 306.78C248.38 304.29 249.99 302.24 251.97 300.63C252.2 300.44 252.53 300.48 252.72 300.71C252.89 300.92 252.87 301.22 252.7 301.41L252.67 301.44L252.65 301.47Z" fill="#262262"/>
<path d="M290.64 268.33C292.03 268.9 293.58 269.9 294.14 271.71C294.69 273.51 293.74 275.46 292.47 276.47C291.26 277.54 289.93 278.26 288.51 278.86C287.78 279.15 287.09 279.42 286.17 279.55C285.27 279.64 284.73 279.62 284.19 279.78C283.15 280.05 282.17 280.9 281.25 281.85C280.31 282.67 279.43 284.5 276.86 284.59C275.67 284.47 275 283.97 274.45 283.78C274.17 283.66 273.93 283.61 273.69 283.55C273.18 283.45 272.63 283.26 272.22 282.97C270.55 281.77 269.97 280.27 269.43 278.69L271.66 279.08C270.55 280.36 269.61 280.8 268.53 281.44C267.42 282.07 265.76 282.47 264.35 281.98C261.53 281.01 260.14 278.78 258.92 276.83L258.07 275.3C257.82 274.86 257.65 274.57 257.35 274.31C256.79 273.78 255.89 273.47 254.76 273.05C253.66 272.65 252.33 271.93 251.48 270.8C250.5 269.62 250.3 267.99 250.47 266.71C250.62 265.39 251.06 264.22 251.6 263.14C251.86 262.59 252.16 262.08 252.48 261.57L252.99 260.8C253.11 260.64 252.88 260.93 252.92 261C252.82 261.26 252.93 261.57 252.99 261.67C253.17 261.92 253.1 261.8 253.04 261.77C250.85 260.86 249.08 256.5 251.86 254.46L253.16 253.45C253.31 253.31 253.39 253.22 253.44 253.14C253.61 252.83 253.75 252.5 253.98 252.22C254.84 251.07 256.18 250.41 257.46 250.26C259.96 249.91 262.93 251.11 263.75 253.83C263.87 254.21 263.65 254.62 263.27 254.73C262.89 254.84 262.5 254.64 262.37 254.27V254.25C261.78 252.51 259.57 251.67 257.73 252.03C256.8 252.18 256.02 252.69 255.57 253.35C255.44 253.51 255.39 253.72 255.29 253.89C255.12 254.32 254.83 254.68 254.58 254.92C254.07 255.42 253.63 255.72 253.29 256.05C252.61 256.71 252.61 257.06 252.77 258.04C253 258.85 253.35 259.21 254.41 259.87C254.57 260.01 254.74 260.05 255.06 260.55C255.21 260.76 255.3 261.22 255.21 261.62C255.17 261.81 254.9 262.24 254.93 262.19L254.53 262.83C254.27 263.28 254.02 263.74 253.81 264.21C253.38 265.14 253.05 266.11 252.95 267.02C252.67 268.85 253.72 270.03 255.68 270.74C256.63 271.11 257.94 271.47 259.06 272.48C259.61 272.95 260.03 273.64 260.32 274.17L261.1 275.58C262.15 277.37 263.55 279.14 265.08 279.6C265.83 279.85 266.54 279.69 267.37 279.26C268.23 278.82 269.27 278.1 269.63 277.67L269.69 277.6C270.14 277.07 270.95 277.01 271.48 277.46C271.67 277.62 271.8 277.83 271.87 278.05C272.2 279.15 272.89 280.45 273.61 280.9C273.79 281.03 273.94 281.06 274.12 281.12C274.58 281.21 275.04 281.34 275.42 281.5C276.2 281.84 276.77 282.14 277.04 282.14C277.53 282.25 278.53 281.3 279.52 280.17C280.59 279.11 281.87 277.98 283.66 277.54C284.51 277.33 285.42 277.36 285.95 277.32C286.46 277.27 287.13 277.06 287.74 276.84C288.97 276.36 290.21 275.73 291.22 274.97C292.21 274.25 292.72 273.2 292.51 272.16C292.29 271.12 291.28 270.24 290.1 269.68C289.74 269.51 289.58 269.08 289.74 268.72C289.9 268.37 290.32 268.21 290.68 268.35L290.64 268.33Z" fill="#262262"/>
<path d="M253.71 253.64C254.31 253.64 254.74 253.73 255.23 253.88C255.7 254.03 256.15 254.27 256.54 254.57C257.34 255.17 257.84 256.05 258.08 256.91C258.16 257.18 258 257.46 257.73 257.54C257.49 257.61 257.23 257.48 257.12 257.26C256.8 256.6 256.33 256.06 255.75 255.77C255.2 255.47 254.44 255.39 253.92 255.48C253.42 255.59 252.92 255.26 252.82 254.76C252.71 254.26 253.04 253.76 253.54 253.66C253.59 253.65 253.67 253.64 253.72 253.64H253.71Z" fill="#262262"/>
<path d="M254.47 260.29C256.64 262 257.98 264.52 259.14 266.66C259.76 267.72 260.45 268.72 261.22 269.49C261.61 269.87 262.02 270.18 262.42 270.35C262.62 270.42 262.82 270.48 263.02 270.5L263.97 270.6C265.28 270.75 266.66 270.99 268.01 271.56C269.33 272.08 270.67 273.2 271.43 274.15C272.72 275.46 275.54 276.29 276.67 275.4C277.49 274.85 278.33 273.89 279.32 272.96C279.83 272.5 280.38 272.02 281.09 271.62C281.71 271.2 282.91 270.99 283.27 270.93C285.43 270.41 287.93 269.37 289.27 267.93C289.58 267.52 289.69 267.36 289.71 266.87C289.76 266.41 289.67 265.95 289.49 265.5C289.12 264.59 288.36 263.76 287.43 263.11C285.56 261.79 283.13 261.15 280.72 261.14C280.32 261.14 279.99 260.83 279.98 260.43C279.98 260.05 280.28 259.73 280.66 259.69C283.33 259.51 286.1 259.98 288.54 261.42C289.75 262.13 290.85 263.2 291.52 264.62C291.84 265.33 292.04 266.15 292 266.96C292.05 267.75 291.62 268.84 291.12 269.4C289.02 271.78 286.52 272.71 283.82 273.45C281.66 273.54 280.67 275.78 278.17 277.61C276.69 278.69 274.75 278.61 273.39 278.18C271.95 277.74 270.65 277.08 269.52 275.87C268.1 273.91 266.14 273.25 263.66 272.9L262.71 272.77C262.27 272.71 261.86 272.57 261.48 272.41C260.72 272.06 260.13 271.55 259.62 271.02C258.6 269.96 257.96 268.76 257.35 267.6C256.24 265.21 255.2 263.09 253.51 261.4L253.48 261.36C253.19 261.07 253.19 260.6 253.48 260.31C253.75 260.04 254.17 260.02 254.46 260.25L254.47 260.29Z" fill="#262262"/>
<path d="M274.37 256.98C273.26 254.6 270.77 253.04 268.23 253.53C266.91 253.69 265.62 254.07 264.48 254.67C263.36 255.24 262.31 256.16 262.01 257.01C261.69 257.39 262.46 259.06 262.93 260.19C263.48 261.38 264.21 262.42 265.13 262.97C265.58 263.25 266.07 263.43 266.61 263.48C267.25 263.55 267.96 263.57 268.65 263.57C270.05 263.58 271.49 263.47 273.19 263.71C274.03 263.84 274.94 264.13 275.73 264.63C276.26 264.97 276.8 265.22 277.39 265.41C278.53 265.8 279.86 265.8 280.36 265.35C280.62 265.11 280.79 264.79 280.73 264.51C280.7 264.11 280.48 263.53 280.15 263.01C279.51 261.95 278.58 260.97 277.54 260.21C276.5 259.45 275.31 258.88 274.12 258.74C272.9 258.56 271.86 258.96 270.42 259.54C269.06 260.06 267.72 260.61 266.23 261.02C264.77 261.47 262.95 261.52 261.48 260.93L261.42 260.91C261.05 260.76 260.87 260.34 261.02 259.97C261.16 259.61 261.56 259.43 261.92 259.55C264.45 260.4 266.97 258.79 269.66 257.7C270.86 257.14 272.61 256.36 274.33 256.56C276.03 256.69 277.59 257.36 278.92 258.26C280.24 259.19 281.38 260.32 282.26 261.73C282.7 262.43 283.09 263.21 283.22 264.26C283.36 265.43 282.83 266.57 282 267.28C280.14 268.68 278.18 268.31 276.63 267.89C275.83 267.65 275.04 267.3 274.34 266.86C273.89 266.59 273.39 266.43 272.8 266.34C271.61 266.17 270.14 266.31 268.64 266.26C267.88 266.24 267.13 266.21 266.33 266.12C265.42 266.02 264.51 265.68 263.74 265.19C262.18 264.18 261.25 262.68 260.61 261.24C260.28 260.51 260.03 259.77 259.82 259.04C259.61 258.54 259.27 257.01 259.77 256.11C260.6 254.24 262.08 253.32 263.5 252.59C264.96 251.89 266.52 251.51 268.1 251.44C269.69 251.31 271.47 251.7 272.83 252.65C274.21 253.61 275.17 254.9 275.78 256.44C275.93 256.81 275.74 257.23 275.37 257.38C275.01 257.52 274.61 257.36 274.45 257.01L274.42 256.94L274.37 256.98Z" fill="#262262"/>
<path d="M279.33 267.39C279 268.53 278.56 269.44 277.97 270.38C277.4 271.29 276.6 272.17 275.72 272.79C273.97 274.01 272 274.82 269.77 274.82C269.36 274.82 269.02 274.48 269.02 274.07C269.02 273.68 269.32 273.37 269.69 273.33H269.76C271.4 273.16 273.12 272.28 274.38 271.14C275.02 270.57 275.47 269.94 275.85 269.18C276.22 268.45 276.51 267.56 276.64 266.83V266.79C276.77 266.04 277.48 265.54 278.23 265.67C278.98 265.8 279.48 266.51 279.35 267.25C279.35 267.3 279.33 267.35 279.32 267.4L279.33 267.39Z" fill="#262262"/>
<path d="M250.01 188.65C249.61 189.26 249.83 190.39 250.68 191.33C251.48 192.29 252.62 193.12 253.81 193.86C256.5 195.23 259.03 197.75 260.71 200.26C262.52 202.8 263.88 205.55 265.18 208.27C265.84 209.62 266.4 211.1 267.07 212.04C267.79 213.08 268.79 213.97 269.91 214.61C272.14 215.91 274.98 216.01 276.93 214.31C278.88 212.66 280.15 209.98 280.29 207.3C280.46 204.58 279.66 201.79 278.37 199.26C277.12 196.69 275.39 194.33 273.43 192.19C273.09 191.83 273.1 191.26 273.46 190.92C273.81 190.59 274.37 190.61 274.71 190.94C278.94 195.2 282.72 200.79 282.51 207.42C282.34 210.68 280.98 213.88 278.41 216.13C275.76 218.49 271.58 218.56 268.66 216.93C267.16 216.15 265.83 215.06 264.79 213.7C263.71 212.22 263.22 210.87 262.51 209.58C261.16 206.96 259.73 204.41 258.12 202.07C256.42 199.69 254.81 197.72 252.26 196.15C250.99 195.21 249.74 194.19 248.74 192.77C247.73 191.51 246.95 189.04 248.65 187.26C249.01 186.88 249.62 186.87 250 187.23C250.34 187.55 250.38 188.06 250.14 188.44L250 188.65H250.01Z" fill="#262262"/>
<path d="M278.68 215.61C278.79 215.71 279.1 215.68 279.16 215.63L279.13 215.65L279.07 215.68L278.96 215.75L278.74 215.89L278.29 216.18L277.41 216.78C276.83 217.19 276.27 217.62 275.73 218.07C274.65 218.97 273.63 219.95 272.78 221C271.94 222.06 271.26 223.24 271.1 224.41C270.93 225.65 271.3 226.59 272.16 226.94C273.02 227.36 274.22 227.11 275.17 226.43C276.14 225.74 276.87 224.62 277.36 223.39C277.85 222.15 278.14 220.79 278.3 219.41C278.38 218.72 278.42 218.01 278.44 217.31V216.34C278.47 216.14 278.59 215.93 278.69 215.6L278.68 215.61ZM279.18 214.67C279.33 215.07 279.51 215.58 279.58 216.09C279.66 216.64 279.65 216.88 279.69 217.29C279.74 218.03 279.77 218.77 279.75 219.52C279.71 221.02 279.55 222.55 279.03 224.03C278.53 225.5 277.73 226.98 276.39 228.07C275.08 229.14 273.07 229.72 271.24 228.92C270.34 228.53 269.59 227.71 269.27 226.76C268.95 225.79 268.99 224.95 269.14 224.09C269.49 222.39 270.43 221.04 271.44 219.9C272.46 218.75 273.64 217.81 274.85 216.95C275.46 216.52 276.08 216.12 276.71 215.74L277.67 215.19L278.16 214.93L278.41 214.8L278.53 214.74L278.59 214.71L278.62 214.69C278.7 214.62 279.02 214.58 279.16 214.68L279.18 214.67Z" fill="#262262"/>
<path d="M280.74 213.32C280.72 213.16 280.89 212.89 280.99 212.85L281.02 212.83L281.08 212.79L281.19 212.7L281.41 212.53L281.86 212.2L282.78 211.58C283.4 211.18 284.04 210.81 284.69 210.45C285.99 209.74 287.36 209.12 288.84 208.73C290.31 208.35 291.92 208.12 293.56 208.56C294.38 208.8 295.13 209.14 295.83 209.83C296.5 210.51 296.88 211.5 296.84 212.43C296.77 214.34 295.41 215.82 293.93 216.54C292.41 217.27 290.76 217.37 289.23 217.21C287.68 217.06 286.23 216.55 284.86 215.95C283.48 215.22 282.28 214.92 280.74 213.33V213.32ZM281.8 213.28C282.73 213.2 284.09 214.27 285.39 214.63C286.7 215.11 288.05 215.47 289.39 215.6C290.72 215.72 292.07 215.58 293.17 215.02C294.25 214.48 295.05 213.43 295.06 212.39C295.12 211.35 294.31 210.56 293.1 210.2C291.93 209.85 290.56 209.96 289.24 210.28C287.92 210.61 286.6 211.11 285.32 211.7C284.68 212 284.05 212.32 283.43 212.66L282.5 213.18L282.04 213.45L281.81 213.59L281.7 213.66L281.65 213.69L281.62 213.71C281.7 213.68 281.85 213.42 281.81 213.28H281.8Z" fill="#262262"/>
<path d="M279.41 215.16C279.54 217.44 280.23 219.75 281.34 221.63C281.9 222.57 282.66 223.36 283.5 223.97C284.33 224.63 285.38 224.88 286.37 225.23L285.21 225.69C285.7 224.93 286.04 223.76 286.06 222.7C286.1 221.6 285.83 220.49 285.37 219.45C284.93 218.39 284.2 217.44 283.46 216.5C282.66 215.6 281.76 214.78 280.81 213.99H280.8C280.6 213.81 280.57 213.51 280.73 213.31C280.89 213.12 281.16 213.08 281.36 213.21C282.43 213.92 283.46 214.68 284.43 215.56C285.34 216.49 286.27 217.47 286.87 218.7C287.51 219.9 287.94 221.26 287.99 222.67C288.03 224.11 287.81 225.46 287.04 226.88L286.69 227.53L285.88 227.34C283.26 226.73 281 224.79 279.83 222.48C278.65 220.14 278.34 217.61 278.46 215.12C278.47 214.85 278.7 214.65 278.96 214.66C279.21 214.67 279.4 214.87 279.42 215.11V215.15L279.41 215.16Z" fill="#262262"/>
<path d="M280.89 165.74C282.23 165.13 283.96 164.71 285.57 165.51C287.18 166.3 287.91 168.23 287.79 169.78C287.73 171.33 287.37 172.76 286.87 174.17C286.6 174.88 286.34 175.56 285.84 176.28C285.32 176.97 284.94 177.37 284.68 177.89C284.17 178.86 284.13 180.16 284.22 181.47C284.21 182.7 284.92 184.53 283.33 186.38C282.48 187.14 281.68 187.3 281.17 187.57C280.9 187.69 280.69 187.84 280.49 187.98C280.08 188.28 279.59 188.55 279.12 188.65C277.17 189.06 275.7 188.51 274.2 187.86L275.95 186.52C276.15 188.17 275.86 189.15 275.6 190.36C275.33 191.59 274.51 193.07 273.21 193.77C270.61 195.17 268.07 194.68 265.84 194.27L264.17 193.86C263.69 193.74 263.38 193.68 262.99 193.72C262.26 193.77 261.44 194.22 260.38 194.74C259.36 195.26 257.93 195.73 256.54 195.58C255.02 195.5 253.72 194.54 252.91 193.56C252.07 192.56 251.52 191.46 251.1 190.36C250.89 189.8 250.72 189.24 250.56 188.67L250.35 187.78C250.31 187.61 250.37 187.94 250.45 187.97C250.58 188.21 250.86 188.33 250.96 188.35C251.25 188.39 251.12 188.35 251.05 188.38C248.93 189.33 244.69 187.68 245.06 184.39L245.19 182.78C245.19 182.57 245.17 182.45 245.14 182.35C245.03 182.02 244.88 181.71 244.83 181.36C244.57 179.98 244.97 178.59 245.72 177.56C247.12 175.52 249.95 174.17 252.48 175.38C252.84 175.55 252.99 175.99 252.82 176.35C252.65 176.71 252.22 176.86 251.86 176.7H251.84C250.22 175.94 248.12 176.96 247.14 178.52C246.62 179.29 246.45 180.2 246.63 180.98C246.66 181.18 246.78 181.36 246.83 181.56C247.02 181.97 247.08 182.4 247.09 182.74C247.1 183.43 247.02 183.96 247.03 184.42C247.03 185.36 247.33 185.64 248.16 186.16C248.91 186.53 249.43 186.51 250.61 186.17C250.81 186.15 250.96 186.05 251.52 186.15C251.77 186.18 252.15 186.41 252.37 186.74C252.49 186.9 252.61 187.36 252.59 187.32L252.79 188.03C252.94 188.52 253.11 189 253.32 189.46C253.71 190.39 254.18 191.28 254.78 191.95C255.92 193.36 257.44 193.36 259.24 192.42C260.13 191.98 261.28 191.27 262.76 191.14C263.47 191.05 264.26 191.21 264.84 191.36L266.37 191.74C268.36 192.18 270.56 192.35 271.89 191.57C272.56 191.2 272.91 190.61 273.17 189.72C273.44 188.8 273.62 187.58 273.57 187.04V186.91C273.49 186.24 273.98 185.64 274.65 185.58C274.88 185.56 275.11 185.6 275.31 185.7C276.33 186.21 277.71 186.6 278.55 186.39C278.77 186.35 278.9 186.26 279.07 186.16C279.44 185.89 279.83 185.66 280.2 185.5C280.96 185.17 281.57 184.97 281.78 184.76C282.25 184.43 282.21 183.04 282.08 181.58C282.04 180.11 282.08 178.46 282.95 176.93C283.36 176.19 283.97 175.58 284.31 175.16C284.64 174.74 284.93 174.11 285.18 173.51C285.67 172.29 286.05 170.96 286.15 169.7C286.28 168.47 285.82 167.34 284.87 166.79C283.92 166.25 282.59 166.42 281.39 166.92C281.06 167.06 280.69 166.91 280.55 166.58C280.41 166.26 280.56 165.89 280.88 165.74H280.89Z" fill="#262262"/>
<path d="M245.67 182.54C246.06 182.11 246.42 181.86 246.85 181.61C247.27 181.37 247.74 181.21 248.21 181.12C249.17 180.94 250.14 181.17 250.92 181.57C251.16 181.7 251.26 181.99 251.13 182.24C251.02 182.46 250.76 182.55 250.53 182.48C249.84 182.27 249.14 182.25 248.54 182.48C247.95 182.67 247.38 183.17 247.11 183.62V183.64C246.84 184.06 246.28 184.19 245.86 183.93C245.44 183.67 245.31 183.11 245.58 182.69C245.61 182.65 245.64 182.6 245.67 182.56V182.54Z" fill="#262262"/>
<path d="M250.96 186.42C253.64 185.99 256.36 186.69 258.67 187.26C259.85 187.51 261.03 187.67 262.09 187.63C262.62 187.6 263.11 187.51 263.5 187.34C263.69 187.25 263.85 187.14 264 187.02L264.71 186.4C265.69 185.56 266.79 184.71 268.11 184.12C269.37 183.5 271.08 183.29 272.28 183.4C274.07 183.38 276.61 181.97 276.74 180.49C276.9 179.52 276.77 178.27 276.77 176.94C276.77 176.27 276.81 175.56 276.99 174.8C277.11 174.08 277.73 173.12 277.95 172.81C279.05 170.89 279.97 168.38 279.79 166.41C279.69 165.9 279.64 165.69 279.28 165.35C278.97 165.01 278.56 164.77 278.11 164.59C277.19 164.26 276.07 164.26 274.99 164.53C272.78 165.02 270.76 166.39 269.11 168.08C268.83 168.37 268.37 168.39 268.08 168.11C267.81 167.86 267.79 167.43 268 167.14C269.61 165.05 271.86 163.41 274.51 162.63C275.84 162.27 277.33 162.19 278.78 162.66C279.5 162.9 280.2 163.3 280.76 163.87C281.35 164.36 281.82 165.37 281.9 166.09C282.18 169.14 281.18 171.55 279.95 173.98C278.56 175.65 279.54 177.88 279.21 180.87C279.01 182.63 277.68 183.96 276.49 184.68C275.23 185.44 273.9 185.96 272.27 185.99C269.92 185.76 268.16 186.68 266.25 188.25L265.52 188.84C265.18 189.12 264.81 189.33 264.42 189.49C263.65 189.8 262.88 189.9 262.16 189.91C260.71 189.93 259.42 189.59 258.17 189.25C255.7 188.45 253.5 187.78 251.15 187.85H251.1C250.7 187.86 250.36 187.55 250.35 187.15C250.34 186.78 250.6 186.47 250.96 186.41V186.42Z" fill="#262262"/>
<path d="M261.83 169.86C259.41 169.03 256.57 169.73 255.17 171.91C253.63 173.91 252.66 176.96 253.52 178.83C253.66 179.39 255.36 179.92 256.5 180.34C257.74 180.72 259 180.87 260.02 180.56C260.53 180.41 260.98 180.16 261.37 179.8C261.84 179.37 262.32 178.87 262.78 178.37C263.7 177.35 264.59 176.24 265.9 175.18C266.56 174.66 267.37 174.2 268.26 173.96C268.86 173.81 269.39 173.58 269.92 173.29C270.96 172.73 271.83 171.77 271.84 171.13C271.84 170.79 271.73 170.47 271.49 170.33C271.19 170.09 270.63 169.86 270.04 169.75C268.85 169.5 267.53 169.52 266.28 169.76C265.04 170.02 263.85 170.48 262.95 171.25C262.01 172 261.59 173.01 261.04 174.44C260.5 175.76 260 177.1 259.32 178.45C258.68 179.8 257.51 181.16 256.11 181.83L256.05 181.86C255.69 182.03 255.26 181.88 255.08 181.52C254.91 181.17 255.05 180.75 255.39 180.57C257.68 179.33 258.25 176.45 259.23 173.77C259.61 172.53 260.22 170.75 261.5 169.63C262.73 168.49 264.25 167.79 265.79 167.45C267.34 167.12 268.92 167.05 270.53 167.35C271.33 167.5 272.16 167.73 273.01 168.34C273.95 169.02 274.43 170.17 274.38 171.25C274.15 173.55 272.56 174.71 271.23 175.56C270.53 175.98 269.74 176.31 268.96 176.53C268.47 176.67 268.03 176.93 267.57 177.29C266.65 178.02 265.79 179.19 264.73 180.22C264.2 180.75 263.68 181.26 263.07 181.77C262.39 182.35 261.53 182.77 260.67 182.99C258.91 183.42 257.23 183.07 255.78 182.56C255.05 182.3 254.35 181.99 253.69 181.66C253.18 181.46 251.92 180.74 251.6 179.8C250.83 178 251.14 176.35 251.56 174.86C252.03 173.36 252.79 172 253.76 170.81C254.7 169.58 256.13 168.55 257.71 168.18C259.3 167.8 260.87 167.95 262.4 168.52C262.77 168.66 262.96 169.08 262.83 169.45C262.69 169.82 262.29 170.01 261.92 169.88L261.86 169.86H261.83Z" fill="#262262"/>
<path d="M272.14 173.57C273.72 174.99 274.55 177.25 274.41 179.4C274.26 181.54 273.36 183.71 271.62 185.03C271.3 185.27 270.85 185.21 270.6 184.89C270.42 184.66 270.41 184.35 270.54 184.11L270.57 184.06C271.37 182.55 271.74 180.91 271.76 179.29C271.78 177.67 271.57 176.08 270.97 174.39V174.36C270.82 173.98 271.02 173.55 271.4 173.42C271.66 173.33 271.95 173.39 272.14 173.57Z" fill="#262262"/>
<path d="M286.89 173.24C288.24 176.67 289.14 180.19 289.76 183.8C290.39 187.4 290.61 191.1 290.33 194.79C290.02 198.46 289.36 202.21 287.63 205.59C285.96 208.98 283.22 211.84 279.91 213.59L279.27 212.46C282.15 210.49 284.34 207.82 285.73 204.7C287.18 201.6 287.66 198.09 287.82 194.64C288.08 187.69 286.98 180.6 285.41 173.72L286.88 173.23L286.89 173.24Z" fill="#262262"/>
<path d="M303.7 145.23C302.86 145.72 302.62 147.09 303.11 148.33C303.52 149.6 304.29 150.81 305.14 151.96C307.14 154.22 308.45 157.36 309.19 160.27C310 163.24 310.37 166.27 310.67 169.26C310.84 170.74 310.86 172.33 311.2 173.48C311.56 174.72 312.19 175.92 313.03 176.92C314.71 178.94 317.36 179.99 319.79 179.11C322.23 178.26 324.36 176.2 325.47 173.74C327.75 168.67 326.66 162.44 324.57 157.09C324.42 156.72 324.59 156.3 324.96 156.14C325.32 155.99 325.74 156.17 325.9 156.52C328.3 161.99 329.87 168.5 327.4 174.61C326.1 177.59 323.68 180.08 320.49 181.26C317.18 182.53 313.29 181.04 311.2 178.49C310.1 177.23 309.28 175.74 308.85 174.11C308.42 172.38 308.47 170.94 308.3 169.47C308.05 166.53 307.7 163.61 307.05 160.79C306.38 157.93 305.43 155.39 303.59 153.03C302.74 151.74 301.94 150.37 301.51 148.76C301.04 147.28 301.15 144.93 303.13 143.94C303.47 143.77 303.89 143.91 304.06 144.25C304.23 144.58 304.1 144.98 303.79 145.16L303.68 145.23H303.7Z" fill="#262262"/>
<path d="M320.95 180.9C321.02 181.03 321.31 181.12 321.38 181.08H321.35L321.29 181.1L321.16 181.12L320.9 181.17L320.38 181.29L319.35 181.54C318.66 181.71 317.98 181.91 317.31 182.13C315.97 182.57 314.67 183.11 313.47 183.77C312.29 184.44 311.21 185.29 310.6 186.34C309.96 187.43 309.92 188.56 310.66 189.28C311.37 190.04 312.67 190.26 313.84 189.92C315.03 189.59 316.11 188.76 317.01 187.77C317.91 186.77 318.64 185.58 319.27 184.33C319.97 183.17 320.23 181.46 320.95 180.88V180.9ZM321.75 180.21C321.7 182.42 321.03 183.45 320.52 184.93C319.93 186.3 319.22 187.66 318.19 188.83C317.19 190 315.92 191.06 314.31 191.56C312.75 192.05 310.75 191.9 309.39 190.55C308.72 189.89 308.32 188.92 308.35 187.96C308.38 186.98 308.7 186.22 309.14 185.48C310.04 184.04 311.37 183.1 312.71 182.38C314.06 181.65 315.49 181.18 316.92 180.8C317.64 180.61 318.36 180.45 319.09 180.32L320.18 180.15L320.73 180.08L321.01 180.05H321.15L321.22 180.03H321.25C321.35 179.99 321.66 180.07 321.75 180.2V180.21Z" fill="#262262"/>
<path d="M323.69 179.5C323.72 179.34 323.98 179.15 324.09 179.15H324.12L324.19 179.12L324.32 179.08L324.59 179.01L325.13 178.87L326.21 178.62C326.93 178.47 327.66 178.34 328.4 178.24C329.87 178.04 331.37 177.94 332.9 178.1C334.41 178.26 336 178.62 337.39 179.62C338.08 180.14 338.66 180.72 339.07 181.62C339.46 182.5 339.47 183.57 339.08 184.44C338.31 186.21 336.5 187.11 334.86 187.23C333.18 187.36 331.6 186.85 330.24 186.15C328.86 185.44 327.69 184.45 326.63 183.4C326.1 182.87 325.61 182.32 325.13 181.75C324.88 181.43 324.71 181.25 324.39 180.81C324.09 180.39 323.87 179.9 323.7 179.51L323.69 179.5ZM324.69 179.84C324.97 180.02 325.2 180.09 325.35 180.23L326.02 180.94C326.51 181.45 327.01 181.95 327.54 182.41C328.6 183.32 329.73 184.14 330.94 184.73C332.14 185.31 333.46 185.66 334.68 185.52C335.88 185.39 336.99 184.7 337.35 183.73C337.76 182.8 337.32 181.79 336.32 181.01C335.37 180.26 334.05 179.87 332.7 179.69C331.34 179.52 329.94 179.51 328.53 179.59C327.82 179.63 327.12 179.71 326.42 179.8L325.37 179.96L324.85 180.06L324.59 180.11L324.46 180.14H324.4L324.37 180.16C324.45 180.16 324.69 179.98 324.7 179.83L324.69 179.84Z" fill="#262262"/>
<path d="M321.78 180.74C321.11 182.93 320.84 185.3 321.19 187.48C321.36 188.58 321.77 189.6 322.33 190.51C322.87 191.45 323.74 192.13 324.58 192.79H323.56C324.32 192.21 325.03 191.2 325.41 190.19C325.83 189.16 325.96 188.01 325.88 186.86C325.82 185.71 325.47 184.56 325.11 183.42C324.68 182.29 324.12 181.21 323.51 180.14V180.12C323.37 179.89 323.45 179.6 323.68 179.47C323.89 179.35 324.17 179.41 324.31 179.61C325.05 180.65 325.74 181.74 326.31 182.91C326.83 184.11 327.33 185.35 327.43 186.71C327.58 188.05 327.48 189.46 327.01 190.77C326.52 192.1 325.8 193.25 324.6 194.24L324.1 194.65L323.58 194.25C322.55 193.46 321.54 192.55 320.9 191.38C320.24 190.24 319.8 188.97 319.64 187.7C319.35 185.13 319.87 182.63 320.91 180.35C321.02 180.11 321.3 180.01 321.54 180.11C321.76 180.21 321.87 180.46 321.8 180.68V180.72L321.78 180.74Z" fill="#262262"/>
<path d="M340.83 135.03C342.3 134.91 344.13 135.09 345.41 136.47C346.69 137.83 346.69 139.98 346.01 141.42C345.4 142.89 344.55 144.1 343.54 145.24C343.02 145.81 342.52 146.35 341.77 146.85C341.02 147.31 340.53 147.53 340.11 147.91C339.3 148.59 338.79 149.77 338.39 151.02C337.91 152.15 337.89 154.13 335.73 155.26C334.67 155.65 333.87 155.5 333.29 155.56C332.99 155.57 332.74 155.63 332.49 155.69C332.01 155.82 331.47 155.88 331 155.8C329.08 155.47 327.93 154.41 326.8 153.28L328.62 152.74C328.22 154.27 327.58 155.09 326.9 156.09C326.2 157.1 324.98 158.11 323.59 158.27C320.81 158.61 318.66 157.29 316.76 156.1L315.37 155.12C314.95 154.83 314.63 154.61 314.21 154.5C313.41 154.25 312.43 154.38 311.28 154.5C310.15 154.62 308.76 154.56 307.59 153.96C306.31 153.39 305.49 152.13 305.1 150.98C304.69 149.8 304.56 148.61 304.56 147.45C304.56 146.87 304.59 146.29 304.64 145.72L304.75 144.84C304.78 144.68 304.73 144.92 304.77 144.94C304.78 145.12 304.94 145.26 304.99 145.3C305.15 145.39 305.03 145.32 304.95 145.32C302.67 145.46 299.53 142.61 300.93 139.82C301.17 139.25 301.45 138.76 301.61 138.35C301.69 138.14 301.72 137.99 301.71 137.86C301.73 137.53 301.69 137.19 301.76 136.87C301.99 135.54 302.82 134.4 303.85 133.72C305.83 132.33 308.92 132.04 310.81 134.04C311.06 134.3 311.05 134.72 310.79 134.96C310.53 135.21 310.12 135.2 309.87 134.94H309.86C308.58 133.62 306.22 133.78 304.69 134.9C303.9 135.44 303.38 136.25 303.24 137.1C303.19 137.31 303.24 137.53 303.21 137.75C303.24 138.17 303.14 138.56 303.03 138.87C302.8 139.49 302.53 139.95 302.36 140.4C301.97 141.31 302.18 141.86 302.79 142.67C303.38 143.36 304.03 143.58 305.22 143.69C305.4 143.74 305.56 143.71 305.95 143.95C306.13 144.05 306.33 144.33 306.41 144.63C306.44 144.78 306.41 145.16 306.41 145.14L306.33 145.9C306.29 146.42 306.27 146.94 306.29 147.46C306.31 148.49 306.44 149.52 306.77 150.42C307.34 152.3 309.08 152.98 311.14 152.7C312.16 152.61 313.42 152.36 314.76 152.73C315.41 152.89 316.04 153.28 316.52 153.62L317.84 154.52C319.58 155.64 321.61 156.62 323.29 156.33C324.12 156.2 324.73 155.7 325.28 154.92C325.85 154.13 326.44 153.06 326.59 152.45V152.4C326.74 151.83 327.31 151.47 327.88 151.61C328.09 151.66 328.26 151.77 328.4 151.91C329.21 152.75 330.39 153.6 331.29 153.68C331.52 153.72 331.69 153.68 331.89 153.63C332.32 153.51 332.77 153.42 333.17 153.4C333.99 153.35 334.64 153.37 334.91 153.23C335.45 153.06 335.87 151.76 336.25 150.34C336.73 148.94 337.34 147.39 338.71 146.23C339.36 145.67 340.17 145.3 340.62 145.03C341.05 144.76 341.54 144.28 341.98 143.81C342.85 142.84 343.66 141.75 344.21 140.64C344.77 139.58 344.74 138.45 344.11 137.64C343.47 136.85 342.22 136.49 340.94 136.5C340.54 136.5 340.21 136.19 340.2 135.79C340.2 135.41 340.49 135.09 340.87 135.05L340.83 135.03Z" fill="#262262"/>
<path d="M305.45 143.91C308.04 144.52 310.28 146.09 312.26 147.47C314.34 148.74 316.41 150.01 318.41 148.82C319.62 148.38 320.92 147.97 322.34 147.88C323.71 147.75 325.34 148.13 326.43 148.65C328.18 149.26 331.08 148.78 331.69 147.4C332.15 146.53 332.46 145.32 332.93 144.07C333.17 143.44 333.45 142.78 333.89 142.12C334.26 141.48 335.2 140.78 335.5 140.57C337.18 139.16 338.89 137.14 339.45 135.31C339.54 134.81 339.58 134.64 339.38 134.2C339.23 133.78 338.94 133.41 338.59 133.09C337.87 132.46 336.84 132.04 335.74 131.89C333.53 131.55 331.1 132.03 328.99 133.07C328.63 133.25 328.19 133.11 328.01 132.75C327.84 132.41 327.97 131.99 328.29 131.79C330.56 130.46 333.21 129.67 335.98 129.87C337.35 130 338.79 130.43 340.01 131.4C340.61 131.89 341.14 132.52 341.46 133.25C341.85 133.92 341.95 135.08 341.76 135.79C340.96 138.82 339.12 140.7 337.07 142.52C335.18 143.52 335.29 145.96 333.86 148.61C333.02 150.17 331.3 150.88 329.94 151.11C328.5 151.35 327.08 151.33 325.6 150.78C323.48 149.67 321.41 149.9 319.05 150.67L318.16 150.96C317.76 151.09 317.36 151.14 316.96 151.16C316.17 151.17 315.45 150.99 314.79 150.74C313.47 150.25 312.39 149.49 311.36 148.73C309.36 147.12 307.49 145.65 305.2 144.93H305.17C304.89 144.83 304.73 144.53 304.82 144.24C304.9 143.97 305.18 143.82 305.46 143.88L305.45 143.91Z" fill="#262262"/>
<path d="M321.56 132.15C319.54 130.58 316.71 130.23 314.65 131.76C313.55 132.47 312.57 133.36 311.81 134.38C311.06 135.37 310.51 136.63 310.6 137.56C310.5 138.13 311.89 139.27 312.8 140.07C313.82 140.87 314.96 141.46 316.03 141.53C316.56 141.57 317.08 141.51 317.58 141.31C318.17 141.08 318.81 140.79 319.41 140.49C320.64 139.88 321.85 139.13 323.45 138.6C324.24 138.35 325.17 138.2 326.08 138.29C326.69 138.36 327.28 138.33 327.88 138.24C329.05 138.08 330.19 137.47 330.43 136.9C330.55 136.59 330.56 136.26 330.4 136.05C330.21 135.72 329.76 135.31 329.25 134.99C328.23 134.33 326.99 133.87 325.75 133.65C324.5 133.45 323.22 133.45 322.1 133.84C320.95 134.2 320.19 135 319.17 136.13C318.19 137.17 317.25 138.24 316.13 139.25C315.03 140.27 313.45 141.07 311.91 141.17H311.87C311.53 141.2 311.23 140.93 311.2 140.59C311.18 140.27 311.41 139.98 311.72 139.93C314.33 139.5 315.84 137 317.73 134.86C318.53 133.84 319.73 132.39 321.33 131.81C322.88 131.18 324.55 131.07 326.11 131.3C327.67 131.54 329.18 132.04 330.58 132.89C331.28 133.32 331.97 133.83 332.55 134.71C333.19 135.69 333.23 136.94 332.8 137.94C331.75 140.02 329.84 140.51 328.29 140.82C327.48 140.95 326.63 140.98 325.82 140.89C325.31 140.84 324.8 140.92 324.24 141.09C323.12 141.45 321.87 142.2 320.53 142.8C319.85 143.11 319.18 143.4 318.44 143.66C317.6 143.96 316.66 144.05 315.78 143.94C313.99 143.71 312.56 142.79 311.39 141.8C310.8 141.3 310.25 140.78 309.74 140.23C309.33 139.87 308.4 138.76 308.42 137.76C308.31 135.8 309.19 134.35 310.11 133.08C311.07 131.83 312.27 130.8 313.62 130.05C314.96 129.24 316.68 128.78 318.3 129.02C319.94 129.24 321.35 129.98 322.55 131.08C322.85 131.35 322.87 131.81 322.6 132.1C322.34 132.38 321.92 132.41 321.62 132.18L321.56 132.13V132.15Z" fill="#262262"/>
<path d="M329.86 139.3C330.34 140.29 330.56 141.29 330.58 142.37C330.62 143.43 330.35 144.61 329.86 145.58C328.83 147.45 327.31 149.05 325.23 149.75C324.9 149.86 324.54 149.68 324.43 149.35C324.35 149.1 324.43 148.84 324.61 148.68L324.67 148.62C325.92 147.49 326.93 146.01 327.52 144.49C327.85 143.75 328.03 143.06 328.17 142.22C328.31 141.41 328.38 140.51 328.45 139.65V139.56C328.49 139.15 328.84 138.85 329.25 138.88C329.52 138.9 329.74 139.07 329.86 139.29V139.3Z" fill="#262262"/>
<path d="M343.77 144.7C344.38 148.43 344.3 152.15 343.74 155.85C343.2 159.54 342.09 163.18 340.42 166.57C338.68 169.93 336.23 172.96 333.2 175.25C330.2 177.66 326.45 178.72 322.85 179.45L322.6 178.18C325.96 177.1 329.3 175.9 331.92 173.59C334.57 171.39 336.67 168.59 338.14 165.45C340.95 159.08 341.69 151.91 341.85 144.89L343.77 144.69V144.7Z" fill="#262262"/>
<path d="M372.46 173.82V179.34C458.89 189.92 525.84 263.57 525.84 352.87C525.84 449.43 447.56 527.71 351 527.71C321.89 527.71 294.45 520.59 270.31 508.01L267.01 512.46C292.1 525.69 320.67 533.19 351.01 533.19C450.6 533.19 531.33 452.46 531.33 352.87C531.33 260.55 461.94 184.44 372.47 173.83L372.46 173.82Z" fill="url(#paint0_linear_1_98)"/>
<path d="M5.48 180.32C5.48 83.76 83.76 5.48 180.32 5.48C198.99 5.48 216.97 8.42 233.84 13.84L238.46 9.59C220.22 3.37 200.66 0 180.32 0C80.73 0 0 80.73 0 180.32C0 279.91 73.23 352.91 166.23 360.09V354.59C76.26 347.41 5.48 272.14 5.48 180.32Z" fill="url(#paint1_linear_1_98)"/>
<path d="M360.61 178.29C364.6 178.51 368.55 178.86 372.46 179.34V173.82C368.5 173.35 364.5 173 360.47 172.79C360.55 174.62 360.59 176.45 360.61 178.29Z" fill="#B09C82"/>
<path d="M170.71 354.89C169.21 354.81 167.72 354.71 166.23 354.59V360.09C167.77 360.21 169.31 360.31 170.85 360.39C170.77 358.56 170.73 356.73 170.71 354.89Z" fill="#B09C82"/>
<path d="M170.71 354.89C170.73 356.73 170.78 358.56 170.85 360.39C172.67 360.48 174.51 360.55 176.34 360.59C176.26 358.77 176.21 356.94 176.19 355.11C174.35 355.07 172.53 354.99 170.71 354.9V354.89Z" fill="#B09C82"/>
<path d="M360.61 178.29C360.59 176.45 360.54 174.62 360.47 172.79C358.65 172.7 356.81 172.63 354.98 172.59C355.06 174.41 355.11 176.24 355.13 178.07C356.97 178.11 358.79 178.19 360.61 178.28V178.29Z" fill="#B09C82"/>
</g>
<defs>
<linearGradient id="paint0_linear_1_98" x1="-36.29" y1="564.86" x2="659.01" y2="214.54" gradientUnits="userSpaceOnUse">
<stop stop-color="#B98B3C"/>
<stop offset="0.2" stop-color="#BA8C3D"/>
<stop offset="0.28" stop-color="#BE9343"/>
<stop offset="0.33" stop-color="#C59F4D"/>
<stop offset="0.37" stop-color="#CFB05C"/>
<stop offset="0.41" stop-color="#DCC66F"/>
<stop offset="0.44" stop-color="#ECE086"/>
<stop offset="0.46" stop-color="#F6F194"/>
<stop offset="0.47" stop-color="#F0E78C"/>
<stop offset="0.52" stop-color="#DFCB73"/>
<stop offset="0.57" stop-color="#D1B35F"/>
<stop offset="0.63" stop-color="#C6A14F"/>
<stop offset="0.7" stop-color="#BE9444"/>
<stop offset="0.8" stop-color="#BA8D3D"/>
<stop offset="1" stop-color="#B98B3C"/>
</linearGradient>
<linearGradient id="paint1_linear_1_98" x1="-152.84" y1="333.54" x2="542.46" y2="-16.78" gradientUnits="userSpaceOnUse">
<stop stop-color="#B98B3C"/>
<stop offset="0.2" stop-color="#BA8C3D"/>
<stop offset="0.28" stop-color="#BE9343"/>
<stop offset="0.33" stop-color="#C59F4D"/>
<stop offset="0.37" stop-color="#CFB05C"/>
<stop offset="0.41" stop-color="#DCC66F"/>
<stop offset="0.44" stop-color="#ECE086"/>
<stop offset="0.46" stop-color="#F6F194"/>
<stop offset="0.47" stop-color="#F0E78C"/>
<stop offset="0.52" stop-color="#DFCB73"/>
<stop offset="0.57" stop-color="#D1B35F"/>
<stop offset="0.63" stop-color="#C6A14F"/>
<stop offset="0.7" stop-color="#BE9444"/>
<stop offset="0.8" stop-color="#BA8D3D"/>
<stop offset="1" stop-color="#B98B3C"/>
</linearGradient>
<clipPath id="clip0_1_98">
<rect width="531.32" height="533.18" fill="white"/>
</clipPath>
</defs>
</svg>
