<svg width="80" height="81" viewBox="0 0 80 81" fill="none" xmlns="http://www.w3.org/2000/svg">
<g clip-path="url(#clip0_26_632)">
<path d="M40 80.3501C62.0914 80.3501 80 62.4415 80 40.3501C80 18.2587 62.0914 0.350098 40 0.350098C17.9086 0.350098 0 18.2587 0 40.3501C0 62.4415 17.9086 80.3501 40 80.3501Z" fill="#50657F"/>
<path d="M28.0221 61.2065C27.2885 61.1766 26.5549 61.1526 25.8212 61.1137C25.381 61.0897 24.9408 61.0418 24.5007 60.9969C23.9647 60.94 23.4256 60.8831 22.8926 60.8112C22.4015 60.7454 21.9134 60.6645 21.4253 60.5777C19.9042 60.3022 18.4039 59.9488 16.9247 59.4997C16.6162 59.4068 16.3078 59.314 16.0024 59.2122C15.5951 59.0774 15.4245 58.7421 15.5562 58.3348C15.8137 57.5503 16.0862 56.7717 16.3408 55.9872C16.6103 55.1577 16.8738 54.3252 17.1253 53.4898C17.5865 51.9656 18.0356 50.4384 18.4968 48.9172C18.9998 47.2643 19.5299 45.6203 20.1826 44.0183C20.5659 43.078 21.0211 42.1767 21.5182 41.2963C21.8805 40.6555 22.2249 40.0027 22.5183 39.326C23.0244 38.1522 23.0543 36.9574 22.692 35.7386C22.4734 34.999 22.156 34.3013 21.8476 33.6006C21.5331 32.8879 21.2786 32.1543 21.1349 31.3847C20.9941 30.6331 20.9732 29.8785 21.0361 29.1209C21.099 28.3513 21.2966 27.6117 21.4523 26.86C21.5511 26.3899 21.611 25.9078 21.6499 25.4287C21.7308 24.4854 21.7877 23.5422 21.8506 22.5989C21.8715 22.2725 21.8715 21.9461 21.8985 21.6197C21.9284 21.2724 22.144 21.0448 22.4884 21.0119C22.7369 20.9879 22.9915 20.9879 23.243 21.0119C23.5844 21.0448 23.794 21.2844 23.8389 21.6467C23.9527 22.566 24.1982 23.4494 24.5306 24.3118C25.0277 25.5934 25.7104 26.7672 26.5788 27.8273C27.022 28.3693 27.5011 28.8813 28.0551 29.3185C28.1629 29.4053 28.2827 29.4772 28.3965 29.561C28.4623 29.609 28.5192 29.612 28.5791 29.561C28.8516 29.3425 29.1421 29.1418 29.3936 28.9023C30.253 28.0878 30.9837 27.1685 31.5676 26.1384C32.2803 24.8837 32.8103 23.5601 33.0708 22.1348C33.1037 21.9551 33.1277 21.7725 33.1576 21.5928C33.2145 21.2484 33.4002 21.0448 33.7416 21.0119C33.9991 20.9879 34.2656 20.9939 34.5231 21.0208C34.8375 21.0538 35.0501 21.2903 35.0741 21.6108C35.101 21.994 35.104 22.3803 35.131 22.7636C35.1969 23.6979 35.2717 24.6292 35.3346 25.5604C35.3855 26.333 35.5682 27.0846 35.7359 27.8362C35.9605 28.8304 36.0323 29.8335 35.9245 30.8457C35.8586 31.4476 35.7209 32.0375 35.5113 32.6064C35.3226 33.1185 35.107 33.6215 34.8944 34.1246C34.6279 34.7534 34.3674 35.3853 34.1997 36.047C33.9182 37.176 34.0111 38.2719 34.4692 39.3469C34.7687 40.0506 35.128 40.7184 35.5083 41.3772C36.0832 42.3743 36.5504 43.4194 36.9726 44.4914C37.4727 45.7581 37.8979 47.0517 38.2961 48.3543C38.7663 49.8904 39.2154 51.4326 39.6856 52.9657C40.1048 54.3312 40.545 55.6907 40.9792 57.0532C41.1169 57.4814 41.2547 57.9066 41.4074 58.3258C41.5661 58.76 41.3205 59.1104 40.9552 59.2272C39.967 59.5416 38.9699 59.8291 37.9608 60.0716C36.9127 60.3261 35.8557 60.5477 34.7866 60.7034C33.8943 60.8352 32.9959 60.949 32.0976 61.0358C31.3131 61.1107 30.5255 61.1496 29.738 61.1796C29.166 61.2005 28.5911 61.1825 28.0162 61.1825C28.0162 61.1915 28.0162 61.2005 28.0162 61.2125L28.0221 61.2065Z" fill="white"/>
<path d="M54.7866 31.9805C55.2388 31.9805 55.688 31.9805 56.1401 31.9805C56.4216 31.9805 56.5085 32.0584 56.5504 32.3429C56.9846 35.3104 57.4158 38.2809 57.847 41.2484C58.2572 44.0602 58.6645 46.872 59.0747 49.6838C59.2244 50.7109 59.3771 51.735 59.5089 52.7621C59.5269 52.8938 59.458 53.0855 59.3592 53.1723C57.9368 54.427 56.5025 55.6697 55.0711 56.9124C54.8555 57.1011 54.7327 57.1011 54.5231 56.9184C53.0918 55.6757 51.6604 54.427 50.2261 53.1873C50.0734 53.0555 50.0434 52.9118 50.0704 52.7202C50.6094 49.049 51.1394 45.3748 51.6724 41.7035C52.1246 38.5953 52.5767 35.4841 53.0289 32.3758C53.0768 32.0434 53.1517 31.9775 53.484 31.9775C53.9182 31.9775 54.3524 31.9775 54.7866 31.9775V31.9805Z" fill="white"/>
<path d="M61.042 25.1323C61.3056 25.1353 61.4403 25.333 61.3565 25.5635C61.3355 25.6174 61.3056 25.6683 61.2786 25.7192C60.503 27.1985 59.7245 28.6778 58.9489 30.157C58.7333 30.5643 58.5417 30.5852 58.2362 30.2409C57.2361 29.106 56.2329 27.9741 55.2418 26.8332C55.1489 26.7254 55.0741 26.5547 55.0831 26.4199C55.101 26.2223 55.3047 26.2073 55.4723 26.1744C57.278 25.836 59.0807 25.4947 60.8863 25.1563C60.9432 25.1443 61.0001 25.1383 61.039 25.1323H61.042Z" fill="white"/>
<path d="M48.5761 25.1353C49.2978 25.2701 50.0374 25.4078 50.7741 25.5456C51.897 25.7582 53.0229 25.9708 54.1458 26.1804C54.5621 26.2582 54.6489 26.4918 54.3734 26.8032C53.3523 27.9651 52.3312 29.1239 51.3101 30.2828C51.0615 30.5673 50.8429 30.5433 50.6693 30.2109C49.8727 28.6957 49.0762 27.1805 48.2797 25.6623C48.118 25.3539 48.2467 25.1144 48.5761 25.1293V25.1353Z" fill="white"/>
<path d="M54.7807 31.4087C54.3135 31.4087 53.8464 31.4057 53.3762 31.4087C53.1726 31.4087 53.0499 31.3249 52.984 31.1303C52.8462 30.717 52.6845 30.3128 52.5707 29.8965C52.5348 29.7708 52.5767 29.5701 52.6636 29.4683C53.2295 28.7976 53.8134 28.1448 54.3974 27.489C54.61 27.2494 54.9783 27.2494 55.1879 27.489C55.7718 28.1448 56.3468 28.8066 56.9307 29.4623C57.0564 29.6031 57.0804 29.7498 57.0175 29.9235C56.8738 30.3247 56.733 30.726 56.6013 31.1303C56.5384 31.3249 56.4156 31.4117 56.209 31.4087C55.7329 31.4028 55.2568 31.4087 54.7807 31.4087Z" fill="white"/>
</g>
<defs>
<clipPath id="clip0_26_632">
<rect width="80" height="80" fill="white" transform="translate(0 0.350098)"/>
</clipPath>
</defs>
</svg>
